<?xml version="1.0" encoding="UTF-8" standalone="no"?>
<svg
   width="201"
   height="46"
   viewBox="0 0 201 46"
   fill="none"
   version="1.1"
   id="svg291"
   sodipodi:docname="brave-rewards-creators-mobile-logo.svg"
   inkscape:version="1.2.2 (b0a8486, 2022-12-01)"
   xmlns:inkscape="http://www.inkscape.org/namespaces/inkscape"
   xmlns:sodipodi="http://sodipodi.sourceforge.net/DTD/sodipodi-0.dtd"
   xmlns="http://www.w3.org/2000/svg"
   xmlns:svg="http://www.w3.org/2000/svg">
  <sodipodi:namedview
     id="namedview293"
     pagecolor="#ffffff"
     bordercolor="#000000"
     borderopacity="0.25"
     inkscape:showpageshadow="2"
     inkscape:pageopacity="0.0"
     inkscape:pagecheckerboard="0"
     inkscape:deskcolor="#d1d1d1"
     showgrid="false"
     inkscape:zoom="6.199005"
     inkscape:cx="100.5"
     inkscape:cy="22.98756"
     inkscape:window-width="1390"
     inkscape:window-height="1205"
     inkscape:window-x="0"
     inkscape:window-y="25"
     inkscape:window-maximized="0"
     inkscape:current-layer="svg291" />
  <path
     fill-rule="evenodd"
     clip-rule="evenodd"
     d="M35.0101 24.3407V13.3526H36.0638C36.9222 13.3526 37.6181 14.0468 37.6181 14.9032V19.7888C39.3066 18.2859 40.7426 17.6842 42.6564 17.6456C46.3271 17.5707 49.513 20.2905 49.8157 23.9411C50.1775 28.3023 46.9984 31.5851 42.8567 31.5851C38.3099 31.5851 35.0101 28.7722 35.0101 24.3407ZM37.5748 25.2034C37.832 27.4736 40.0052 29.3489 42.2968 29.3852C45.2825 29.4306 47.317 27.4895 47.317 24.6176C47.317 21.7457 45.328 19.8501 42.4266 19.8501C39.3248 19.8433 37.2221 22.0908 37.5748 25.2034Z"
     fill="#585C6D"
     id="path247"
     style="fill:#ffffff" />
  <path
     fill-rule="evenodd"
     clip-rule="evenodd"
     d="M54.1668 17.9203V19.8773C55.8075 18.0611 56.7792 17.573 58.6999 17.573C59.2586 17.5736 59.8164 17.6184 60.368 17.7069V20.3064C59.7794 20.145 59.1715 20.064 58.5611 20.0657C57.1707 20.0657 56.0032 20.5198 55.1476 21.3779C54.3966 22.1294 54.1736 22.7174 54.1736 23.8979V31.1355H51.4701V17.9203H54.1668Z"
     fill="#585C6D"
     id="path249"
     style="fill:#ffffff" />
  <path
     fill-rule="evenodd"
     clip-rule="evenodd"
     d="M61.0097 22.2906C61.1485 21.0033 61.3989 20.3064 61.9541 19.6366C63.0669 18.2745 65.0695 17.573 67.905 17.573C70.1579 17.573 71.7987 17.9226 72.9388 18.6718C73.8855 19.287 74.2746 20.1997 74.2746 21.807V27.6757C74.2746 28.9629 74.6091 29.4169 75.5262 29.392C75.7311 29.3848 75.9354 29.3666 76.1384 29.3375V31.106C75.6825 31.2615 75.2022 31.3337 74.7206 31.3194C73.0253 31.3194 72.247 30.8109 71.719 29.3352C70.051 30.8631 68.326 31.5056 65.8523 31.5056C62.5435 31.5056 60.5136 30.0049 60.5136 27.5644C60.4991 26.1727 61.3198 24.9071 62.5981 24.3497C63.5994 23.9206 64.2116 23.7867 67.0744 23.4916C69.5207 23.2509 69.9394 23.1964 70.6335 22.9807C71.3845 22.7401 71.719 22.3383 71.719 21.6685C71.719 20.2473 70.5243 19.6049 68.0211 19.6049C65.6544 19.6049 64.4346 20.0725 63.9453 21.2667C63.703 21.8773 63.1131 22.2799 62.4548 22.2838L61.0097 22.2906ZM71.7054 24.5427C69.9902 25.0403 68.229 25.3636 66.4485 25.5075C64.0295 25.7482 63.2785 26.2045 63.2785 27.41C63.2785 28.7495 64.3913 29.4532 66.5874 29.4532C68.3942 29.4532 69.7574 28.9992 70.7314 28.1138C71.5096 27.3896 71.7054 26.881 71.7054 25.6165V24.5427Z"
     fill="#585C6D"
     id="path251"
     style="fill:#ffffff" />
  <path
     fill-rule="evenodd"
     clip-rule="evenodd"
     d="M82.665 31.1333H81.9687C81.3552 31.1371 80.7941 30.7892 80.5259 30.2388L74.6934 17.9203H76.3136C77.2578 17.9128 78.1174 18.4622 78.5051 19.3211L82.3965 28.1751L86.4176 19.287C86.8111 18.4417 87.6635 17.9038 88.5977 17.9112H90.0701L84.101 30.2524C83.83 30.7953 83.273 31.1371 82.665 31.1333Z"
     fill="#585C6D"
     id="path253"
     style="fill:#ffffff" />
  <path
     fill-rule="evenodd"
     clip-rule="evenodd"
     d="M91.8974 25.2919C92.1751 27.8391 94.1731 29.4192 97.152 29.4192C98.8428 29.4192 100.11 28.9175 100.895 27.9163C101.353 27.3422 102.049 27.0078 102.784 27.0082H104.352C102.987 30.0095 100.543 31.4851 96.8994 31.4851C92.348 31.4851 89.2804 28.7245 89.2804 24.5972C89.2804 20.4698 92.4231 17.5752 96.9563 17.5752C100.236 17.5752 102.873 19.0486 103.936 21.5164C104.409 22.6515 104.603 23.6595 104.603 25.2941L91.8974 25.2919ZM101.851 23.2486C101.239 20.9171 99.4322 19.6026 96.9289 19.6026C94.4257 19.6026 92.6188 20.9171 91.9794 23.2486H101.851Z"
     fill="#585C6D"
     id="path255"
     style="fill:#ffffff" />
  <path
     fill-rule="evenodd"
     clip-rule="evenodd"
     d="M26.646 14.6606L27.3957 12.8223C27.3957 12.8223 26.4415 11.801 25.2827 10.6436C24.124 9.48613 21.6701 10.167 21.6701 10.167L18.8755 7H13.9678H9.06018L6.26554 10.167C6.26554 10.167 3.81171 9.48613 2.65296 10.6436C1.4942 11.801 0.539935 12.8223 0.539935 12.8223L1.28972 14.6606L0.335449 17.384C0.335449 17.384 3.14202 28.0022 3.4709 29.2989C4.11844 31.8521 4.56149 32.8393 6.40186 34.1329C8.24223 35.4266 11.5822 37.6734 12.1275 38.0138C12.6728 38.3542 13.3544 38.9341 13.9678 38.9341C14.5813 38.9341 15.2629 38.3542 15.8082 38.0138C16.3535 37.6734 19.6934 35.4266 21.5338 34.1329C23.3742 32.8393 23.8172 31.8521 24.4648 29.2989C24.7936 28.0022 27.6002 17.384 27.6002 17.384L26.646 14.6606Z"
     fill="url(#paint0_linear_102_11634)"
     id="path257" />
  <path
     fill-rule="evenodd"
     clip-rule="evenodd"
     d="M17.4441 12.7542C17.8531 12.7542 20.8863 12.1755 20.8863 12.1755C20.8863 12.1755 24.4809 16.5159 24.4809 17.4436C24.4809 18.2106 24.1718 18.5108 23.8077 18.8643C23.7315 18.9384 23.6528 19.0148 23.5741 19.0983L20.8788 21.9571C20.8521 21.9855 20.8223 22.0153 20.7909 22.047C20.5218 22.3172 20.1257 22.715 20.4052 23.3758C20.4239 23.42 20.4431 23.4649 20.4626 23.5105C20.7691 24.2264 21.1474 25.1102 20.6659 26.0058C20.1536 26.9585 19.276 27.5943 18.7136 27.4892C18.1513 27.384 16.8307 26.6946 16.345 26.3797C15.8594 26.0648 14.3201 24.7968 14.3201 24.3117C14.3201 23.907 15.4271 23.2339 15.9649 22.9068C16.0719 22.8417 16.1564 22.7904 16.2051 22.7575C16.2607 22.7202 16.3535 22.6626 16.4678 22.5916C16.9587 22.287 17.8451 21.7369 17.8674 21.493C17.8948 21.1923 17.8844 21.1041 17.4887 20.3612C17.4046 20.2032 17.3061 20.0339 17.2043 19.8591C16.8276 19.2115 16.4057 18.4864 16.4991 17.967C16.6045 17.3807 17.5242 17.0445 18.3033 16.7598C18.4007 16.7242 18.4959 16.6894 18.587 16.655C18.8144 16.5692 19.1001 16.4623 19.3985 16.3507C20.1764 16.0596 21.0406 15.7363 21.1831 15.6706C21.3805 15.5797 21.3295 15.4932 20.7319 15.4366C20.6528 15.4291 20.5546 15.4187 20.4417 15.4067C19.702 15.3282 18.3377 15.1834 17.6744 15.3681C17.544 15.4044 17.3977 15.4439 17.2444 15.4854C16.4992 15.687 15.586 15.934 15.4982 16.0764C15.4829 16.1013 15.4678 16.1228 15.4536 16.143C15.3696 16.2622 15.3149 16.3399 15.4078 16.8463C15.4354 16.9971 15.4923 17.2937 15.5626 17.6604C15.7684 18.7343 16.0895 20.4094 16.13 20.7857C16.1356 20.8384 16.1419 20.8892 16.1479 20.9381C16.1994 21.3579 16.2336 21.6373 15.7455 21.7488C15.7049 21.7581 15.6622 21.7679 15.6178 21.778C15.0671 21.9043 14.2596 22.0894 13.9679 22.0894C13.676 22.0894 12.8679 21.9041 12.3172 21.7779C12.2731 21.7678 12.2306 21.758 12.1902 21.7488C11.702 21.6373 11.7363 21.3579 11.7878 20.9381C11.7938 20.8892 11.8 20.8384 11.8057 20.7857C11.8462 20.4089 12.1681 18.7297 12.374 17.656C12.4439 17.2913 12.5004 16.9964 12.5279 16.8463C12.6208 16.3399 12.566 16.2622 12.4822 16.143C12.4679 16.1228 12.4528 16.1013 12.4375 16.0764C12.3498 15.934 11.4366 15.687 10.6914 15.4855C10.538 15.444 10.3917 15.4044 10.2612 15.3681C9.59796 15.1834 8.2338 15.3282 7.49402 15.4067C7.38116 15.4187 7.28283 15.4291 7.20374 15.4366C6.60623 15.4932 6.55525 15.5797 6.75251 15.6706C6.89503 15.7363 7.75886 16.0595 8.53656 16.3504C8.83523 16.4622 9.1212 16.5692 9.34873 16.655C9.43988 16.6894 9.5351 16.7242 9.63252 16.7598C10.4115 17.0446 11.3312 17.3807 11.4367 17.967C11.53 18.4863 11.1082 19.2113 10.7315 19.8588C10.6297 20.0338 10.5312 20.2031 10.447 20.3612C10.0513 21.1041 10.0408 21.1923 10.0683 21.493C10.0905 21.7368 10.9766 22.2868 11.4676 22.5914C11.582 22.6625 11.6749 22.7201 11.7305 22.7575C11.7792 22.7904 11.8636 22.8417 11.9705 22.9067C12.5083 23.2337 13.6155 23.907 13.6155 24.3117C13.6155 24.7968 12.0764 26.0648 11.5907 26.3797C11.1051 26.6946 9.78442 27.384 9.22208 27.4892C8.65975 27.5943 7.78216 26.9585 7.26986 26.0058C6.78831 25.1102 7.16655 24.2265 7.47297 23.5106C7.4925 23.465 7.51173 23.42 7.53044 23.3758C7.81001 22.715 7.41378 22.3171 7.14471 22.0469C7.11326 22.0153 7.08355 21.9854 7.05685 21.9571L4.36159 19.0983C4.28287 19.0148 4.20421 18.9384 4.12797 18.8644C3.76393 18.5108 3.45483 18.2106 3.45483 17.4436C3.45483 16.5159 7.04942 12.1755 7.04942 12.1755C7.04942 12.1755 10.0826 12.7542 10.4916 12.7542C10.8179 12.7542 11.4481 12.5374 12.105 12.3115C12.2713 12.2543 12.4394 12.1965 12.6046 12.1414C13.4226 11.8691 13.9679 11.8671 13.9679 11.8671C13.9679 11.8671 14.5132 11.8691 15.3311 12.1414C15.4964 12.1965 15.6644 12.2543 15.8307 12.3115C16.4876 12.5374 17.1178 12.7542 17.4441 12.7542ZM16.9235 28.1068C17.5647 28.4368 18.0196 28.671 18.1916 28.7785C18.414 28.9176 18.2783 29.18 18.0757 29.3231C17.873 29.4662 15.1492 31.573 14.8848 31.8059C14.851 31.8357 14.8151 31.868 14.7778 31.9016C14.5231 32.1309 14.1982 32.4234 13.9678 32.4234C13.7374 32.4234 13.4123 32.1307 13.1576 31.9013C13.1203 31.8678 13.0846 31.8356 13.0509 31.8059C12.7865 31.573 10.0627 29.4662 9.86 29.3231C9.65728 29.18 9.52164 28.9176 9.74412 28.7785C9.91623 28.6709 10.3716 28.4365 11.0134 28.1062C11.2015 28.0093 11.4057 27.9043 11.6234 27.7917C12.5839 27.2952 13.781 26.8731 13.9678 26.8731C14.1547 26.8731 15.3517 27.2952 16.3123 27.7917C16.5305 27.9045 16.735 28.0098 16.9235 28.1068Z"
     fill="white"
     id="path259" />
  <path
     fill-rule="evenodd"
     clip-rule="evenodd"
     d="M21.6701 10.167L18.8755 7H13.9678H9.06018L6.26554 10.167C6.26554 10.167 3.81171 9.48613 2.65295 10.6436C2.65295 10.6436 5.92473 10.3486 7.0494 12.1755C7.0494 12.1755 10.0826 12.7542 10.4916 12.7542C10.9005 12.7542 11.7867 12.4138 12.6046 12.1414C13.4225 11.8691 13.9678 11.8671 13.9678 11.8671C13.9678 11.8671 14.5131 11.8691 15.3311 12.1414C16.149 12.4138 17.0351 12.7542 17.4441 12.7542C17.8531 12.7542 20.8863 12.1755 20.8863 12.1755C22.0109 10.3486 25.2827 10.6436 25.2827 10.6436C24.124 9.48613 21.6701 10.167 21.6701 10.167Z"
     fill="url(#paint1_linear_102_11634)"
     id="path261" />
  <path
     d="M113.392 24.416C113.392 23.328 113.643 22.352 114.144 21.488C114.656 20.624 115.344 19.952 116.208 19.472C117.083 18.9813 118.037 18.736 119.072 18.736C120.256 18.736 121.307 19.0293 122.224 19.616C123.152 20.192 123.824 21.0133 124.24 22.08H122.048C121.76 21.4933 121.36 21.056 120.848 20.768C120.336 20.48 119.744 20.336 119.072 20.336C118.336 20.336 117.68 20.5013 117.104 20.832C116.528 21.1627 116.075 21.6373 115.744 22.256C115.424 22.8747 115.264 23.5947 115.264 24.416C115.264 25.2373 115.424 25.9573 115.744 26.576C116.075 27.1947 116.528 27.6747 117.104 28.016C117.68 28.3467 118.336 28.512 119.072 28.512C119.744 28.512 120.336 28.368 120.848 28.08C121.36 27.792 121.76 27.3547 122.048 26.768H124.24C123.824 27.8347 123.152 28.656 122.224 29.232C121.307 29.808 120.256 30.096 119.072 30.096C118.027 30.096 117.072 29.856 116.208 29.376C115.344 28.8853 114.656 28.208 114.144 27.344C113.643 26.48 113.392 25.504 113.392 24.416Z"
     fill="#6B7084"
     id="path263"
     style="fill:#ffffff" />
  <path
     d="M128.199 22.464C128.466 22.016 128.818 21.6693 129.255 21.424C129.703 21.168 130.231 21.04 130.839 21.04V22.928H130.375C129.66 22.928 129.116 23.1093 128.743 23.472C128.38 23.8347 128.199 24.464 128.199 25.36V30H126.375V21.184H128.199V22.464Z"
     fill="#6B7084"
     id="path265"
     style="fill:#ffffff" />
  <path
     d="M140.596 25.376C140.596 25.7067 140.574 26.0053 140.532 26.272H133.796C133.849 26.976 134.11 27.5413 134.58 27.968C135.049 28.3947 135.625 28.608 136.308 28.608C137.289 28.608 137.982 28.1973 138.388 27.376H140.356C140.089 28.1867 139.604 28.8533 138.9 29.376C138.206 29.888 137.342 30.144 136.308 30.144C135.465 30.144 134.708 29.9573 134.036 29.584C133.374 29.2 132.852 28.6667 132.468 27.984C132.094 27.2907 131.908 26.4907 131.908 25.584C131.908 24.6773 132.089 23.8827 132.452 23.2C132.825 22.5067 133.342 21.9733 134.004 21.6C134.676 21.2267 135.444 21.04 136.308 21.04C137.14 21.04 137.881 21.2213 138.532 21.584C139.182 21.9467 139.689 22.4587 140.052 23.12C140.414 23.7707 140.596 24.5227 140.596 25.376ZM138.692 24.8C138.681 24.128 138.441 23.5893 137.972 23.184C137.502 22.7787 136.921 22.576 136.228 22.576C135.598 22.576 135.06 22.7787 134.612 23.184C134.164 23.5787 133.897 24.1173 133.812 24.8H138.692Z"
     fill="#6B7084"
     id="path267"
     style="fill:#ffffff" />
  <path
     d="M141.783 25.552C141.783 24.6667 141.964 23.8827 142.327 23.2C142.7 22.5173 143.201 21.9893 143.831 21.616C144.471 21.232 145.175 21.04 145.943 21.04C146.636 21.04 147.239 21.1787 147.751 21.456C148.273 21.7227 148.689 22.0587 148.999 22.464V21.184H150.839V30H148.999V28.688C148.689 29.104 148.268 29.4507 147.735 29.728C147.201 30.0053 146.593 30.144 145.911 30.144C145.153 30.144 144.46 29.952 143.831 29.568C143.201 29.1733 142.7 28.6293 142.327 27.936C141.964 27.232 141.783 26.4373 141.783 25.552ZM148.999 25.584C148.999 24.976 148.871 24.448 148.615 24C148.369 23.552 148.044 23.2107 147.639 22.976C147.233 22.7413 146.796 22.624 146.327 22.624C145.857 22.624 145.42 22.7413 145.015 22.976C144.609 23.2 144.279 23.536 144.023 23.984C143.777 24.4213 143.655 24.944 143.655 25.552C143.655 26.16 143.777 26.6933 144.023 27.152C144.279 27.6107 144.609 27.9627 145.015 28.208C145.431 28.4427 145.868 28.56 146.327 28.56C146.796 28.56 147.233 28.4427 147.639 28.208C148.044 27.9733 148.369 27.632 148.615 27.184C148.871 26.7253 148.999 26.192 148.999 25.584Z"
     fill="#6B7084"
     id="path269"
     style="fill:#ffffff" />
  <path
     d="M155.362 22.672V27.552C155.362 27.8827 155.437 28.1227 155.586 28.272C155.746 28.4107 156.013 28.48 156.386 28.48H157.506V30H156.066C155.245 30 154.616 29.808 154.178 29.424C153.741 29.04 153.522 28.416 153.522 27.552V22.672H152.482V21.184H153.522V18.992H155.362V21.184H157.506V22.672H155.362Z"
     fill="#6B7084"
     id="path271"
     style="fill:#ffffff" />
  <path
     d="M163.011 30.144C162.179 30.144 161.427 29.9573 160.755 29.584C160.083 29.2 159.555 28.6667 159.171 27.984C158.787 27.2907 158.595 26.4907 158.595 25.584C158.595 24.688 158.793 23.8933 159.187 23.2C159.582 22.5067 160.121 21.9733 160.803 21.6C161.486 21.2267 162.249 21.04 163.091 21.04C163.934 21.04 164.697 21.2267 165.379 21.6C166.062 21.9733 166.601 22.5067 166.995 23.2C167.39 23.8933 167.587 24.688 167.587 25.584C167.587 26.48 167.385 27.2747 166.979 27.968C166.574 28.6613 166.019 29.2 165.315 29.584C164.622 29.9573 163.854 30.144 163.011 30.144ZM163.011 28.56C163.481 28.56 163.918 28.448 164.323 28.224C164.739 28 165.075 27.664 165.331 27.216C165.587 26.768 165.715 26.224 165.715 25.584C165.715 24.944 165.593 24.4053 165.347 23.968C165.102 23.52 164.777 23.184 164.371 22.96C163.966 22.736 163.529 22.624 163.059 22.624C162.59 22.624 162.153 22.736 161.747 22.96C161.353 23.184 161.038 23.52 160.803 23.968C160.569 24.4053 160.451 24.944 160.451 25.584C160.451 26.5333 160.691 27.2693 161.171 27.792C161.662 28.304 162.275 28.56 163.011 28.56Z"
     fill="#6B7084"
     id="path273"
     style="fill:#ffffff" />
  <path
     d="M171.215 22.464C171.481 22.016 171.833 21.6693 172.271 21.424C172.719 21.168 173.247 21.04 173.855 21.04V22.928H173.391C172.676 22.928 172.132 23.1093 171.759 23.472C171.396 23.8347 171.215 24.464 171.215 25.36V30H169.391V21.184H171.215V22.464Z"
     fill="#6B7084"
     id="path275"
     style="fill:#ffffff" />
  <path
     d="M178.731 30.144C178.038 30.144 177.414 30.0213 176.859 29.776C176.315 29.52 175.883 29.1787 175.563 28.752C175.243 28.3147 175.073 27.8293 175.051 27.296H176.939C176.971 27.6693 177.147 27.984 177.467 28.24C177.798 28.4853 178.209 28.608 178.699 28.608C179.211 28.608 179.606 28.512 179.883 28.32C180.171 28.1173 180.315 27.8613 180.315 27.552C180.315 27.2213 180.155 26.976 179.835 26.816C179.526 26.656 179.03 26.48 178.347 26.288C177.686 26.1067 177.147 25.9307 176.731 25.76C176.315 25.5893 175.953 25.328 175.643 24.976C175.345 24.624 175.195 24.16 175.195 23.584C175.195 23.1147 175.334 22.688 175.611 22.304C175.889 21.9093 176.283 21.6 176.795 21.376C177.318 21.152 177.915 21.04 178.587 21.04C179.59 21.04 180.395 21.296 181.003 21.808C181.622 22.3093 181.953 22.9973 181.995 23.872H180.171C180.139 23.4773 179.979 23.1627 179.691 22.928C179.403 22.6933 179.014 22.576 178.523 22.576C178.043 22.576 177.675 22.6667 177.419 22.848C177.163 23.0293 177.035 23.2693 177.035 23.568C177.035 23.8027 177.121 24 177.291 24.16C177.462 24.32 177.67 24.448 177.915 24.544C178.161 24.6293 178.523 24.7413 179.003 24.88C179.643 25.0507 180.166 25.2267 180.571 25.408C180.987 25.5787 181.345 25.8347 181.643 26.176C181.942 26.5173 182.097 26.9707 182.107 27.536C182.107 28.0373 181.969 28.4853 181.691 28.88C181.414 29.2747 181.019 29.584 180.507 29.808C180.006 30.032 179.414 30.144 178.731 30.144Z"
     fill="#6B7084"
     id="path277"
     style="fill:#ffffff" />
  <defs
     id="defs289">
    <linearGradient
       id="paint0_linear_102_11634"
       x1="0.335449"
       y1="39.1594"
       x2="27.6002"
       y2="39.1594"
       gradientUnits="userSpaceOnUse">
      <stop
         stop-color="#FF5500"
         id="stop279" />
      <stop
         offset="1"
         stop-color="#FF2000"
         id="stop281" />
    </linearGradient>
    <linearGradient
       id="paint1_linear_102_11634"
       x1="2.65295"
       y1="12.7948"
       x2="25.2827"
       y2="12.7948"
       gradientUnits="userSpaceOnUse">
      <stop
         stop-color="#FF5500"
         id="stop284" />
      <stop
         offset="1"
         stop-color="#FF2000"
         id="stop286" />
    </linearGradient>
  </defs>
</svg>
