<svg width="101" height="24" viewBox="0 0 101 24" xmlns="http://www.w3.org/2000/svg"><g fill="none" fill-rule="evenodd"><rect fill="#FFFFFF" opacity="0.27" width="100.8" height="24" rx="12"/><path d="M13.94 12.98c0-.45-.33-.72-.84-.72h-1.04v1.42h1.06c.52 0 .82-.25.82-.7zm-.13-2.2c0-.42-.29-.66-.79-.66h-.96v1.32h.96c.5 0 .79-.22.79-.66zm1.2 2.33c0 .84-.64 1.43-1.74 1.43H11V9.27h2.18c1.1 0 1.71.57 1.71 1.36a1.22 1.22 0 0 1-.9 1.2 1.28 1.28 0 0 1 1.02 1.28zm.83-.59V9.27h1.06v3.26c0 .72.4 1.1 1.06 1.1.68 0 1.08-.38 1.08-1.1V9.27h1.06v3.25c0 1.4-1 2.07-2.15 2.07-1.16 0-2.1-.68-2.1-2.07zm5.28 2.02V9.27h1.06v5.27h-1.06zm2.1-5.27h1.06v4.43H26v.84h-2.79V9.27zm3.19.85V9.27h3.86v.85h-1.4v4.42H27.8v-4.42h-1.4zm7.5 4.43l-1.42-5.28h1.13l.93 4.09 1.07-4.1h1.18l1.01 4.08.94-4.07h1.14l-1.47 5.27h-1.25l-.99-3.76-1.03 3.76H33.9zm6.67-.01V9.27h1.05v5.27h-1.05zm1.82-4.42V9.27h3.86v.85h-1.4v4.42H43.8v-4.42h-1.4zm7.95 4.42V12.3h-2.26v2.24h-1.06V9.27h1.06v2.16h2.26V9.27h1.06v5.27h-1.06zM76.56 12.98c0-.45-.32-.72-.84-.72h-1.04v1.42h1.06c.52 0 .82-.25.82-.7zm-.13-2.2c0-.42-.29-.66-.78-.66h-.97v1.32h.97c.5 0 .78-.22.78-.66zm1.2 2.33c0 .84-.64 1.43-1.73 1.43h-2.28V9.27h2.18c1.1 0 1.71.57 1.71 1.36a1.22 1.22 0 0 1-.9 1.2 1.28 1.28 0 0 1 1.02 1.28zm4.43 1.43l-.35-1h-2.1l-.35 1h-1.1l1.89-5.28h1.23l1.9 5.28h-1.12zm-.64-1.85l-.76-2.2-.76 2.2h1.52zm2.19-2.57V9.27h3.86v.85h-1.4v4.42H85v-4.42h-1.4z" fill="#FFFFFF" fill-rule="nonzero"/><path d="M55.27 17.57l4.66-2.7 3.2-5.58V3.9c-0.08 0-0.16 0.06-0.22 0.17l-3.8 6.6-3.81 6.6c-0.07 0.12-0.07 0.22-0.03 0.3" fill="#FF4724"/><path d="M63.14 3.91V9.3l3.21 5.57 4.66 2.71c0.04-0.07 0.04-0.17-0.03-0.28l-3.8-6.6-3.8-6.61C63.3 3.97 63.21 3.9 63.13 3.9" fill="#9E1F63"/><path d="M71 17.57l-4.65-2.7h-6.42l-4.66 2.7c0.04 0.08 0.13 0.12 0.26 0.12h15.22c0.13 0 0.22-0.04 0.26-0.12" fill="#662D91"/><path fill="#FFFFFF" d="M59.93 14.86h6.42l-3.2-5.57z"/></g></svg>