<svg id="Layer_1" data-name="Layer 1" xmlns="http://www.w3.org/2000/svg" xmlns:xlink="http://www.w3.org/1999/xlink" viewBox="0 0 168.09 56.79"><defs><style>.cls-1{fill:url(#linear-gradient);}.cls-2{fill:#fff;}.cls-3{fill:#676767;}</style><linearGradient id="linear-gradient" x1="24.44" x2="24.44" y2="56.79" gradientUnits="userSpaceOnUse"><stop offset="0" stop-color="#f9ba16"/><stop offset="0.04" stop-color="#faa612"/><stop offset="0.11" stop-color="#fc8b0c"/><stop offset="0.19" stop-color="#fd7508"/><stop offset="0.28" stop-color="#fe6404"/><stop offset="0.4" stop-color="#ff5902"/><stop offset="0.56" stop-color="#ff5200"/><stop offset="1" stop-color="#ff5000"/></linearGradient></defs><title>brave_logo_horz</title><path class="cls-1" d="M48.64,18.37l-4.13-7.14L45,8.92,41.24,5.1l-3.12.43L33.07,0,24.49,0H24.43l-8.64.07L10.75,5.59,7.63,5.14,3.89,9l0.48,2.3L0.25,18.41l1.13,4.28L6.51,42.22a10,10,0,0,0,3.85,5.57s6.24,4.4,12.39,8.39a2.75,2.75,0,0,0,3.43,0c6.91-4.53,12.38-8.41,12.38-8.41A10,10,0,0,0,42.4,42.2l5.11-19.54Z" transform="translate(-0.25)"/><path class="cls-2" d="M25.77,33.82a7.32,7.32,0,0,0-1-.37H24.15a7.32,7.32,0,0,0-1,.37l-1.53.64c-0.49.2-1.26,0.57-1.73,0.81l-2.82,1.47a0.54,0.54,0,0,0-.07,1l2.44,1.73c0.43,0.3,1.11.83,1.5,1.18l0.69,0.59,1.44,1.26,0.65,0.58a1.12,1.12,0,0,0,1.44,0l0.68-.6,1.44-1.26,0.69-.6c0.4-.35,1.07-0.88,1.5-1.18l2.45-1.75a0.53,0.53,0,0,0-.07-1L29,35.26c-0.47-.24-1.25-0.6-1.74-0.8Z" transform="translate(-0.25)"/><path class="cls-2" d="M43.09,19.47l0.08-.25a6.69,6.69,0,0,0-.07-1,8.57,8.57,0,0,0-.91-1.71l-1.58-2.33c-0.29-.44-0.8-1.13-1.13-1.54L37.36,10a7.45,7.45,0,0,0-.63-0.74h0l-0.94.17L32.48,10l-1.42.27a3.71,3.71,0,0,1-1.4-.2l-2.57-.83c-0.5-.16-1.33-0.39-1.84-0.51a3.92,3.92,0,0,0-.81,0,3.92,3.92,0,0,0-.81,0c-0.51.12-1.34,0.35-1.84,0.51l-2.57.83a3.71,3.71,0,0,1-1.4.2L16.39,10l-3.26-.63-0.94-.17h0a7.45,7.45,0,0,0-.63.74L9.39,12.64c-0.33.41-.84,1.1-1.13,1.54L6.68,16.52a12.5,12.5,0,0,0-.75,1.25,5.69,5.69,0,0,0-.22,1.48L5.8,19.5a3.77,3.77,0,0,0,.15.48,15.72,15.72,0,0,0,1.3,1.39l5.48,5.07A1.47,1.47,0,0,1,13,28l-0.91,2.16a2.8,2.8,0,0,0,0,1.78l0.18,0.5a4.83,4.83,0,0,0,1.48,2.08l0.87,0.71a1.65,1.65,0,0,0,1.6.19l3.11-1.48a7.9,7.9,0,0,0,1.57-1.05l2.49-2.25a1,1,0,0,0,.05-1.43l-4.29-3.69A1.43,1.43,0,0,1,18.81,24l1.43-3.54a2.48,2.48,0,0,0,0-1.67A2.48,2.48,0,0,0,19,17.65l-6.83-2.58c-0.49-.19-0.47-0.38.06-0.43l3.54-.33a5.16,5.16,0,0,1,1.85.23l3.53,1.26a1.11,1.11,0,0,1,.69,1.25l-1.29,5.64c-0.12.51-.24,1.08-0.28,1.26a1,1,0,0,0,.87.51l2.46,0.48a5.65,5.65,0,0,0,1.87,0l2.25-.47a1,1,0,0,0,.87-0.52c0-.18-0.16-0.74-0.28-1.25L27,17.05a1.1,1.1,0,0,1,.69-1.25l3.53-1.26a5.16,5.16,0,0,1,1.85-.23l3.54,0.33c0.52,0,.55.24,0.06,0.43l-6.82,2.59a2.48,2.48,0,0,0-1.24,1.12,2.48,2.48,0,0,0,0,1.67L30.09,24a1.43,1.43,0,0,1-.36,1.51l-4.28,3.7a1,1,0,0,0,.05,1.43L28,32.86a7.9,7.9,0,0,0,1.57,1l3.11,1.48a1.65,1.65,0,0,0,1.6-.19l0.87-.71a4.83,4.83,0,0,0,1.48-2.08l0.18-.5a2.8,2.8,0,0,0,0-1.78L35.85,28a1.47,1.47,0,0,1,.33-1.53l5.47-5.08a15.72,15.72,0,0,0,1.3-1.4A3.77,3.77,0,0,0,43.09,19.47Z" transform="translate(-0.25)"/><path class="cls-3" d="M59.44,28.24V11h1.65a2.43,2.43,0,0,1,2.43,2.43V21.1c2.64-2.36,4.89-3.3,7.88-3.36a10.92,10.92,0,0,1,11.2,9.87,10.75,10.75,0,0,1-10.89,12C64.6,39.6,59.44,35.19,59.44,28.24Zm3.86,1.35a7.76,7.76,0,0,0,7.39,6.56c4.67,0.07,7.86-3,7.86-7.48s-3.11-7.48-7.65-7.48C66,21.18,62.75,24.71,63.3,29.59Z" transform="translate(-0.25)"/><path class="cls-3" d="M89.42,18.17v3.07c2.57-2.86,4.09-3.62,7.09-3.62a16.54,16.54,0,0,1,2.61.21v4.08a10.56,10.56,0,0,0-2.83-.38,7.34,7.34,0,0,0-5.35,2.06,4.71,4.71,0,0,0-1.52,4V38.9H85.2V18.17h4.22Z" transform="translate(-0.25)"/><path class="cls-3" d="M100.12,25a7,7,0,0,1,1.48-4.16c1.74-2.14,4.87-3.24,9.31-3.24,3.53,0,6.09.55,7.88,1.72,1.48,1,2.09,2.4,2.09,4.92v9.21c0,2,.52,2.73,2,2.69a9,9,0,0,0,1-.08v2.77a6.28,6.28,0,0,1-2.22.34c-2.65,0-3.87-.8-4.7-3.11a12.4,12.4,0,0,1-9.18,3.41c-5.18,0-8.35-2.35-8.35-6.18a5.44,5.44,0,0,1,3.26-5c1.57-.67,2.52-0.88,7-1.35,3.83-.38,4.48-0.46,5.57-0.8a2,2,0,0,0,1.7-2.06c0-2.23-1.87-3.24-5.79-3.24-3.7,0-5.61.73-6.38,2.61a2.53,2.53,0,0,1-2.33,1.6h-2.26Zm16.75,3.53a41.43,41.43,0,0,1-8.22,1.51c-3.79.38-5,1.09-5,3,0,2.1,1.74,3.2,5.18,3.2a9.25,9.25,0,0,0,6.48-2.1c1.22-1.14,1.52-1.93,1.52-3.91V28.55Z" transform="translate(-0.25)"/><path class="cls-3" d="M134,38.9h-1.09a2.49,2.49,0,0,1-2.26-1.4l-9.13-19.32h2.54a3.73,3.73,0,0,1,3.43,2.2l6.09,13.91,6.29-13.94a3.73,3.73,0,0,1,3.41-2.16h2.3l-9.34,19.34A2.49,2.49,0,0,1,134,38.9Z" transform="translate(-0.25)"/><path class="cls-3" d="M148.46,29.73c0.44,4,3.57,6.47,8.22,6.47,2.65,0,4.61-.79,5.86-2.36a3.77,3.77,0,0,1,3-1.43h2.45c-2.13,4.71-6,7-11.66,7-7.14,0-11.92-4.33-11.92-10.8s4.92-11,12-11c5.13,0,9.27,2.31,10.92,6.18a14,14,0,0,1,1,5.93H148.46ZM164,26.54c-1-3.66-3.79-5.72-7.7-5.72s-6.74,2.06-7.75,5.72H164Z" transform="translate(-0.25)"/></svg>