<svg width="410" height="40" xmlns="http://www.w3.org/2000/svg" xmlns:xlink="http://www.w3.org/1999/xlink">
  <defs>
    <linearGradient x1="0%" y1="50.706%" y2="50.706%" id="a">
      <stop stop-color="#F50" offset="0%"/>
      <stop stop-color="#F50" offset="40.988%"/>
      <stop stop-color="#FF2000" offset="58.198%"/>
      <stop stop-color="#FF2000" offset="100%"/>
    </linearGradient>
    <linearGradient x1="2.148%" y1="50.706%" y2="50.706%" id="c">
      <stop stop-color="#FF452A" offset="0%"/>
      <stop stop-color="#FF2000" offset="100%"/>
    </linearGradient>
    <path d="M26.605 3.959L23.12 0H10.88L7.395 3.959s-3.06-.851-4.505.595c0 0 4.08-.368 5.483 1.915 0 0 3.782.724 4.292.724.51 0 1.615-.426 2.635-.766 1.02-.34 1.7-.343 1.7-.343s.68.002 1.7.343c1.02.34 2.125.766 2.635.766.51 0 4.293-.724 4.293-.724 1.402-2.283 5.482-1.915 5.482-1.915-1.445-1.446-4.505-.595-4.505-.595" id="b"/>
  </defs>
  <g fill="none" fill-rule="evenodd">
    <path d="M280.556 3.297c0-.348.298-.63.666-.63.367 0 .666.282.666.63v33.406c0 .348-.299.63-.666.63-.368 0-.666-.282-.666-.63V3.297z" fill="#FFF"/>
    <g transform="translate(.143)">
      <path d="M32.81 9.576l.935-2.298S32.555 6 31.11 4.554c-1.445-1.446-4.505-.595-4.505-.595L23.12 0H10.88L7.395 3.959s-3.06-.851-4.505.595C1.445 6.001.255 7.278.255 7.278l.935 2.298L0 12.98s3.5 13.273 3.91 14.894c.808 3.191 1.36 4.425 3.655 6.042s6.46 4.426 7.14 4.851c.68.426 1.53 1.15 2.295 1.15.765 0 1.615-.724 2.295-1.15.68-.425 4.845-3.234 7.14-4.85 2.295-1.618 2.848-2.852 3.655-6.043C30.5 26.253 34 12.98 34 12.98l-1.19-3.404z" fill="url(#a)"/>
      <path d="M25.628 6.47s4.482 5.425 4.482 6.584c0 1.16-.564 1.466-1.13 2.069l-3.362 3.573c-.318.339-.98.851-.59 1.774.389.922.963 2.096.325 3.287-.64 1.191-1.734 1.986-2.435 1.855-.701-.132-2.348-.994-2.954-1.387-.605-.394-2.525-1.979-2.525-2.585 0-.607 1.984-1.696 2.351-1.943.367-.247 2.039-1.205 2.073-1.58.034-.377.021-.487-.472-1.416-.494-.928-1.382-2.168-1.235-2.992.148-.825 1.581-1.253 2.604-1.64 1.023-.387 2.992-1.117 3.238-1.23.246-.114.182-.222-.563-.293-.745-.07-2.86-.352-3.813-.086-.953.266-2.582.67-2.714.886-.131.214-.248.221-.112.962.135.74.833 4.293.9 4.924.068.631.2 1.048-.48 1.204-.679.156-1.823.426-2.216.426-.393 0-1.537-.27-2.217-.426-.68-.156-.547-.573-.48-1.204.068-.63.766-4.184.901-4.924.136-.74.02-.748-.112-.962-.132-.215-1.761-.62-2.714-.886-.954-.266-3.068.015-3.813.086-.745.07-.809.179-.563.292.246.114 2.215.844 3.238 1.23 1.022.388 2.456.816 2.604 1.64.147.825-.741 2.065-1.235 2.993-.493.93-.506 1.04-.472 1.415.034.376 1.706 1.334 2.073 1.581.367.247 2.35 1.336 2.35 1.943 0 .606-1.919 2.191-2.524 2.585-.606.393-2.253 1.255-2.954 1.387-.701.13-1.796-.664-2.435-1.855-.638-1.19-.064-2.365.325-3.287.39-.923-.272-1.435-.59-1.774L5.02 15.123c-.567-.603-1.131-.909-1.131-2.069S8.373 6.47 8.373 6.47s3.782.724 4.292.724c.51 0 1.615-.426 2.635-.766 1.02-.34 1.7-.343 1.7-.343s.68.002 1.7.343c1.02.34 2.125.766 2.635.766.51 0 4.293-.724 4.293-.724zm-3.36 20.753c.277.174.107.502-.145.68-.253.18-3.65 2.813-3.98 3.104-.33.292-.814.772-1.143.772-.33 0-.814-.48-1.144-.772-.33-.29-3.726-2.924-3.979-3.103-.252-.179-.422-.507-.144-.68.277-.175 1.146-.614 2.343-1.234 1.198-.62 2.691-1.149 2.924-1.149.233 0 1.726.528 2.924 1.149 1.197.62 2.066 1.06 2.343 1.233z" fill="#FFF"/>
      <use fill="url(#c)" xlink:href="#b"/>
    </g>
    <path d="M299.194 19.987c0-5.456 4.073-9.32 9.264-9.32 4.02 0 7.214 1.984 8.599 5.508h-2.902c-1.012-2.193-2.982-3.42-5.697-3.42-3.887 0-6.788 2.768-6.788 7.232 0 4.438 2.901 7.206 6.788 7.206 2.715 0 4.685-1.227 5.697-3.394h2.902c-1.385 3.498-4.58 5.456-8.599 5.456-5.191 0-9.264-3.812-9.264-9.268zm23.516 1.331v7.78h-2.422V14.792h2.422v2.323c.825-1.592 2.396-2.584 4.712-2.584v2.454h-.639c-2.316 0-4.073 1.018-4.073 4.333zm13.347-4.751c-2.369 0-4.339 1.54-4.605 4.334h9.21c.027-2.794-2.102-4.334-4.605-4.334zm6.815 8.12c-.745 2.61-3.088 4.646-6.708 4.646-4.153 0-7.215-2.871-7.215-7.414 0-4.517 2.955-7.362 7.215-7.362 4.233 0 7.001 2.924 7.001 6.84 0 .522-.026.94-.08 1.436h-11.66c.186 2.898 2.263 4.49 4.739 4.49 2.183 0 3.567-1.096 4.1-2.637h2.608zm2.22-2.794c0-4.465 3.008-7.336 6.921-7.336 2.716 0 4.58 1.357 5.431 2.845v-2.61h2.45v14.306h-2.45v-2.663c-.878 1.54-2.769 2.898-5.457 2.898-3.887 0-6.895-3.002-6.895-7.44zm12.352.026c0-3.316-2.29-5.3-4.952-5.3s-4.925 1.906-4.925 5.274c0 3.368 2.263 5.352 4.925 5.352 2.663 0 4.952-1.958 4.952-5.326zm6.718 3.263V16.75h-1.89v-1.958h1.89v-3.603h2.423v3.603h3.807v1.958h-3.807v8.432c0 1.41.532 1.906 2.023 1.906h1.784v2.01h-2.183c-2.583 0-4.047-1.044-4.047-3.916zM386.8 21.92c0 4.543-3.327 7.414-7.48 7.414-4.127 0-7.268-2.871-7.268-7.414 0-4.517 3.248-7.362 7.374-7.362 4.153 0 7.374 2.845 7.374 7.362zm-12.272 0c0 3.629 2.263 5.326 4.792 5.326s5.004-1.697 5.004-5.326c0-3.603-2.422-5.3-4.925-5.3-2.555 0-4.871 1.697-4.871 5.3zm17.526-.6v7.78h-2.422V14.791h2.422v2.323c.826-1.592 2.396-2.584 4.712-2.584v2.454h-.639c-2.316 0-4.073 1.018-4.073 4.333zm17.634 3.89c0 2.349-2.104 4.124-5.325 4.124-3.407 0-5.803-1.827-5.963-4.438h2.502c.134 1.384 1.385 2.428 3.435 2.428 1.916 0 2.981-.94 2.981-2.115 0-3.185-8.625-1.331-8.625-6.657 0-2.193 2.103-3.994 5.35-3.994 3.222 0 5.352 1.697 5.511 4.49h-2.422c-.107-1.436-1.225-2.48-3.168-2.48-1.784 0-2.849.835-2.849 1.984 0 3.394 8.466 1.54 8.572 6.657zM60.328 23.21c0-1.71-1.26-2.735-3.255-2.735h-4.048v5.355h4.136c1.994 0 3.167-.94 3.167-2.62zm-.498-8.289c0-1.595-1.115-2.506-3.05-2.506h-3.755v4.984h3.754c1.936 0 3.05-.854 3.05-2.478zm4.663 8.773c0 3.161-2.493 5.383-6.746 5.383H48.92V9.197h8.447c4.282 0 6.658 2.164 6.658 5.126 0 2.421-1.496 3.93-3.49 4.557 2.317.399 3.96 2.478 3.96 4.814zm6.992-2.478v7.861h-4.106v-15.78h4.106v2.45c1.026-1.623 2.728-2.677 4.986-2.677v4.187h-1.085c-2.435 0-3.901.911-3.901 3.959zm6.287-.086c0-4.927 3.285-8.089 7.421-8.089 2.61 0 4.4 1.197 5.368 2.507v-2.25h4.135v15.779h-4.135V26.77c-.968 1.367-2.816 2.563-5.397 2.563-4.107 0-7.392-3.275-7.392-8.203zm12.789.057c0-2.99-2.054-4.642-4.312-4.642-2.2 0-4.282 1.595-4.282 4.585 0 2.991 2.082 4.7 4.282 4.7 2.258 0 4.312-1.652 4.312-4.643zm6.023-7.89h4.4l4.106 12.106 4.106-12.105h4.37l-6.012 15.779h-4.986l-5.984-15.78zm25.88 3.02c-1.965 0-3.52 1.225-3.842 3.39h7.714c-.058-2.08-1.76-3.39-3.871-3.39zm7.715 7.804c-.88 2.905-3.579 5.212-7.597 5.212-4.722 0-8.154-3.19-8.154-8.146 0-4.984 3.344-8.146 8.154-8.146 4.693 0 8.007 3.105 8.007 7.805 0 .512-.03 1.025-.117 1.538h-11.88c.206 2.335 1.849 3.645 3.902 3.645 1.76 0 2.728-.854 3.256-1.908h4.429zm20.435-8.744c0-1.766-1.026-2.877-3.314-2.877h-3.432v5.84h3.432c2.288 0 3.314-1.169 3.314-2.963zm-10.852-6.18h7.684c4.928 0 7.392 2.762 7.392 6.094 0 2.422-1.379 4.871-4.664 5.725l4.898 8.061h-4.751l-4.517-7.747h-1.936v7.747h-4.106V9.197zm25.382 7.12c-1.966 0-3.52 1.225-3.843 3.39h7.714c-.058-2.08-1.76-3.39-3.871-3.39zm7.714 7.804c-.88 2.905-3.579 5.212-7.597 5.212-4.722 0-8.154-3.19-8.154-8.146 0-4.984 3.344-8.146 8.154-8.146 4.693 0 8.007 3.105 8.007 7.805 0 .512-.03 1.025-.117 1.538h-11.88c.206 2.335 1.849 3.645 3.902 3.645 1.76 0 2.728-.854 3.256-1.908h4.429zm5.964 4.956l-4.78-15.78h4.165l2.874 12.02 3.109-12.02h4.341l3.05 11.992 2.875-11.991h3.93l-4.751 15.779h-4.43l-2.962-11.023-2.962 11.023h-4.459zm20.337-7.947c0-4.927 3.285-8.089 7.421-8.089 2.61 0 4.4 1.197 5.368 2.507v-2.25h4.135v15.779h-4.135V26.77c-.968 1.367-2.816 2.563-5.397 2.563-4.107 0-7.392-3.275-7.392-8.203zm12.789.057c0-2.99-2.053-4.642-4.312-4.642-2.2 0-4.282 1.595-4.282 4.585 0 2.991 2.082 4.7 4.282 4.7 2.259 0 4.312-1.652 4.312-4.643zm11.86.029v7.861h-4.106v-15.78h4.106v2.45c1.027-1.623 2.728-2.677 4.986-2.677v4.187h-1.085c-2.434 0-3.901.911-3.901 3.959zm6.287-.086c0-4.927 3.286-8.089 7.45-8.089 2.142 0 4.195.969 5.31 2.45V8h4.164v21.077h-4.165v-2.336c-.968 1.453-2.786 2.592-5.338 2.592-4.135 0-7.42-3.275-7.42-8.203zm12.789.057c0-2.99-2.053-4.642-4.312-4.642-2.2 0-4.282 1.595-4.282 4.585 0 2.991 2.082 4.7 4.282 4.7 2.259 0 4.312-1.652 4.312-4.643zm20.366 3.39c0 2.706-2.434 4.756-6.394 4.756-4.077 0-6.922-2.307-7.098-5.24h4.135c.147 1.196 1.291 2.107 2.934 2.107 1.613 0 2.493-.712 2.493-1.623 0-2.82-9.18-1.026-9.18-6.808 0-2.62 2.404-4.728 6.423-4.728 3.93 0 6.306 2.08 6.54 5.213h-3.93c-.117-1.225-1.115-2.051-2.728-2.051-1.525 0-2.317.598-2.317 1.51 0 2.876 9.005 1.082 9.122 6.864z" fill="#FFF"/>
  </g>
</svg>