<?xml version="1.0" encoding="UTF-8"?>
<svg width="28px" height="28px" viewBox="0 0 28 28" version="1.1" xmlns="http://www.w3.org/2000/svg" xmlns:xlink="http://www.w3.org/1999/xlink">
    <!-- Generator: Sketch 48.2 (47327) - http://www.bohemiancoding.com/sketch -->
    <title>Fill 1</title>
    <desc>Created with Sketch.</desc>
    <defs></defs>
    <g id="Publisher-Dashboard" stroke="none" stroke-width="1" fill="none" fill-rule="evenodd" transform="translate(-164.000000, -700.000000)" opacity="0.65">
        <g id="1" transform="translate(113.000000, 664.000000)" fill="#999EA2">
            <g id="avatar" transform="translate(37.000000, 35.000000)">
                <path d="M36.7467894,6.61258101 C36.2297822,6.09557383 35.6749786,5.63025642 35.0887782,5.21854323 C36.3136345,4.37826981 37.4183189,3.72779906 38.322808,3.31745333 C39.5554862,2.75810975 40.0438315,2.8076116 40.1600104,2.83403082 C40.2005418,3.01989523 40.2995455,4.1682288 37.9418899,7.66295014 C37.9024525,7.7213131 37.8620305,7.78033243 37.8218821,7.83913297 C37.4948417,7.41270597 37.1368968,7.00257903 36.7467894,6.61258101 Z M35.4553107,22.8161507 C33.4636953,24.8076567 30.8158112,25.9045193 27.9992925,25.9045193 C26.4973352,25.9045193 25.0433483,25.5924115 23.7112288,24.9992644 C26.1070637,23.1819174 28.7264501,20.8732714 31.3019139,18.2978076 C33.7205032,15.8791636 35.903781,13.4218479 37.6658829,11.1472241 C39.3415069,15.0045397 38.6046677,19.6667937 35.4553107,22.8161507 Z M15.8348552,27.1550837 C15.7368907,26.8423195 15.9632865,25.4785298 17.9195668,22.5324859 C18.3130655,23.0848828 18.7565584,23.6123921 19.2516863,24.1075747 C19.6146634,24.4705518 19.9963473,24.808149 20.3943859,25.1196004 C17.0921475,27.3032064 16.0055135,27.1939194 15.8348552,27.1550837 Z M20.5432744,7.90405971 C22.5348351,5.91255372 25.1828286,4.81569114 27.9992925,4.81569114 C30.8157565,4.81569114 33.4636953,5.91249902 35.4553107,7.90405971 C35.9236365,8.37238552 36.3379205,8.8744054 36.6995848,9.40196934 C34.9088212,11.7868646 32.5910405,14.4256689 30.0104352,17.0063289 C27.2729554,19.743754 24.4698378,22.1858089 21.9740146,24.0162834 C21.4679471,23.6624409 20.9891192,23.2618862 20.5433291,22.816096 C16.4320499,18.7048715 16.4320499,12.0153389 20.5432744,7.90405971 Z M41.7050699,4.51742197 C42.1680353,3.16413433 42.0853863,2.16075094 41.4596392,1.53489438 C40.3861874,0.461442621 38.4893093,1.2610206 37.8660235,1.52373595 C36.6186315,2.04944015 35.1025074,2.95042855 33.3562681,4.20285275 C31.7058052,3.40890868 29.8849575,2.98920956 27.9992925,2.98920956 C24.6949209,2.98920956 21.5883378,4.27603891 19.2517957,6.61258101 C15.4200242,10.4443525 14.6327533,16.1849264 16.8889438,20.8016168 C14.1209424,24.7619837 13.3519407,27.2685277 14.5389459,28.4554782 C14.8989693,28.8155563 15.3839781,28.9957868 15.9887211,28.9957868 C16.435113,28.9957868 16.9467597,28.8976036 17.5214188,28.7009637 C18.5557067,28.3471211 19.8329638,27.6734584 21.3178006,26.698518 C21.5561753,26.5420812 21.7985976,26.3781508 22.0440283,26.2087505 C23.8478649,27.2022883 25.8827465,27.7310008 27.9992378,27.7310008 C31.3036095,27.7310008 34.4101926,26.4441715 36.7467347,24.1076294 C40.696162,20.1582568 41.4109578,14.1812227 38.8928724,9.49687068 C39.1791627,9.09390919 39.4496999,8.69898834 39.7025696,8.31380377 C40.6775099,6.82896701 41.3512821,5.55165514 41.7050699,4.51742197 Z" id="Fill-1"></path>
            </g>
        </g>
    </g>
</svg>