<svg width="121.004" height="217.75" viewBox="0 0 121.004 217.75" xmlns="http://www.w3.org/2000/svg"><g id="svgGroup" stroke-linecap="round" fill-rule="evenodd" font-size="9pt" stroke="#3f4855" stroke-width="0.01mm" fill="#3f4855" style="stroke:#3f4855;stroke-width:0.01mm;fill:#3f4855"><path d="M 68.753 197.5 L 68.753 217.75 L 52.503 217.75 L 52.503 197.5 A 83.134 83.134 0 0 1 35.206 194.08 A 58.378 58.378 0 0 1 14.503 182.75 A 40.834 40.834 0 0 1 0.092 152.904 A 55.428 55.428 0 0 1 0.003 149.75 L 30.503 149.75 A 31.858 31.858 0 0 0 32.069 157.635 A 24.715 24.715 0 0 0 36.753 165.875 Q 42.253 172.25 52.503 174 L 52.503 119 A 299.059 299.059 0 0 1 41.726 116.063 Q 36.935 114.655 32.817 113.233 A 130.364 130.364 0 0 1 25.253 110.375 A 43.5 43.5 0 0 1 7.842 97.089 A 51.13 51.13 0 0 1 7.378 96.5 A 32.556 32.556 0 0 1 1.905 85.453 Q 0.598 80.933 0.189 75.561 A 66.763 66.763 0 0 1 0.003 70.5 A 48.557 48.557 0 0 1 3.398 52.087 A 44.956 44.956 0 0 1 14.503 36.125 Q 29.003 22.5 52.503 20.25 L 52.503 0 L 68.753 0 L 68.753 20.25 Q 90.753 22.25 104.128 34.125 A 44.023 44.023 0 0 1 117.652 56.93 A 61.46 61.46 0 0 1 119.253 66.75 L 88.753 66.75 Q 88.003 59 82.753 52.875 Q 77.503 46.75 68.753 44.5 L 68.753 98.5 A 271.288 271.288 0 0 1 79.53 101.294 Q 89.113 104.004 96.003 106.875 Q 106.503 111.25 113.753 120.625 Q 119.812 128.459 120.807 141.268 A 67.533 67.533 0 0 1 121.003 146.5 Q 121.003 159 114.878 170 A 49.578 49.578 0 0 1 101.798 185.051 A 61.204 61.204 0 0 1 96.878 188.5 A 57.923 57.923 0 0 1 79.408 195.76 A 74.498 74.498 0 0 1 68.753 197.5 Z M 52.503 94.25 L 52.503 43.75 A 33.675 33.675 0 0 0 44.491 45.632 A 24.859 24.859 0 0 0 35.378 51.5 A 21.725 21.725 0 0 0 29.626 62.564 A 31.631 31.631 0 0 0 29.003 69 A 27.555 27.555 0 0 0 29.76 75.651 A 18.692 18.692 0 0 0 35.128 85 A 33.134 33.134 0 0 0 41.338 89.526 Q 44.455 91.316 48.289 92.791 A 68.029 68.029 0 0 0 52.503 94.25 Z M 68.753 123.25 L 68.753 174 A 33.75 33.75 0 0 0 76.907 171.691 A 25.318 25.318 0 0 0 86.003 165.125 Q 92.253 158 92.253 148 A 26.223 26.223 0 0 0 91.479 141.443 A 18.183 18.183 0 0 0 86.128 132.375 Q 80.003 126.75 68.753 123.25 Z" vector-effect="non-scaling-stroke"/></g></svg>