<svg width="13" height="12" viewBox="0 0 13 12" fill="none" xmlns="http://www.w3.org/2000/svg">
<path fill-rule="evenodd" clip-rule="evenodd" d="M12.317 9.58513L9.81686 11.8351C9.75948 11.8871 9.69012 11.9277 9.61382 11.9565C9.53752 11.9848 9.45618 12 9.37483 12C9.2153 12 9.05514 11.9452 8.93281 11.8351L6.43325 9.58513C6.18859 9.3655 6.18859 9.00922 6.43325 8.78959C6.67728 8.56995 7.07264 8.56995 7.31667 8.78959L8.80733 10.1311V0.522836C8.80733 0.212296 9.02992 0 9.37483 0C9.72038 0 9.99972 0.251819 9.99972 0.562359V10.0792L11.433 8.78959C11.677 8.56995 12.073 8.56995 12.317 8.78959C12.5611 9.00922 12.5611 9.3655 12.317 9.58513ZM5.62479 3.37479C5.46463 3.37479 5.3051 3.32002 5.18277 3.20992L3.7495 1.92034V11.4371C3.7495 11.7483 3.47016 12.0001 3.12461 12.0001C2.77969 12.0001 2.49972 11.7483 2.49972 11.4371V1.92034L1.06644 3.20992C0.822414 3.42956 0.42705 3.42956 0.183021 3.20992C-0.0610071 2.99085 -0.0610071 2.63401 0.183021 2.41494L2.68258 0.165505C2.73996 0.113561 2.80932 0.0717788 2.88562 0.043548C3.03885 -0.0134784 3.21099 -0.0134784 3.36359 0.043548C3.44052 0.0717788 3.50988 0.113561 3.56726 0.165505L6.06682 2.41494C6.31085 2.63401 6.31085 2.99085 6.06682 3.20992C5.94449 3.32002 5.78496 3.37479 5.62479 3.37479Z" fill="#687485"/>
</svg>
