<?xml version="1.0" encoding="UTF-8"?>
<svg width="60px" height="47px" viewBox="0 0 60 47" version="1.1" xmlns="http://www.w3.org/2000/svg" xmlns:xlink="http://www.w3.org/1999/xlink">
    <!-- Generator: Sketch 51.1 (57501) - http://www.bohemiancoding.com/sketch -->
    <title>camera2</title>
    <desc>Created with Sketch.</desc>
    <defs></defs>
    <g id="Page-1" stroke="none" stroke-width="1" fill="none" fill-rule="evenodd">
        <g id="dashboard-2channel-old" transform="translate(-211.000000, -516.000000)" fill="#FFFFFF">
            <g id="dialog" transform="translate(25.000000, 147.000000)">
                <g id="content" transform="translate(0.000000, 148.000000)">
                    <g id="Group-13" transform="translate(127.000000, 162.000000)">
                        <path d="M110.571157,70.7544231 C109.394023,70.7544231 108.439628,71.691901 108.439628,72.8422499 C108.439628,73.9925989 109.394023,74.9272573 110.571157,74.9272573 C111.75111,74.9272573 112.702686,73.9925989 112.702686,72.8422499 C112.702686,71.691901 111.748291,70.7544231 110.571157,70.7544231 Z M89.0514556,74.939945 C83.8058081,74.939945 79.5385212,79.1127793 79.5385212,84.2456474 C79.5385212,89.3771058 83.8058081,93.5499401 89.0514556,93.5499401 C94.2956932,93.5499401 98.5643899,89.3771058 98.5643899,84.2456474 C98.5615705,79.1127793 94.2956932,74.939945 89.0514556,74.939945 Z M88.9992951,95.6645521 C82.5299922,95.6645521 77.2660182,90.5161768 77.2660182,84.187848 C77.2660182,77.8581095 82.5299922,72.7083245 88.9992951,72.7083245 C95.4700078,72.7083245 100.732572,77.8581095 100.732572,84.187848 C100.732572,90.5161768 95.4700078,95.6645521 88.9992951,95.6645521 Z M65.9345175,66.5604427 C63.3842955,66.5604427 61.3119758,68.5890604 61.3119758,71.0828928 L61.3119758,98.5883555 C61.3119758,101.082188 63.3842955,103.110806 65.9345175,103.110806 L112.064073,103.110806 C114.612885,103.110806 116.688024,101.082188 116.688024,98.5883555 L116.688024,71.0828928 C116.688024,68.5862409 114.612885,66.5604427 112.064073,66.5604427 L100.856629,66.5604427 L99.5920914,62.1451329 C99.4750828,61.631987 99.0028195,61.2612251 98.465708,61.2612251 L79.5314725,61.2612251 C78.9887221,61.2612251 78.5263269,61.6235286 78.4050892,62.1465426 L77.0714739,66.5604427 L65.9345175,66.5604427 Z M112.064073,105.370621 L65.9345175,105.370621 C62.1112991,105.370621 59,102.328399 59,98.5883555 L59,71.0828928 C59,67.3400296 62.1112991,64.2978079 65.9345175,64.2978079 L75.34877,64.2978079 L76.1720589,61.5798266 C76.5075774,60.0925495 77.898992,59 79.534292,59 L98.4671178,59 C100.055896,59 101.461408,60.0855008 101.83499,61.5925143 L101.856136,61.6869669 L102.607528,64.2978079 L112.064073,64.2978079 C115.888701,64.2978079 119,67.3400296 119,71.0800733 L119,98.5883555 C118.99859,102.328399 115.887291,105.370621 112.064073,105.370621 Z" id="camera2"></path>
                    </g>
                </g>
            </g>
        </g>
    </g>
</svg>