<?xml version="1.0" encoding="UTF-8"?>
<svg width="72px" height="74px" viewBox="0 0 72 74" version="1.1" xmlns="http://www.w3.org/2000/svg" xmlns:xlink="http://www.w3.org/1999/xlink">
    <!-- Generator: Sketch 50.2 (55047) - http://www.bohemiancoding.com/sketch -->
    <title>icn-hourglass</title>
    <desc>Created with Sketch.</desc>
    <defs>
        <polygon id="path-1" points="0.0113952106 0.104299256 53.567046 0.104299256 53.567046 73.7678297 0.0113952106 73.7678297"></polygon>
    </defs>
    <g id="overall" stroke="none" stroke-width="1" fill="none" fill-rule="evenodd">
        <g id="2fa-confirm" transform="translate(-626.000000, -227.000000)">
            <g id="dialog" transform="translate(364.000000, 143.000000)">
                <g id="icn-hourglass" transform="translate(298.474502, 121.138071) rotate(8.000000) translate(-298.474502, -121.138071) translate(262.974502, 84.138071)">
                    <g id="Group-4">
                        <mask id="mask-2" fill="white">
                            <use xlink:href="#path-1"></use>
                        </mask>
                        <g id="Clip-2"></g>
                        <path d="M45.3449615,38.246158 C46.1536416,38.0127173 48.0460063,37.4654306 48.9259065,34.8816536 L50.7390744,29.5584092 L51.4683679,29.8058829 C51.8022475,29.9192846 52.1680338,29.7391314 52.2814161,29.4059426 L53.2539974,26.550229 C53.3675696,26.2168507 53.1873354,25.8516136 52.8534557,25.7384015 L29.3531129,17.760267 C29.0192332,17.6470549 28.653447,17.8270185 28.5398747,18.1596383 L27.5672935,21.0153519 C27.4539111,21.3485407 27.6341454,21.7137777 27.9680251,21.8271794 L28.6973185,22.075222 L26.8514843,27.4946114 C25.9805104,30.0533566 26.5569181,30.9169544 27.6504785,32.2252464 L32.4058898,37.9112625 L31.8754428,39.4675971 C30.0556276,39.8616586 25.300976,40.8964969 24.6607551,41.0810117 C23.8528347,41.3142628 21.9595204,41.8609805 21.0796202,44.4455161 L19.5186663,49.0286151 L18.7895628,48.7811414 C18.4556831,48.6679293 18.0898968,48.8471344 17.9763246,49.1805127 L17.0037433,52.0362263 C16.890361,52.3694151 17.0705952,52.7346521 17.4044749,52.8480538 L40.9048177,60.8267573 C41.2379377,60.940159 41.6042937,60.7600058 41.717866,60.426817 L42.6896875,57.571862 C42.8032598,57.2384836 42.6237852,56.872488 42.2891459,56.7592759 L41.5606121,56.5118022 L43.1534726,51.8316102 C44.0252062,49.2738131 43.4493682,48.4094568 42.3559978,47.1026819 L37.6003966,41.4159072 L38.1302739,39.8595726 C39.950089,39.4653215 44.7047406,38.4312417 45.3449615,38.246158 Z M35.4142254,42.3959409 L40.5849921,48.5789905 C40.9819253,49.053078 41.191977,49.312309 41.2489531,49.5493528 C41.3173243,49.8338053 41.2259727,50.3382345 40.9693906,51.0901373 L39.3757704,55.7703293 L21.703508,49.770088 L23.2637023,45.186989 C23.7563552,43.741022 24.6495498,43.4825495 25.3017357,43.2944316 C25.8112915,43.1470852 30.185533,42.1892388 33.0016694,41.5810793 C33.3970832,41.4959332 33.7197576,41.209205 33.8494731,40.8261423 L34.7985042,38.0402143 C34.9282197,37.6594272 34.8495927,37.2393857 34.5922509,36.9304703 L29.4368677,30.7665739 L29.4205346,30.7481793 C29.0243611,30.2733332 28.8137396,30.0148607 28.7573333,29.7770584 C28.689152,29.4926058 28.779554,28.9887456 29.036326,28.2362739 L30.8814006,22.8168845 L48.5549924,28.8169363 L46.7418244,34.1394222 C46.2493614,35.5867166 45.3559769,35.8446202 44.7039809,36.0327381 C44.1949949,36.1800845 39.8201836,37.137931 37.0048069,37.7453319 C36.6086334,37.8312366 36.2865288,38.1179647 36.1560536,38.5010274 L35.2072124,41.2869554 C35.077307,41.6677425 35.155934,42.087784 35.4142254,42.3959409 Z" id="Fill-1" fill="#FB542B" mask="url(#mask-2)"></path>
                        <path d="M49.3754475,64.3645881 C48.8600042,64.6564363 48.3280377,64.9365273 47.7953117,65.1949998 C47.7092778,65.2372884 47.6262827,65.2831801 47.5461364,65.3328644 C47.4606723,65.3624475 47.3753981,65.3973403 47.2916433,65.4358362 C44.9806946,66.511446 42.5717471,67.2692275 40.0902501,67.7084222 C40.0583435,67.7129734 40.0264369,67.7143009 39.9945303,67.7203692 C39.4091963,67.823341 38.8141764,67.9100042 38.225234,67.9773247 C38.2183968,67.9780832 38.2117496,67.9796003 38.2058621,67.9803588 C37.1242667,68.0996392 36.0307063,68.1603224 34.9253709,68.1603224 C22.1836262,68.1603224 11.3173433,59.9971041 7.2912255,48.633795 C7.23102081,48.4604686 7.16948667,48.2879007 7.11232069,48.1138158 C6.14714636,45.2160032 5.62258683,42.1196427 5.62258683,38.9017262 C5.62258683,35.677931 6.1494254,32.5741748 7.11820822,29.6710524 C7.13985912,29.6080936 7.15980074,29.5451347 7.18126172,29.4814174 C7.23918737,29.3124526 7.29939207,29.1436774 7.36016653,28.9762297 C7.38827471,28.8969623 7.4173325,28.8184534 7.44620037,28.740703 C10.7920241,19.7485901 18.4452375,12.8320323 27.8878787,10.4985735 C27.8937663,10.497246 27.9004135,10.497246 27.9064909,10.495729 C28.0458923,10.4608361 28.1860534,10.4274604 28.3269742,10.3950328 C28.3433073,10.3912401 28.3581211,10.3853614 28.3736945,10.3815687 C30.4331889,9.91051532 32.5756785,9.65640441 34.7740045,9.64521594 L34.799074,12.6535858 C34.8072405,13.5877278 35.3971326,13.8571992 36.1108526,13.2535909 L42.4746979,7.86738771 C43.1874683,7.26377947 43.1800614,6.28526281 42.4560857,5.69341194 L36.0031679,0.414731769 C35.2791922,-0.1771191 34.6938582,0.102782176 34.7020248,1.0361657 L34.7272841,4.0384672 C25.4745631,4.08966865 16.7826762,7.70961138 10.2342286,14.2484162 C9.58944956,14.892796 8.97372835,15.5580356 8.38611532,16.2418594 C8.38250684,16.246221 8.37870843,16.2492552 8.37509995,16.2536168 C8.35344905,16.2788383 8.33274775,16.3048183 8.31204645,16.3298501 C3.15742294,22.3693459 0.251454314,29.8963388 0.0229803414,37.8816795 C0.0178524966,37.9438798 0.0112052904,38.0053215 0.00968592901,38.0690389 C0.00303872283,38.3350968 0,38.6060852 0,38.8734706 C0,39.3128549 0.0089262483,39.7579283 0.0252593835,40.1965541 C0.0275384256,40.2483244 0.0341856318,40.2980088 0.0393134766,40.3492102 C0.334639351,47.6241782 2.85393049,54.5028089 7.27413269,60.2007721 C7.28970614,60.2201149 7.30148119,60.2415436 7.31629496,60.2608864 C7.74817345,60.8170859 8.20512139,61.3681652 8.67175526,61.8985744 C8.70214249,61.9327087 8.73480876,61.9622917 8.76595567,61.994909 C9.23866699,62.5275937 9.72676185,63.0483314 10.2349882,63.5557947 C15.4192393,68.7322616 21.9469857,72.0796989 29.0332873,73.2753476 C29.0547483,73.2789507 29.0763992,73.2835019 29.0978602,73.287105 C29.1141933,73.2901391 29.1297668,73.2908977 29.1460999,73.2929837 C31.0378948,73.6064503 32.9697628,73.7678297 34.9259406,73.7678297 C40.0731573,73.7678297 45.0317832,72.6745839 49.6641262,70.5180545 C49.7642141,70.4721629 49.8584145,70.4188754 49.9497661,70.3625538 C50.0536525,70.3270921 50.1560194,70.2848035 50.2561074,70.2351191 C50.8919601,69.9254451 51.5270532,69.593015 52.1420147,69.2448451 C53.4913976,68.4817538 53.966198,66.7714356 53.2021492,65.4238892 C52.4379104,64.0757739 50.7250203,63.6024449 49.3754475,64.3645881 Z" id="Fill-3" fill="#FB542B" mask="url(#mask-2)"></path>
                    </g>
                    <path d="M64.2835282,34.7969207 C64.4637624,35.359947 64.6299426,35.9370064 64.7769408,36.5125486 C65.1003749,37.7813965 66.2427447,38.6245138 67.4958381,38.6245138 C67.7250717,38.6245138 67.9588635,38.5962581 68.1909459,38.537092 C69.6939742,38.1547878 70.6021725,36.6280364 70.2185337,35.1280234 C70.044187,34.4436307 69.8468599,33.7569623 69.6316804,33.0866025 C69.159159,31.6123799 67.5782634,30.7990354 66.1010643,31.2716058 C64.6248148,31.7443659 63.8102471,33.3221292 64.2835282,34.7969207 Z" id="Fill-6" fill="#FB542B" transform="translate(67.227661, 34.880852) rotate(7.000000) translate(-67.227661, -34.880852) "></path>
                    <path d="M63.945548,55.0423299 C62.7718413,54.029679 60.9995062,54.1578722 59.9855224,55.3290581 C59.5967558,55.7771656 56.6822709,58.8693927 56.2682449,59.2924684 C55.1843705,60.3999368 55.2052617,62.1747309 56.3143955,63.2577365 C56.860416,63.7904212 57.5688183,64.055531 58.2766508,64.055531 C59.0057544,64.055531 59.7350478,63.7733541 60.2848668,63.2110863 C60.7780895,62.7074157 63.7712013,59.5306114 64.233467,58.9965992 C65.2468811,57.8254134 65.118495,56.0549809 63.945548,55.0423299 Z" id="Fill-7" fill="#FB542B" transform="translate(60.192782, 59.207453) rotate(-3.000000) translate(-60.192782, -59.207453) "></path>
                    <path d="M68.3226226,42.8573442 C66.8780898,42.2929904 65.2489545,43.0041217 64.683752,44.446296 C64.4678128,44.9973753 63.629812,46.7704414 63.379877,47.3082463 C62.7284508,48.7136313 63.3403736,50.3795749 64.7478721,51.0305919 C65.1298015,51.207711 65.5312928,51.29134 65.9259469,51.29134 C66.9860813,51.29134 68.0010148,50.6890592 68.4758152,49.6654094 C68.7732302,49.0246327 69.6556724,47.1470778 69.9132041,46.490751 C70.4784066,45.0485768 69.7662059,43.4218877 68.3226226,42.8573442 Z" id="Fill-9" fill="#FB542B" transform="translate(66.613221, 46.977524) rotate(-6.000000) translate(-66.613221, -46.977524) "></path>
                    <circle id="Oval-5" fill="#FB542B" cx="53.7401766" cy="14.1627342" r="2.7734375"></circle>
                    <circle id="Oval-5" fill="#FB542B" cx="62.8969811" cy="23.5184652" r="2.7734375"></circle>
                </g>
            </g>
        </g>
    </g>
</svg>