<?xml version="1.0" encoding="UTF-8"?>
<svg width="463px" height="455px" viewBox="0 0 463 455" version="1.1" xmlns="http://www.w3.org/2000/svg" xmlns:xlink="http://www.w3.org/1999/xlink">
    <!-- Generator: Sketch 47.1 (45422) - http://www.bohemiancoding.com/sketch -->
    <title>landing-bgd</title>
    <desc>Created with Sketch.</desc>
    <defs></defs>
    <g id="Page-1" stroke="none" stroke-width="1" fill="none" fill-rule="evenodd" opacity="0.517549819">
        <g id="Landing-page" transform="translate(-859.000000, 0.000000)">
            <g id="landing-bgd" transform="translate(859.000000, 0.000000)">
                <polyline id="Fill-1" fill-opacity="0.44" fill="#891062" points="422.7 381.02 382.54 380.93 262.049 352.74 405.825 352.74 406.036 352.86 422.7 381.02"></polyline>
                <polyline id="Fill-2" fill-opacity="0.66" fill="#C62578" points="406.07 352.88 406.036 352.86 405.825 352.74 405.9 352.74 363.537 328.14 364.095 328.14 333.782 277.262 333.8 228.18 406.07 352.88"></polyline>
                <polyline id="Fill-3" fill-opacity="0.66" fill="#FF3F3F" points="261.21 352.84 333.79 228.31 333.749 277.206 333.617 276.985 333.241 277.627 303.612 328.14 303.904 328.14 261.37 352.74 261.387 352.74 261.21 352.84"></polyline>
                <polyline id="Fill-4" fill-opacity="0.55" fill="#7445AC" points="405.9 352.74 261.37 352.74 303.904 328.14 363.537 328.14 405.9 352.74"></polyline>
                <polyline id="Fill-5" fill-opacity="0.44" fill="#FFFFFE" points="362.546 327.259 305.148 327.259 333.623 278.714 362.546 327.259"></polyline>
                <path d="M364.095,328.14 L303.612,328.14 L333.241,277.627 L333.617,276.985 L333.749,277.206 L333.782,277.262 L364.095,328.14 M333.623,278.714 L305.148,327.259 L362.546,327.259 L333.623,278.714 M333.62,277.85 L333.242,278.075 L333.62,277.85" id="Fill-6" fill="#EAA784"></path>
                <path d="M91.45,171.64 C84.317,171.64 78.293,168.08 73.38,160.96 C68.466,153.84 66.006,143.817 66,130.89 L66,72.04 L81,72.04 L81,130.9 C81,136.8 81.907,141.344 83.72,144.53 C85.196,147.468 88.201,149.313 91.475,149.313 C91.556,149.313 91.638,149.312 91.72,149.31 C91.786,149.311 91.853,149.312 91.919,149.312 C95.224,149.312 98.262,147.473 99.79,144.53 C101.663,141.35 102.6,136.806 102.6,130.9 L102.6,72.04 L117.6,72.04 L117.6,130.9 C117.6,139.607 116.327,147.123 113.78,153.45 C111.234,159.777 108.017,164.39 104.13,167.29 C100.501,170.103 96.042,171.633 91.45,171.64" id="Fill-7" fill-opacity="0.08" fill="#222326"></path>
                <path d="M145.09,171.638 C138.754,171.638 132.766,168.685 128.91,163.63 C124.67,158.297 122.55,150.71 122.55,140.87 L138.55,140.87 C138.957,148.737 141.47,152.67 146.09,152.67 C146.142,152.672 146.194,152.672 146.246,152.672 C148.25,152.672 150.118,151.638 151.18,149.93 C152.487,147.837 153.129,145.396 153.02,142.93 C153.12,140.525 152.541,138.141 151.35,136.05 C150.274,134.309 148.783,132.863 147.01,131.84 C145.078,130.743 143.074,129.781 141.01,128.96 C138.745,128.037 136.558,126.933 134.47,125.66 C132.305,124.347 130.316,122.764 128.55,120.95 C126.522,118.692 125.037,116 124.21,113.08 C123.024,109.142 122.46,105.042 122.54,100.93 C122.54,91.75 124.673,84.4 128.94,78.88 C133.207,73.36 138.66,70.597 145.3,70.59 C145.518,70.583 145.736,70.58 145.954,70.58 C151.911,70.58 157.575,73.225 161.4,77.82 C165.493,82.647 167.627,90.257 167.8,100.65 L151.46,100.65 C151.415,97.777 150.677,94.957 149.31,92.43 C148.403,90.718 146.637,89.634 144.7,89.6 C144.681,89.6 144.662,89.6 144.643,89.6 C142.826,89.6 141.123,90.492 140.09,91.99 C138.89,93.583 138.29,95.877 138.29,98.87 C138.175,101.388 138.753,103.888 139.96,106.1 C141.007,107.864 142.506,109.317 144.3,110.31 C146.242,111.365 148.246,112.303 150.3,113.12 C152.554,114.039 154.74,115.119 156.84,116.35 C159.025,117.634 161.018,119.219 162.76,121.06 C164.777,123.352 166.259,126.065 167.1,129 C168.292,132.985 168.856,137.132 168.77,141.29 C168.77,149.623 166.65,156.763 162.41,162.71 C158.17,168.657 152.587,171.63 145.66,171.63 C145.47,171.635 145.279,171.638 145.09,171.638" id="Fill-8" fill-opacity="0.08" fill="#222326"></path>
                <g id="Group-12" transform="translate(10.000000, 0.000000)" fill-opacity="0.08" fill="#222326">
                    <path d="M185.67,170.66 L164,170.66 L164,72.04 L185.67,72.04 C195.497,72.04 203.567,76.607 209.88,85.74 C216.194,94.873 219.35,106.72 219.35,121.28 C219.35,135.84 216.194,147.71 209.88,156.89 C203.567,166.07 195.497,170.66 185.67,170.66 M179,90.29 L179,152.39 L185.67,152.39 C191.404,152.39 195.907,149.58 199.18,143.96 C202.453,138.34 204.09,130.8 204.09,121.34 C204.09,111.88 202.453,104.34 199.18,98.72 C195.907,93.1 191.404,90.29 185.67,90.29 L179,90.29" id="Fill-9"></path>
                    <path d="M202.19,443.25 C197.03,442.63 191.83,441.82 186.74,440.85 L189.54,426.11 C194.3,427.01 199.16,427.77 203.99,428.35 L202.19,443.25 M170.47,437.18 C165.47,435.84 160.41,434.32 155.47,432.65 L160.3,418.449 C164.89,420.01 169.6,421.45 174.3,422.69 L170.47,437.18 M139.9,426.67 C135.12,424.67 130.34,422.43 125.7,420.08 L132.48,406.699 C136.82,408.9 141.29,410.97 145.76,412.87 L139.9,426.67 M111.09,412 C106.63,409.32 102.22,406.46 97.96,403.49 L106.54,391.19 C110.54,393.97 114.65,396.64 118.82,399.19 L111.09,412 M84.62,393.47 C80.62,390.2 76.62,386.76 72.8,383.23 L83,372.18 C86.56,375.48 90.28,378.71 94.05,381.76 L84.62,393.47 M60.99,371.47 C57.45,367.68 53.99,363.72 50.71,359.699 L62.33,350.18 C65.4,353.94 68.64,357.65 71.95,361.18 L60.99,371.47 M40.64,346.38 C37.64,342.13 34.78,337.73 32.09,333.3 L44.92,325.52 C47.44,329.67 50.13,333.78 52.92,337.76 L40.64,346.38 M24,318.74 C21.64,314.12 19.4,309.37 17.36,304.6 L31.14,298.69 C33.05,303.15 35.14,307.59 37.35,311.91 L24,318.74 M11.34,289.06 C9.64,284.15 8.09,279.12 6.74,274.11 L21.18,270.18 C22.45,274.86 23.9,279.56 25.48,284.18 L11.34,289.06 M2.96,257.87 C1.96,252.78 1.14,247.59 0.49,242.43 L15.37,240.57 C15.97,245.39 16.75,250.25 17.68,255.01 L2.96,257.87 M446.4,201.04 C446.13,196.18 445.69,191.28 445.09,186.48 L453,185.499 L453,200.67 L446.4,201.04 M442.62,171.04 C441.67,166.27 440.55,161.48 439.29,156.8 L453,153.098 L453,168.979 L442.62,171.04 M434.68,141.91 C433.08,137.34 431.3,132.76 429.399,128.3 L443.19,122.4 C445.189,127.17 447.13,132.07 448.84,136.96 L434.68,141.91 M422.76,114.2 C420.54,109.89 418.14,105.6 415.62,101.45 L428.45,93.69 C431.14,98.13 433.71,102.69 436.08,107.33 L422.76,114.2 M407.08,88.4 C404.28,84.4 401.31,80.53 398.24,76.76 L409.87,67.29 C413.149,71.29 416.33,75.51 419.32,79.74 L407.08,88.4 M388,65.06 C384.67,61.52 381.18,58.06 377.63,54.75 L387.84,43.75 C391.64,47.28 395.37,50.99 398.93,54.75 L388,65.06 M365.78,44.54 C361.99,41.54 358.05,38.54 354.07,35.76 L362.66,23.46 C366.91,26.46 371.12,29.59 375.17,32.85 L365.78,44.54 M341,27.28 C336.83,24.79 332.52,22.41 328.19,20.21 L334.98,6.84 C339.61,9.19 344.22,11.74 348.69,14.4 L341,27.28 M314,13.66 C309.52,11.78 304.91,10.03 300.32,8.46 L303.212,0 L319.743,0 L314,13.66 M285.39,3.95 C280.7,2.72 275.899,1.63 271.13,0.72 L271.268,0 L286.427,0 L285.39,3.95" id="Fill-11"></path>
                </g>
                <path d="M336.405,454.03 C306.624,454.03 278.892,444.958 255.931,429.441 C232.96,413.921 214.717,391.956 203.785,366.114 C196.498,348.888 192.469,329.935 192.47,310.08 C192.467,287.278 197.783,265.678 207.238,246.5 C219.225,240.633 230.273,233.153 240.101,224.342 C230.778,234.807 223.136,246.799 217.6,259.889 C211.078,275.313 207.471,292.255 207.47,310.08 C207.473,336.812 215.583,361.582 229.488,382.172 C243.393,402.756 263.098,419.117 286.229,428.899 C301.652,435.421 318.595,439.028 336.42,439.03 C363.152,439.027 387.922,430.916 408.512,417.011 C429.097,403.106 445.458,383.402 455.24,360.271 C458.663,352.176 461.283,343.664 463,334.824 L463,378.686 C460.781,382.772 458.371,386.737 455.781,390.569 C440.261,413.539 418.297,431.782 392.454,442.714 C375.23,450.001 356.28,454.03 336.428,454.03 C336.425,454.03 336.423,454.03 336.42,454.03 C336.415,454.03 336.411,454.03 336.405,454.03 M463,285.337 C459.647,268.074 452.852,252.056 443.352,237.988 C429.447,217.404 409.742,201.043 386.611,191.261 C371.188,184.738 354.245,181.131 336.42,181.13 L336.42,166.13 C336.426,166.13 336.43,166.13 336.435,166.13 C366.216,166.13 393.948,175.201 416.909,190.719 C436.057,203.656 451.919,221.07 463,241.476 L463,285.337 M229.493,213.703 C232.921,209.902 236.548,206.285 240.359,202.869 C236.954,206.691 233.325,210.309 229.493,213.703 M250.967,213.507 C255.469,208.516 259.626,203.208 263.401,197.619 C267.041,192.234 270.326,186.586 273.222,180.711 C275.575,179.56 277.963,178.471 280.386,177.446 C297.61,170.159 316.559,166.13 336.411,166.13 C336.414,166.13 336.418,166.13 336.42,166.13 L336.42,181.13 C309.688,181.133 284.918,189.243 264.328,203.148 C259.647,206.311 255.184,209.773 250.967,213.507" id="Fill-13" fill-opacity="0.08" fill="#222326"></path>
                <path d="M434.12,369.78 L434.13,369.73 L421.26,362.03 C440.421,330.015 440.081,289.976 420.38,258.29 L420.31,258.17 L423.52,256.25 L433.02,250.25 L433.12,250.411 C455.787,286.871 456.173,332.944 434.12,369.78" id="Fill-14" fill-opacity="0.08" fill="#222326"></path>
                <g id="Group-18" fill-opacity="0.08" fill="#222326">
                    <path d="M241.06,369.69 C234.947,359.487 230.46,348.394 227.76,336.81 C220.795,307.242 225.947,276.116 242.07,250.37 L242.17,250.21 L251.67,256.21 L254.88,258.13 L254.81,258.25 C235.109,289.936 234.769,329.975 253.93,361.99 L241.06,369.69" id="Fill-15"></path>
                    <path d="M144.025,261.08 C114.244,261.08 86.512,252.009 63.551,236.491 C40.58,220.971 22.338,199.007 11.405,173.164 C4.118,155.938 0.089,136.985 0.09,117.13 C0.087,87.343 9.158,59.607 24.679,36.641 C34.296,22.408 46.388,9.988 60.343,0 L90.03,0 C83.712,2.919 77.669,6.335 71.948,10.198 C51.363,24.104 35.002,43.808 25.22,66.939 C18.698,82.363 15.091,99.305 15.09,117.13 C15.093,143.862 23.203,168.632 37.108,189.222 C51.014,209.807 70.718,226.168 93.849,235.95 C109.273,242.472 126.215,246.079 144.04,246.08 C170.772,246.077 195.542,237.967 216.132,224.062 C220.813,220.9 225.276,217.437 229.493,213.703 C233.325,210.309 236.954,206.691 240.359,202.869 C249.682,192.403 257.324,180.411 262.86,167.321 C269.382,151.898 272.989,134.955 272.99,117.13 C272.987,90.398 264.877,65.628 250.972,45.038 C237.838,25.596 219.533,9.922 198.051,0 L227.737,0 C249.199,15.362 266.256,36.468 276.675,61.096 C283.962,78.322 287.991,97.276 287.99,117.13 C287.993,139.932 282.677,161.532 273.222,180.711 C270.326,186.586 267.041,192.234 263.401,197.619 C259.626,203.208 255.469,208.516 250.967,213.507 C247.539,217.308 243.912,220.925 240.101,224.342 C230.273,233.153 219.225,240.633 207.238,246.5 C204.885,247.651 202.497,248.74 200.074,249.765 C182.85,257.051 163.9,261.08 144.048,261.08 C144.045,261.08 144.043,261.08 144.04,261.08 C144.035,261.08 144.031,261.08 144.025,261.08" id="Fill-17"></path>
                </g>
                <path d="M241.74,176.83 L241.74,176.78 L228.87,169.08 C248.033,137.067 247.698,97.028 228,65.34 L227.93,65.22 L231.14,63.3 L240.64,57.3 L240.74,57.46 C263.406,93.921 263.793,139.994 241.74,176.83" id="Fill-19" fill-opacity="0.08" fill="#222326"></path>
                <path d="M48.67,176.74 C42.561,166.536 38.077,155.443 35.38,143.86 C28.414,114.292 33.567,83.166 49.69,57.42 L49.79,57.26 L59.29,63.26 L62.49,65.18 L62.42,65.3 C42.719,96.986 42.379,137.025 61.54,169.04 L48.67,176.74" id="Fill-20" fill-opacity="0.08" fill="#222326"></path>
            </g>
        </g>
    </g>
</svg>