<svg width="201" height="46" viewBox="0 0 201 46" fill="none" xmlns="http://www.w3.org/2000/svg">
<path fill-rule="evenodd" clip-rule="evenodd" d="M26.646 14.6606L27.3957 12.8223C27.3957 12.8223 26.4415 11.801 25.2827 10.6436C24.124 9.48613 21.6701 10.167 21.6701 10.167L18.8755 7H13.9678H9.06018L6.26554 10.167C6.26554 10.167 3.81171 9.48613 2.65296 10.6436C1.4942 11.801 0.539935 12.8223 0.539935 12.8223L1.28972 14.6606L0.335449 17.384C0.335449 17.384 3.14202 28.0022 3.4709 29.2989C4.11844 31.8521 4.56149 32.8393 6.40186 34.1329C8.24223 35.4266 11.5822 37.6734 12.1275 38.0138C12.6728 38.3542 13.3544 38.9341 13.9678 38.9341C14.5813 38.9341 15.2629 38.3542 15.8082 38.0138C16.3535 37.6734 19.6934 35.4266 21.5338 34.1329C23.3742 32.8393 23.8172 31.8521 24.4648 29.2989C24.7936 28.0022 27.6002 17.384 27.6002 17.384L26.646 14.6606Z" fill="url(#paint0_linear_6432_15185)"/>
<path d="M17.4441 12.7543C17.8531 12.7543 20.8863 12.1755 20.8863 12.1755C20.8863 12.1755 24.4809 16.516 24.4809 17.4436C24.4809 18.2106 24.1718 18.5108 23.8077 18.8644C23.7315 18.9384 23.6528 19.0148 23.5741 19.0984L20.8788 21.9572C20.8521 21.9855 20.8223 22.0154 20.7909 22.047C20.5218 22.3172 20.1257 22.7151 20.4052 23.3759C20.4239 23.4201 20.4431 23.4649 20.4626 23.5105C20.7691 24.2265 21.1474 25.1102 20.6659 26.0059C20.1536 26.9585 19.276 27.5944 18.7136 27.4892C18.1513 27.3841 16.8307 26.6947 16.345 26.3798C15.8594 26.0649 14.3201 24.7969 14.3201 24.3117C14.3201 23.9071 15.4271 23.2339 15.9649 22.9069C16.0719 22.8418 16.1564 22.7904 16.2051 22.7576C16.2607 22.7202 16.3535 22.6626 16.4678 22.5917C16.9587 22.287 17.8451 21.7369 17.8674 21.4931C17.8948 21.1923 17.8844 21.1042 17.4887 20.3612C17.4046 20.2032 17.3061 20.034 17.2043 19.8591C16.8276 19.2116 16.4057 18.4865 16.4991 17.9671C16.6045 17.3807 17.5242 17.0446 18.3033 16.7598C18.4007 16.7242 18.4959 16.6894 18.587 16.6551C18.8144 16.5693 19.1001 16.4624 19.3985 16.3507C20.1764 16.0597 21.0406 15.7363 21.1831 15.6707C21.3805 15.5798 21.3295 15.4933 20.7319 15.4367C20.6528 15.4292 20.5546 15.4188 20.4417 15.4068C19.702 15.3283 18.3377 15.1835 17.6744 15.3681C17.544 15.4044 17.3977 15.444 17.2444 15.4855C16.4992 15.6871 15.586 15.9341 15.4982 16.0765C15.4829 16.1014 15.4678 16.1228 15.4536 16.143C15.3696 16.2622 15.3149 16.3399 15.4078 16.8463C15.4354 16.9971 15.4923 17.2937 15.5626 17.6605C15.7684 18.7344 16.0895 20.4095 16.13 20.7858C16.1356 20.8385 16.1419 20.8893 16.1479 20.9382C16.1994 21.358 16.2336 21.6374 15.7455 21.7489C15.7049 21.7581 15.6622 21.7679 15.6178 21.7781C15.0671 21.9043 14.2596 22.0894 13.9679 22.0894C13.676 22.0894 12.8679 21.9042 12.3172 21.7779C12.2731 21.7678 12.2306 21.7581 12.1902 21.7489C11.702 21.6374 11.7363 21.358 11.7878 20.9382C11.7938 20.8893 11.8 20.8385 11.8057 20.7858C11.8462 20.4089 12.1681 18.7297 12.374 17.656C12.4439 17.2913 12.5004 16.9965 12.5279 16.8463C12.6208 16.34 12.566 16.2622 12.4822 16.1431C12.4679 16.1228 12.4528 16.1014 12.4375 16.0765C12.3498 15.9341 11.4366 15.6871 10.6914 15.4855C10.538 15.444 10.3917 15.4045 10.2612 15.3681C9.59796 15.1835 8.2338 15.3283 7.49402 15.4068C7.38116 15.4188 7.28283 15.4292 7.20374 15.4367C6.60623 15.4933 6.55525 15.5798 6.75251 15.6707C6.89503 15.7363 7.75886 16.0595 8.53656 16.3505C8.83523 16.4622 9.1212 16.5692 9.34873 16.6551C9.43988 16.6895 9.5351 16.7243 9.63252 16.7599C10.4115 17.0446 11.3312 17.3808 11.4367 17.9671C11.53 18.4864 11.1082 19.2114 10.7315 19.8588C10.6297 20.0338 10.5312 20.2031 10.447 20.3612C10.0513 21.1042 10.0408 21.1923 10.0683 21.4931C10.0905 21.7369 10.9766 22.2868 11.4676 22.5915C11.582 22.6625 11.6749 22.7202 11.7305 22.7576C11.7792 22.7904 11.8636 22.8417 11.9705 22.9067C12.5083 23.2337 13.6155 23.907 13.6155 24.3117C13.6155 24.7969 12.0764 26.0649 11.5907 26.3798C11.1051 26.6947 9.78442 27.3841 9.22208 27.4892C8.65975 27.5944 7.78216 26.9585 7.26986 26.0059C6.78831 25.1103 7.16655 24.2266 7.47297 23.5107C7.4925 23.4651 7.51173 23.4201 7.53044 23.3759C7.81001 22.715 7.41378 22.3171 7.14471 22.0469C7.11326 22.0153 7.08355 21.9855 7.05685 21.9572L4.36159 19.0984C4.28287 19.0149 4.20421 18.9385 4.12797 18.8644C3.76393 18.5109 3.45483 18.2107 3.45483 17.4436C3.45483 16.516 7.04942 12.1755 7.04942 12.1755C7.04942 12.1755 10.0826 12.7543 10.4916 12.7543C10.8179 12.7543 11.4481 12.5375 12.105 12.3115C12.2713 12.2543 12.4394 12.1965 12.6046 12.1415C13.4226 11.8692 13.9679 11.8672 13.9679 11.8672C13.9679 11.8672 14.5132 11.8692 15.3311 12.1415C15.4964 12.1965 15.6644 12.2543 15.8307 12.3115C16.4876 12.5375 17.1178 12.7543 17.4441 12.7543Z" fill="white"/>
<path d="M16.9235 28.1068C17.5647 28.4369 18.0196 28.671 18.1916 28.7785C18.414 28.9177 18.2783 29.18 18.0757 29.3231C17.873 29.4663 15.1492 31.5731 14.8848 31.8059C14.851 31.8357 14.8151 31.868 14.7778 31.9017C14.5231 32.131 14.1982 32.4235 13.9678 32.4235C13.7374 32.4235 13.4123 32.1307 13.1576 31.9014C13.1203 31.8678 13.0846 31.8357 13.0509 31.8059C12.7865 31.5731 10.0627 29.4663 9.86 29.3231C9.65728 29.18 9.52164 28.9177 9.74412 28.7785C9.91623 28.671 10.3716 28.4366 11.0134 28.1062C11.2015 28.0094 11.4057 27.9043 11.6234 27.7918C12.5839 27.2953 13.781 26.8732 13.9678 26.8732C14.1547 26.8732 15.3517 27.2953 16.3123 27.7918C16.5305 27.9045 16.735 28.0098 16.9235 28.1068Z" fill="white"/>
<path fill-rule="evenodd" clip-rule="evenodd" d="M34.4 24.4425V13.3535H35.4659C36.3343 13.3535 37.0382 14.0541 37.0382 14.9184V19.8488C38.7464 18.3321 40.199 17.725 42.135 17.686C45.8483 17.6104 49.0712 20.3552 49.3774 24.0393C49.7434 28.4406 46.5274 31.7535 42.3376 31.7535C37.738 31.7535 34.4 28.9148 34.4 24.4425ZM36.9945 25.3132C37.2546 27.6043 39.4531 29.4968 41.7713 29.5334C44.7916 29.5792 46.8497 27.6203 46.8497 24.7221C46.8497 21.8238 44.8377 19.9107 41.9025 19.9107C38.7648 19.9038 36.6377 22.172 36.9945 25.3132Z" fill="#546771"/>
<path fill-rule="evenodd" clip-rule="evenodd" d="M53.779 17.9638V19.9388C55.4388 18.1059 56.4218 17.6133 58.3647 17.6133C58.9299 17.6139 59.4942 17.6591 60.0522 17.7485V20.3718C59.4567 20.2089 58.8418 20.1272 58.2243 20.1289C56.8177 20.1289 55.6368 20.5872 54.7712 21.4532C54.0115 22.2116 53.7859 22.805 53.7859 23.9963V31.3004H51.051V17.9638H53.779Z" fill="#546771"/>
<path fill-rule="evenodd" clip-rule="evenodd" d="M60.7013 22.3742C60.8417 21.0752 61.0949 20.3718 61.6566 19.6959C62.7823 18.3212 64.8082 17.6133 67.6766 17.6133C69.9556 17.6133 71.6154 17.9661 72.7688 18.7222C73.7264 19.3431 74.1201 20.2641 74.1201 21.8862V27.8088C74.1201 29.1078 74.4585 29.5661 75.3862 29.5409C75.5935 29.5336 75.8002 29.5152 76.0055 29.4859V31.2707C75.5443 31.4275 75.0585 31.5005 74.5713 31.486C72.8562 31.486 72.0689 30.9728 71.5349 29.4836C69.8474 31.0255 68.1025 31.6739 65.6001 31.6739C62.2529 31.6739 60.1994 30.1595 60.1994 27.6965C60.1847 26.292 61.0149 25.0148 62.3081 24.4523C63.321 24.0193 63.9403 23.8841 66.8363 23.5862C69.311 23.3434 69.7346 23.2884 70.4368 23.0707C71.1964 22.8279 71.5349 22.4223 71.5349 21.7465C71.5349 20.3122 70.3263 19.6638 67.794 19.6638C65.3998 19.6638 64.1659 20.1358 63.6709 21.3409C63.4258 21.9572 62.829 22.3634 62.1631 22.3674L60.7013 22.3742ZM71.521 24.647C69.786 25.1493 68.0043 25.4755 66.2032 25.6207C63.7561 25.8636 62.9964 26.3241 62.9964 27.5407C62.9964 28.8924 64.1221 29.6027 66.3436 29.6027C68.1715 29.6027 69.5504 29.1445 70.5357 28.2509C71.323 27.5201 71.521 27.0069 71.521 25.7307V24.647Z" fill="#546771"/>
<path fill-rule="evenodd" clip-rule="evenodd" d="M82.6079 31.2967H81.9035C81.2829 31.3006 80.7152 30.9495 80.4439 30.394L74.5437 17.9624H76.1828C77.1379 17.9548 78.0074 18.5092 78.3997 19.376L82.3362 28.3114L86.404 19.3416C86.8021 18.4885 87.6644 17.9457 88.6094 17.9532H90.0989L84.0605 30.4077C83.7864 30.9556 83.2229 31.3005 82.6079 31.2967Z" fill="#546771"/>
<path fill-rule="evenodd" clip-rule="evenodd" d="M91.9474 25.4028C92.2283 27.9734 94.2495 29.568 97.263 29.568C98.9734 29.568 100.256 29.0617 101.05 28.0513C101.513 27.4719 102.217 27.1345 102.961 27.1348H104.547C103.166 30.1637 100.693 31.6529 97.0074 31.6529C92.4033 31.6529 89.3 28.8669 89.3 24.7017C89.3 20.5364 92.4792 17.6152 97.065 17.6152C100.382 17.6152 103.05 19.1022 104.125 21.5926C104.604 22.7382 104.8 23.7554 104.8 25.405L91.9474 25.4028ZM102.017 23.3407C101.397 20.9878 99.5696 19.6612 97.0374 19.6612C94.5051 19.6612 92.6772 20.9878 92.0303 23.3407H102.017Z" fill="#546771"/>
<path d="M113.392 24.4163C113.392 23.3283 113.643 22.3523 114.144 21.4883C114.656 20.6243 115.344 19.9523 116.208 19.4723C117.083 18.9817 118.037 18.7363 119.072 18.7363C120.256 18.7363 121.307 19.0297 122.224 19.6163C123.152 20.1923 123.824 21.0137 124.24 22.0803H122.048C121.76 21.4937 121.36 21.0563 120.848 20.7683C120.336 20.4803 119.744 20.3363 119.072 20.3363C118.336 20.3363 117.68 20.5017 117.104 20.8323C116.528 21.163 116.075 21.6377 115.744 22.2563C115.424 22.875 115.264 23.595 115.264 24.4163C115.264 25.2377 115.424 25.9577 115.744 26.5763C116.075 27.195 116.528 27.675 117.104 28.0163C117.68 28.347 118.336 28.5123 119.072 28.5123C119.744 28.5123 120.336 28.3683 120.848 28.0803C121.36 27.7923 121.76 27.355 122.048 26.7683H124.24C123.824 27.835 123.152 28.6563 122.224 29.2323C121.307 29.8083 120.256 30.0963 119.072 30.0963C118.027 30.0963 117.072 29.8563 116.208 29.3763C115.344 28.8857 114.656 28.2083 114.144 27.3443C113.643 26.4803 113.392 25.5043 113.392 24.4163Z" fill="#3F4E55"/>
<path d="M128.199 22.4643C128.466 22.0163 128.818 21.6697 129.255 21.4243C129.703 21.1683 130.231 21.0403 130.839 21.0403V22.9283H130.375C129.66 22.9283 129.116 23.1097 128.743 23.4723C128.38 23.835 128.199 24.4643 128.199 25.3603V30.0003H126.375V21.1843H128.199V22.4643Z" fill="#3F4E55"/>
<path d="M140.596 25.3763C140.596 25.707 140.574 26.0057 140.532 26.2723H133.796C133.849 26.9763 134.11 27.5417 134.58 27.9683C135.049 28.395 135.625 28.6083 136.308 28.6083C137.289 28.6083 137.982 28.1977 138.388 27.3763H140.356C140.089 28.187 139.604 28.8537 138.9 29.3763C138.206 29.8883 137.342 30.1443 136.308 30.1443C135.465 30.1443 134.708 29.9577 134.036 29.5843C133.374 29.2003 132.852 28.667 132.468 27.9843C132.094 27.291 131.908 26.491 131.908 25.5843C131.908 24.6777 132.089 23.883 132.452 23.2003C132.825 22.507 133.342 21.9737 134.004 21.6003C134.676 21.227 135.444 21.0403 136.308 21.0403C137.14 21.0403 137.881 21.2217 138.532 21.5843C139.182 21.947 139.689 22.459 140.052 23.1203C140.414 23.771 140.596 24.523 140.596 25.3763ZM138.692 24.8003C138.681 24.1283 138.441 23.5897 137.972 23.1843C137.502 22.779 136.921 22.5763 136.228 22.5763C135.598 22.5763 135.06 22.779 134.612 23.1843C134.164 23.579 133.897 24.1177 133.812 24.8003H138.692Z" fill="#3F4E55"/>
<path d="M141.783 25.5523C141.783 24.667 141.964 23.883 142.327 23.2003C142.7 22.5177 143.201 21.9897 143.831 21.6163C144.471 21.2323 145.175 21.0403 145.943 21.0403C146.636 21.0403 147.239 21.179 147.751 21.4563C148.273 21.723 148.689 22.059 148.999 22.4643V21.1843H150.839V30.0003H148.999V28.6883C148.689 29.1043 148.268 29.451 147.735 29.7283C147.201 30.0057 146.593 30.1443 145.911 30.1443C145.153 30.1443 144.46 29.9523 143.831 29.5683C143.201 29.1737 142.7 28.6297 142.327 27.9363C141.964 27.2323 141.783 26.4377 141.783 25.5523ZM148.999 25.5843C148.999 24.9763 148.871 24.4483 148.615 24.0003C148.369 23.5523 148.044 23.211 147.639 22.9763C147.233 22.7417 146.796 22.6243 146.327 22.6243C145.857 22.6243 145.42 22.7417 145.015 22.9763C144.609 23.2003 144.279 23.5363 144.023 23.9843C143.777 24.4217 143.655 24.9443 143.655 25.5523C143.655 26.1603 143.777 26.6937 144.023 27.1523C144.279 27.611 144.609 27.963 145.015 28.2083C145.431 28.443 145.868 28.5603 146.327 28.5603C146.796 28.5603 147.233 28.443 147.639 28.2083C148.044 27.9737 148.369 27.6323 148.615 27.1843C148.871 26.7257 148.999 26.1923 148.999 25.5843Z" fill="#3F4E55"/>
<path d="M155.362 22.6723V27.5523C155.362 27.883 155.437 28.123 155.586 28.2723C155.746 28.411 156.013 28.4803 156.386 28.4803H157.506V30.0003H156.066C155.245 30.0003 154.616 29.8083 154.178 29.4243C153.741 29.0403 153.522 28.4163 153.522 27.5523V22.6723H152.482V21.1843H153.522V18.9923H155.362V21.1843H157.506V22.6723H155.362Z" fill="#3F4E55"/>
<path d="M163.011 30.1443C162.179 30.1443 161.427 29.9577 160.755 29.5843C160.083 29.2003 159.555 28.667 159.171 27.9843C158.787 27.291 158.595 26.491 158.595 25.5843C158.595 24.6883 158.793 23.8937 159.187 23.2003C159.582 22.507 160.121 21.9737 160.803 21.6003C161.486 21.227 162.249 21.0403 163.091 21.0403C163.934 21.0403 164.697 21.227 165.379 21.6003C166.062 21.9737 166.601 22.507 166.995 23.2003C167.39 23.8937 167.587 24.6883 167.587 25.5843C167.587 26.4803 167.385 27.275 166.979 27.9683C166.574 28.6617 166.019 29.2003 165.315 29.5843C164.622 29.9577 163.854 30.1443 163.011 30.1443ZM163.011 28.5603C163.481 28.5603 163.918 28.4483 164.323 28.2243C164.739 28.0003 165.075 27.6643 165.331 27.2163C165.587 26.7683 165.715 26.2243 165.715 25.5843C165.715 24.9443 165.593 24.4057 165.347 23.9683C165.102 23.5203 164.777 23.1843 164.371 22.9603C163.966 22.7363 163.529 22.6243 163.059 22.6243C162.59 22.6243 162.153 22.7363 161.747 22.9603C161.353 23.1843 161.038 23.5203 160.803 23.9683C160.569 24.4057 160.451 24.9443 160.451 25.5843C160.451 26.5337 160.691 27.2697 161.171 27.7923C161.662 28.3043 162.275 28.5603 163.011 28.5603Z" fill="#3F4E55"/>
<path d="M171.215 22.4643C171.481 22.0163 171.833 21.6697 172.271 21.4243C172.719 21.1683 173.247 21.0403 173.855 21.0403V22.9283H173.391C172.676 22.9283 172.132 23.1097 171.759 23.4723C171.396 23.835 171.215 24.4643 171.215 25.3603V30.0003H169.391V21.1843H171.215V22.4643Z" fill="#3F4E55"/>
<path d="M178.731 30.1443C178.038 30.1443 177.414 30.0217 176.859 29.7763C176.315 29.5203 175.883 29.179 175.563 28.7523C175.243 28.315 175.073 27.8297 175.051 27.2963H176.939C176.971 27.6697 177.147 27.9843 177.467 28.2403C177.798 28.4857 178.209 28.6083 178.699 28.6083C179.211 28.6083 179.606 28.5123 179.883 28.3203C180.171 28.1177 180.315 27.8617 180.315 27.5523C180.315 27.2217 180.155 26.9763 179.835 26.8163C179.526 26.6563 179.03 26.4803 178.347 26.2883C177.686 26.107 177.147 25.931 176.731 25.7603C176.315 25.5897 175.953 25.3283 175.643 24.9763C175.345 24.6243 175.195 24.1603 175.195 23.5843C175.195 23.115 175.334 22.6883 175.611 22.3043C175.889 21.9097 176.283 21.6003 176.795 21.3763C177.318 21.1523 177.915 21.0403 178.587 21.0403C179.59 21.0403 180.395 21.2963 181.003 21.8083C181.622 22.3097 181.953 22.9977 181.995 23.8723H180.171C180.139 23.4777 179.979 23.163 179.691 22.9283C179.403 22.6937 179.014 22.5763 178.523 22.5763C178.043 22.5763 177.675 22.667 177.419 22.8483C177.163 23.0297 177.035 23.2697 177.035 23.5683C177.035 23.803 177.121 24.0003 177.291 24.1603C177.462 24.3203 177.67 24.4483 177.915 24.5443C178.161 24.6297 178.523 24.7417 179.003 24.8803C179.643 25.051 180.166 25.227 180.571 25.4083C180.987 25.579 181.345 25.835 181.643 26.1763C181.942 26.5177 182.097 26.971 182.107 27.5363C182.107 28.0377 181.969 28.4857 181.691 28.8803C181.414 29.275 181.019 29.5843 180.507 29.8083C180.006 30.0323 179.414 30.1443 178.731 30.1443Z" fill="#3F4E55"/>
<defs>
<linearGradient id="paint0_linear_6432_15185" x1="0.335449" y1="39.1594" x2="27.6002" y2="39.1594" gradientUnits="userSpaceOnUse">
<stop stop-color="#FF5500"/>
<stop offset="0.333333" stop-color="#FF5500"/>
<stop offset="0.666667" stop-color="#FF2000"/>
<stop offset="1" stop-color="#FF2000"/>
</linearGradient>
</defs>
</svg>
