<svg width="24" height="24" viewBox="0 0 24 24" fill="none" xmlns="http://www.w3.org/2000/svg">
<path d="M20.0723 15.3314L20.5081 15.0005C21.4574 14.278 22.0008 13.1805 22 11.9879C21.9983 10.7954 21.4516 9.69865 20.5015 8.97946L20.0639 8.64861L20.1381 8.10525C20.2848 7.02354 19.9581 5.93266 19.2413 5.11263C18.4079 4.15676 17.1694 3.67507 15.8742 3.85258L15.3317 3.92841L15 3.4909C14.2799 2.54336 13.1831 2 11.9929 2C10.7978 2 9.6993 2.54669 8.97921 3.49923L8.64917 3.93675L8.1041 3.86258C6.8181 3.68424 5.57545 4.17176 4.74451 5.12596C4.02776 5.94933 3.70272 7.04271 3.85273 8.12525L3.92774 8.66778L3.49102 9.00029C2.54174 9.72199 1.99834 10.8204 2 12.0129C2.00167 13.2055 2.54757 14.3022 3.49936 15.0214L3.93608 15.3522L3.8619 15.8947C3.71438 16.9756 4.04109 18.0673 4.75785 18.8882C5.59045 19.8432 6.8281 20.3258 8.12493 20.1483L8.6675 20.0724L9.00004 20.5091C9.72013 21.4575 10.8169 22.0008 12.0071 22C13.2022 22 14.2999 21.4541 15.0208 20.5016L15.3517 20.0641L15.8951 20.1374C17.1894 20.3166 18.4245 19.8291 19.2563 18.874C19.9722 18.0507 20.2973 16.9581 20.1473 15.8747L20.0723 15.3314Z" fill="#3F39E8"/>
<path d="M11.2045 15.334C11.4387 15.3232 11.6562 15.2148 11.807 15.0348L15.9742 10.0346C16.2684 9.68127 16.2201 9.15541 15.8675 8.86123C15.5125 8.56622 14.9883 8.61456 14.6932 8.96791L11.1103 13.2664L9.25589 11.4122C8.93002 11.0863 8.40329 11.0863 8.07741 11.4122C7.75154 11.7372 7.75154 12.2647 8.07741 12.5906L10.5777 15.0907C10.7336 15.2473 10.9461 15.3348 11.167 15.3348C11.1786 15.3348 11.192 15.334 11.2045 15.334Z" fill="white"/>
</svg>
