<svg width="40" height="40" viewBox="0 0 40 40" fill="none" xmlns="http://www.w3.org/2000/svg">
<path fill-rule="evenodd" clip-rule="evenodd" d="M32.8821 35.5556H26.5599C24.4738 35.5556 22.7779 33.9139 22.7779 31.8944V16.9958C22.7779 14.9764 24.4738 13.3333 26.5599 13.3333H32.8821C34.9696 13.3333 36.6668 14.9764 36.6668 16.9958V31.8944C36.6668 33.9139 34.9696 35.5556 32.8821 35.5556ZM33.8891 16.9958C33.8891 16.5167 33.4279 16.1111 32.8821 16.1111H26.5599C26.0154 16.1111 25.5557 16.5167 25.5557 16.9958V31.8944C25.5557 32.3722 26.0154 32.7778 26.5599 32.7778H32.8821C33.4279 32.7778 33.8891 32.3722 33.8891 31.8944V16.9958ZM28.3335 28.6111H31.1113V31.3889H28.3335V28.6111ZM29.7224 20.2778C29.3613 20.2778 29.0002 20.125 28.7363 19.875C28.4863 19.6097 28.3335 19.2639 28.3335 18.8889C28.3335 18.5278 28.4863 18.1667 28.7363 17.9028C29.2502 17.3889 30.1946 17.3889 30.7085 17.9028C30.9585 18.1667 31.1113 18.5278 31.1113 18.8889C31.1113 19.25 30.9585 19.6097 30.7085 19.875C30.4446 20.125 30.0835 20.2778 29.7224 20.2778ZM32.5002 11.9444C31.7335 11.9444 31.1113 11.3236 31.1113 10.5556V7.77778H7.50016V24.4444H20.0002C20.7668 24.4444 21.3891 25.0653 21.3891 25.8333C21.3891 26.6014 20.7668 27.2222 20.0002 27.2222H6.11127V28.6111H20.0002C20.7668 28.6111 21.3891 29.2319 21.3891 30C21.3891 30.7667 20.7668 31.3889 20.0002 31.3889H5.76544C4.42516 31.3889 3.3335 30.2986 3.3335 28.9583V25.8333C3.3335 25.0653 3.95572 24.4444 4.72238 24.4444V7.46944C4.72238 6.10833 5.80016 5 7.12516 5H31.4863C32.8113 5 33.889 6.10833 33.889 7.46944V10.5556C33.889 11.3236 33.2668 11.9444 32.5002 11.9444Z" fill="#3F39E8"/>
</svg>
