<svg width="24" height="24" viewBox="0 0 24 24" fill="none" xmlns="http://www.w3.org/2000/svg">
<path fill-rule="evenodd" clip-rule="evenodd" d="M21.3504 4.01374C22.3825 4.29396 23.199 5.11905 23.4763 6.16209C23.9846 8.06135 24 12 24 12C24 12 24 15.9542 23.4917 17.8379C23.2144 18.881 22.3979 19.706 21.3659 19.9863C19.5019 20.5 12 20.5 12 20.5C12 20.5 4.49807 20.5 2.63415 19.9863C1.60205 19.706 0.785623 18.881 0.508344 17.8379C0 15.9386 0 12 0 12C0 12 0 8.06135 0.49294 6.17765C0.770218 5.13462 1.58665 4.30952 2.61874 4.0293C4.48267 3.51557 11.9846 3.5 11.9846 3.5C11.9846 3.5 19.4865 3.5 21.3504 4.01374ZM16.0348 12.0121L9.99998 15.5243V8.49995L16.0348 12.0121Z" fill="black"/>
</svg>
