<svg width="24" height="24" viewBox="0 0 24 24" fill="none" xmlns="http://www.w3.org/2000/svg">
<g clip-path="url(#clip0_620_14151)">
<path d="M11.93 0C8.77336 0.0189118 5.75107 1.31936 3.51801 3.61957C1.28495 5.91978 0.0209913 9.03447 0 12.2888C0.0184151 14.8732 0.818231 17.3873 2.28804 19.481C3.75784 21.5746 5.82445 23.1436 8.2 23.9693C8.8 24.1239 8.94 23.66 8.94 23.361V21.2063C5.66 21.9692 4.94 19.6703 4.94 19.6703C4.66921 18.9382 4.20502 18.299 3.6 17.8249C2.55 17.0517 3.75 17.0517 3.75 17.0517C4.1166 17.1146 4.46593 17.2575 4.77463 17.4709C5.08333 17.6842 5.34427 17.9631 5.54 18.2888C5.6895 18.5973 5.89916 18.8706 6.15586 19.0917C6.41256 19.3128 6.71076 19.4768 7.0318 19.5736C7.35284 19.6704 7.68981 19.6978 8.0216 19.6541C8.35338 19.6104 8.67285 19.4966 8.96 19.3197C9.05734 18.6967 9.31651 18.1124 9.71 17.629C7.03 17.3197 4.34 16.2475 4.34 11.4434C4.31737 10.8498 4.41208 10.2576 4.61837 9.70285C4.82466 9.14813 5.13823 8.64245 5.54 8.21656C5.33361 7.70073 5.23919 7.14459 5.26338 6.58716C5.28756 6.02973 5.42976 5.4845 5.68 4.98973C5.68 4.98973 6.68 4.68045 8.96 6.21654C9.92987 5.89913 10.9425 5.74254 11.96 5.75262C12.9775 5.74219 13.9902 5.89879 14.96 6.21654C17.14 4.78354 18.19 5.0722 18.19 5.0722C18.6099 6.09537 18.6631 7.23916 18.34 8.29903C19.0972 9.19394 19.5193 10.3384 19.53 11.5259C19.53 16.2888 16.7 17.361 14.01 17.5156C14.5739 18.207 14.8915 19.0764 14.91 19.9795V23.3404C14.91 23.6394 15.06 24.1033 15.8 23.9486C18.1723 23.1241 20.2367 21.5583 21.7062 19.4687C23.1757 17.3792 23.9774 14.8696 24 12.2888C23.93 9.02553 22.6313 5.91839 20.3785 3.62485C18.1258 1.33132 15.0959 0.0313341 11.93 0Z" fill="black"/>
</g>
<defs>
<clipPath id="clip0_620_14151">
<rect width="24" height="24" fill="white"/>
</clipPath>
</defs>
</svg>
