<svg width="24" height="21" viewBox="0 0 24 21" fill="none" xmlns="http://www.w3.org/2000/svg">
<path d="M23.9884 4.81206C23.8816 7.15279 22.2498 10.358 19.0938 14.426C15.8307 18.6755 13.07 20.8 10.8116 20.8C9.4131 20.8 8.22869 19.5064 7.26197 16.9182C6.61588 14.5458 5.97052 12.1736 5.32467 9.80121C4.60635 7.21447 3.83618 5.91942 3.01274 5.91942C2.83322 5.91942 2.20489 6.29791 1.12921 7.05199L0 5.59446C1.18441 4.55165 2.35298 3.50909 3.50258 2.46508C5.08227 1.09731 6.26812 0.378026 7.05845 0.305306C8.92638 0.125544 10.076 1.40475 10.5075 4.14317C10.9738 7.09759 11.2964 8.93528 11.4778 9.65457C12.0162 12.1057 12.6085 13.3297 13.2558 13.3297C13.7581 13.3297 14.5127 12.5348 15.5187 10.9451C16.5239 9.3548 17.0622 8.14496 17.1349 7.31383C17.278 5.9415 16.7394 5.25366 15.5187 5.25366C14.9442 5.25366 14.3519 5.38614 13.7425 5.64798C14.9219 1.777 17.1755 -0.102937 20.5019 0.00434363C22.9679 0.0768241 24.1305 1.67931 23.9884 4.81206Z" fill="black"/>
</svg>
