<svg width="24" height="24" viewBox="0 0 24 24" fill="none" xmlns="http://www.w3.org/2000/svg">
<path fill-rule="evenodd" clip-rule="evenodd" d="M3.60938 0H20.3906C22.384 0 24 1.61597 24 3.60938V20.3906C24 22.384 22.384 24 20.3906 24H3.60938C1.61597 24 0 22.384 0 20.3906V3.60938C0 1.61597 1.61597 0 3.60938 0ZM10.1049 12.8203L3.54137 4.04443H8.6L12.9029 9.79773L18.2283 4.04443H19.7149L13.5671 10.6861L20.5 19.9555H15.4414L10.7693 13.7084L4.98661 19.9555H3.5L10.1049 12.8203ZM8.0514 5.13935H5.72749L15.9897 18.8606H18.3136L8.0514 5.13935Z" fill="black"/>
</svg>
