<svg width="24" height="24" viewBox="0 0 24 24" fill="none" xmlns="http://www.w3.org/2000/svg">
<path fill-rule="evenodd" clip-rule="evenodd" d="M24 12C24 18.6274 18.6274 24 12 24C5.37258 24 0 18.6274 0 12C0 5.37258 5.37258 0 12 0C18.6274 0 24 5.37258 24 12ZM20.0047 11.9999C20.0047 11.0261 19.2173 10.2529 18.2577 10.2529C17.7853 10.2529 17.3555 10.4389 17.0406 10.7397C15.8378 9.8805 14.1909 9.3221 12.358 9.25057L13.1598 5.49872L15.766 6.05712C15.7948 6.71588 16.3388 7.24572 17.012 7.24572C17.6993 7.24572 18.2577 6.68732 18.2577 5.99973C18.2577 5.3124 17.6993 4.754 17.012 4.754C16.5251 4.754 16.0954 5.04041 15.8949 5.45574L12.9882 4.83995C12.9022 4.82554 12.8163 4.83995 12.7589 4.88293C12.6873 4.9259 12.6444 4.99744 12.6302 5.08339L11.7422 9.26472C9.88066 9.3221 8.20519 9.8805 6.98803 10.7541C6.67306 10.4533 6.24332 10.2673 5.77087 10.2673C4.79714 10.2673 4.02386 11.0547 4.02386 12.0143C4.02386 12.7302 4.45334 13.3315 5.05498 13.6038C5.02616 13.7754 5.01201 13.9473 5.01201 14.1336C5.01201 16.8255 8.14807 19.0167 12.0144 19.0167C15.8808 19.0167 19.0169 16.84 19.0169 14.1336C19.0169 13.9617 19.0024 13.7754 18.9739 13.6038C19.5753 13.3315 20.0047 12.7157 20.0047 11.9999ZM8.00464 13.2457C8.00464 12.5584 8.56304 12 9.25063 12C9.93795 12 10.4964 12.5584 10.4964 13.2457C10.4964 13.933 9.93795 14.4917 9.25063 14.4917C8.56304 14.5058 8.00464 13.933 8.00464 13.2457ZM12.0145 17.4701C12.4869 17.4701 14.1194 17.4127 14.9786 16.5535C15.0932 16.4246 15.0932 16.2241 14.9786 16.0952C14.8497 15.9665 14.6493 15.9665 14.5203 16.0952C13.9905 16.6395 12.8307 16.8255 12.0145 16.8255C11.1982 16.8255 10.0526 16.6395 9.50835 16.0952C9.37943 15.9665 9.17897 15.9665 9.05005 16.0952C8.92139 16.2241 8.92139 16.4246 9.05005 16.5535C9.89512 17.3983 11.5276 17.4701 12.0145 17.4701ZM14.7493 14.5058C14.062 14.5058 13.5036 13.9474 13.5036 13.2601C13.5036 12.5727 14.062 12.0143 14.7493 12.0143C15.4369 12.0143 15.9953 12.5727 15.9953 13.2601C15.9953 13.933 15.4369 14.5058 14.7493 14.5058Z" fill="black"/>
</svg>
