<svg width="24" height="24" xmlns="http://www.w3.org/2000/svg"><path d="M14.104 22.08c.398-.124.816.116.933.539.117.421-.11.865-.508.989-.8.255-1.632.388-2.471.392h-.1a8.287 8.287 0 0 1-2.489-.396c-.397-.126-.623-.57-.505-.992.118-.42.537-.66.934-.536a6.849 6.849 0 0 0 2.06.331h.1a6.86 6.86 0 0 0 2.046-.327zm5.498-16.213c.713 2.201.458 5.157-.683 7.91-1.557 3.756-4.382 6.365-6.883 6.365h-.07c-2.503 0-5.328-2.609-6.884-6.365-1.142-2.753-1.397-5.709-.684-7.911C5.458 2.357 8.512 0 11.999 0c3.477 0 6.524 2.345 7.593 5.838l.005.014.002.006.002.008h.001zm-1.828 7.376a12.84 12.84 0 0 1-1.82 3.106c.505-2.106.263-4.826-.832-7.467-.572-1.38-1.33-2.622-2.211-3.635 1.377-1.18 2.811-1.566 3.92-1.022.71.348 1.259 1.061 1.585 2.062.617 1.895.377 4.495-.642 6.956zm-11.547 0c-1.02-2.46-1.26-5.06-.641-6.956.326-1 .873-1.714 1.583-2.062 1.109-.543 2.544-.158 3.92 1.022-.88 1.013-1.638 2.254-2.21 3.635-1.095 2.64-1.338 5.362-.832 7.467a12.84 12.84 0 0 1-1.82-3.106zm6.806 5.329a2.401 2.401 0 0 1-1.033.242 2.401 2.401 0 0 1-1.033-.242c-2.134-1.047-2.566-5.24-.942-9.156.514-1.243 1.19-2.357 1.974-3.26.784.903 1.462 2.016 1.977 3.26 1.624 3.916 1.192 8.11-.943 9.156zM12 19.409l.001.058v.058-.116zm3.93-16.747c-1.264-.056-2.642.518-3.929 1.662-1.288-1.144-2.667-1.719-3.932-1.663A6.48 6.48 0 0 1 12 1.328c1.452 0 2.815.487 3.93 1.333v.001z" fill="#5e6175" fill-rule="evenodd"/></svg>
