<svg width="199" height="30" xmlns="http://www.w3.org/2000/svg" xmlns:xlink="http://www.w3.org/1999/xlink">
  <defs>
    <linearGradient x1="0%" y1="50.706%" y2="50.706%" id="a">
      <stop stop-color="#F50" offset="0%"/>
      <stop stop-color="#F50" offset="40.988%"/>
      <stop stop-color="#FF2000" offset="58.198%"/>
      <stop stop-color="#FF2000" offset="100%"/>
    </linearGradient>
    <linearGradient x1="2.148%" y1="50.706%" y2="50.706%" id="c">
      <stop stop-color="#FF452A" offset="0%"/>
      <stop stop-color="#FF2000" offset="100%"/>
    </linearGradient>
    <path d="M19.954 2.97L17.34 0H8.16L5.546 2.97s-2.295-.64-3.378.446c0 0 3.06-.277 4.111 1.436 0 0 2.837.543 3.22.543.382 0 1.211-.32 1.976-.575.765-.255 1.275-.257 1.275-.257s.51.002 1.275.257c.765.255 1.594.575 1.976.575.383 0 3.22-.543 3.22-.543 1.052-1.713 4.112-1.436 4.112-1.436-1.084-1.085-3.38-.447-3.38-.447" id="b"/>
  </defs>
  <g fill="none">
    <g transform="translate(.357)">
      <path d="M24.608 7.182l.7-1.724s-.892-.957-1.975-2.042c-1.084-1.085-3.38-.447-3.38-.447L17.34 0H8.16L5.546 2.97s-2.295-.64-3.378.446A92.516 92.516 0 0 0 .19 5.458l.702 1.724L0 9.735s2.625 9.955 2.933 11.17c.605 2.394 1.02 3.32 2.74 4.532 1.722 1.213 4.846 3.32 5.356 3.638.51.32 1.147.863 1.721.863.574 0 1.211-.543 1.721-.863.51-.319 3.634-2.425 5.355-3.638 1.722-1.213 2.136-2.138 2.742-4.532.307-1.215 2.932-11.17 2.932-11.17l-.892-2.553z" fill="url(#a)"/>
      <path d="M19.22 4.852s3.363 4.07 3.363 4.939c0 .87-.423 1.1-.849 1.551l-2.52 2.68c-.239.254-.735.638-.443 1.33.292.692.723 1.573.243 2.466-.479.893-1.3 1.49-1.825 1.39-.526-.098-1.761-.744-2.216-1.04-.454-.295-1.894-1.483-1.894-1.938 0-.455 1.489-1.272 1.763-1.457.275-.186 1.53-.904 1.555-1.186.026-.282.016-.364-.354-1.06-.37-.697-1.037-1.627-.926-2.245.111-.619 1.186-.94 1.953-1.23.767-.29 2.244-.838 2.428-.923.185-.085.137-.167-.422-.22-.559-.053-2.144-.263-2.86-.064-.714.2-1.936.503-2.035.664-.099.161-.186.167-.084.722.101.555.624 3.22.675 3.693.051.473.15.786-.36.903-.51.117-1.367.32-1.662.32-.295 0-1.153-.203-1.663-.32-.51-.117-.41-.43-.36-.903.052-.473.575-3.138.676-3.693.102-.555.015-.56-.084-.722-.1-.16-1.32-.464-2.036-.664-.715-.2-2.3.011-2.86.064-.558.053-.606.135-.421.22.184.085 1.661.633 2.428.923.767.29 1.842.611 1.953 1.23.11.618-.556 1.548-.926 2.244-.37.697-.38.78-.354 1.061.026.282 1.28 1 1.554 1.186.275.185 1.763 1.002 1.763 1.457 0 .455-1.439 1.643-1.893 1.939-.454.295-1.69.941-2.216 1.04-.526.098-1.346-.498-1.825-1.391-.48-.893-.049-1.774.243-2.466.292-.692-.204-1.076-.443-1.33l-2.52-2.68c-.426-.452-.849-.681-.849-1.551 0-.87 3.362-4.939 3.362-4.939s2.837.543 3.22.543c.382 0 1.211-.32 1.976-.575.765-.255 1.275-.257 1.275-.257s.51.002 1.275.257c.765.255 1.594.575 1.976.575.383 0 3.22-.543 3.22-.543zM16.7 20.417c.208.13.081.377-.108.51-.19.135-2.737 2.11-2.984 2.329-.248.218-.611.578-.858.578s-.61-.36-.858-.578c-.247-.219-2.794-2.194-2.984-2.328-.19-.134-.316-.38-.108-.51.208-.131.859-.46 1.757-.926.899-.465 2.018-.86 2.193-.86.175 0 1.294.395 2.193.86.898.466 1.55.795 1.757.925z" fill="#FFF"/>
      <use fill="url(#c)" xlink:href="#b"/>
    </g>
    <path d="M46.076 17.468c0-1.32-.946-2.112-2.442-2.112h-3.036v4.136H43.7c1.496 0 2.376-.726 2.376-2.024zm-.374-6.402c0-1.232-.836-1.936-2.288-1.936h-2.816v3.85h2.816c1.452 0 2.288-.66 2.288-1.914zm3.498 6.776c0 2.442-1.87 4.158-5.06 4.158h-6.622V6.644h6.336c3.212 0 4.994 1.672 4.994 3.96 0 1.87-1.122 3.036-2.618 3.52 1.738.308 2.97 1.914 2.97 3.718zm5.244-1.914V22h-3.08V9.812h3.08v1.892c.77-1.254 2.046-2.068 3.74-2.068v3.234h-.814c-1.826 0-2.926.704-2.926 3.058zm4.716-.066c0-3.806 2.464-6.248 5.566-6.248 1.958 0 3.3.924 4.026 1.936V9.812h3.102V22h-3.102v-1.782c-.726 1.056-2.112 1.98-4.048 1.98-3.08 0-5.544-2.53-5.544-6.336zm9.592.044c0-2.31-1.54-3.586-3.234-3.586-1.65 0-3.212 1.232-3.212 3.542 0 2.31 1.562 3.63 3.212 3.63 1.694 0 3.234-1.276 3.234-3.586zm4.518-6.094h3.3l3.08 9.35 3.08-9.35h3.278L81.498 22h-3.74L73.27 9.812zm19.412 2.332c-1.474 0-2.64.946-2.882 2.618h5.786c-.044-1.606-1.32-2.618-2.904-2.618zm5.786 6.028c-.66 2.244-2.684 4.026-5.698 4.026-3.542 0-6.116-2.464-6.116-6.292 0-3.85 2.508-6.292 6.116-6.292 3.52 0 6.006 2.398 6.006 6.028 0 .396-.022.792-.088 1.188h-8.91c.154 1.804 1.386 2.816 2.926 2.816 1.32 0 2.046-.66 2.442-1.474h3.322zm15.328-6.754c0-1.364-.77-2.222-2.486-2.222h-2.574v4.51h2.574c1.716 0 2.486-.902 2.486-2.288zm-8.14-4.774h5.764c3.696 0 5.544 2.134 5.544 4.708 0 1.87-1.034 3.762-3.498 4.422L117.14 22h-3.564l-3.388-5.984h-1.452V22h-3.08V6.644zm19.038 5.5c-1.474 0-2.64.946-2.882 2.618h5.786c-.044-1.606-1.32-2.618-2.904-2.618zm5.786 6.028c-.66 2.244-2.684 4.026-5.698 4.026-3.542 0-6.116-2.464-6.116-6.292 0-3.85 2.508-6.292 6.116-6.292 3.52 0 6.006 2.398 6.006 6.028 0 .396-.022.792-.088 1.188h-8.91c.154 1.804 1.386 2.816 2.926 2.816 1.32 0 2.046-.66 2.442-1.474h3.322zM134.954 22l-3.586-12.188h3.124l2.156 9.284 2.332-9.284h3.256l2.288 9.262 2.156-9.262h2.948L146.064 22h-3.322l-2.222-8.514L138.298 22h-3.344zm15.254-6.138c0-3.806 2.464-6.248 5.566-6.248 1.958 0 3.3.924 4.026 1.936V9.812h3.102V22H159.8v-1.782c-.726 1.056-2.112 1.98-4.048 1.98-3.08 0-5.544-2.53-5.544-6.336zm9.592.044c0-2.31-1.54-3.586-3.234-3.586-1.65 0-3.212 1.232-3.212 3.542 0 2.31 1.562 3.63 3.212 3.63 1.694 0 3.234-1.276 3.234-3.586zm8.896.022V22h-3.08V9.812h3.08v1.892c.77-1.254 2.046-2.068 3.74-2.068v3.234h-.814c-1.826 0-2.926.704-2.926 3.058zm4.716-.066c0-3.806 2.464-6.248 5.588-6.248 1.606 0 3.146.748 3.982 1.892V5.72h3.124V22h-3.124v-1.804c-.726 1.122-2.09 2.002-4.004 2.002-3.102 0-5.566-2.53-5.566-6.336zm9.592.044c0-2.31-1.54-3.586-3.234-3.586-1.65 0-3.212 1.232-3.212 3.542 0 2.31 1.562 3.63 3.212 3.63 1.694 0 3.234-1.276 3.234-3.586zm15.276 2.618c0 2.09-1.826 3.674-4.796 3.674-3.058 0-5.192-1.782-5.324-4.048h3.102c.11.924.968 1.628 2.2 1.628 1.21 0 1.87-.55 1.87-1.254 0-2.178-6.886-.792-6.886-5.258 0-2.024 1.804-3.652 4.818-3.652 2.948 0 4.73 1.606 4.906 4.026h-2.948c-.088-.946-.836-1.584-2.046-1.584-1.144 0-1.738.462-1.738 1.166 0 2.222 6.754.836 6.842 5.302z" fill="#FFF"/>
  </g>
</svg>