<svg width="244" height="23" xmlns="http://www.w3.org/2000/svg" xmlns:xlink="http://www.w3.org/1999/xlink"><defs><linearGradient x1="0%" y1="50.706%" y2="50.706%" id="linearGradient-1"><stop stop-color="#F50" offset="0%"/><stop stop-color="#F50" offset="40.988%"/><stop stop-color="#FF2000" offset="58.198%"/><stop stop-color="#FF2000" offset="100%"/></linearGradient><linearGradient x1="2.148%" y1="50.706%" y2="50.706%" id="linearGradient-2"><stop stop-color="#FF452A" offset="0%"/><stop stop-color="#FF2000" offset="100%"/></linearGradient><path d="M15.963 2.276L13.872 0H6.528L4.437 2.276s-1.836-.49-2.703.343c0 0 2.448-.212 3.29 1.1 0 0 2.269.417 2.575.417.306 0 .969-.245 1.581-.44.612-.196 1.02-.198 1.02-.198s.408.002 1.02.197c.612.196 1.275.44 1.581.44.306 0 2.576-.415 2.576-.415.841-1.313 3.289-1.101 3.289-1.101-.867-.832-2.703-.343-2.703-.343" id="path-3"/></defs><g id="Symbols"><g id="Frame" transform="translate(-26 -32)"><g id="Group"><g id="Subdomains/Rewards/Creators/Reversed" transform="translate(25 32)"><path d="M167.738 1.896c0-.2.223-.363.5-.363.276 0 .5.163.5.363v19.208c0 .2-.224.363-.5.363-.277 0-.5-.163-.5-.363V1.896z" id="Line" fill="#FFF"/><g id="Build-Icons/Stable"><g id="Logo" transform="translate(1.886)"><path d="M19.686 5.506l.561-1.321s-.714-.734-1.581-1.566c-.867-.832-2.703-.343-2.703-.343L13.872 0H6.528L4.437 2.276s-1.836-.49-2.703.343C.867 3.45.153 4.185.153 4.185l.561 1.321L0 7.464s2.1 7.631 2.346 8.563c.485 1.835.816 2.545 2.193 3.475 1.377.93 3.876 2.544 4.284 2.79.408.244.918.66 1.377.66.459 0 .969-.416 1.377-.66.408-.246 2.907-1.86 4.284-2.79 1.377-.93 1.709-1.64 2.193-3.475.246-.932 2.346-8.563 2.346-8.563l-.714-1.958z" id="Head" fill="url(#linearGradient-1)"/><path d="M15.377 3.72s2.689 3.12 2.689 3.786c0 .667-.338.843-.678 1.19L15.37 10.75c-.19.195-.588.49-.354 1.02.233.53.578 1.206.195 1.89-.384.685-1.04 1.142-1.461 1.067-.42-.076-1.409-.571-1.772-.798-.364-.226-1.515-1.138-1.515-1.486 0-.349 1.19-.975 1.41-1.117.22-.142 1.223-.693 1.244-.91.02-.215.012-.279-.284-.813-.296-.534-.829-1.246-.74-1.72.089-.475.948-.721 1.562-.943.614-.223 1.795-.643 1.943-.708.147-.065.11-.127-.338-.168-.447-.04-1.716-.202-2.288-.05-.572.154-1.549.386-1.628.51-.08.123-.149.127-.068.553.082.426.5 2.469.54 2.832.041.362.12.602-.287.692-.408.09-1.094.244-1.33.244s-.922-.155-1.33-.244c-.408-.09-.328-.33-.288-.692.04-.363.46-2.406.54-2.832.082-.426.012-.43-.067-.553-.08-.124-1.056-.356-1.628-.51-.572-.152-1.841.01-2.288.05-.447.04-.485.103-.338.168.148.065 1.33.485 1.943.708.613.222 1.473.468 1.562.943.089.474-.444 1.186-.74 1.72s-.304.598-.284.814c.02.216 1.024.767 1.244.909.22.142 1.41.768 1.41 1.117 0 .348-1.151 1.26-1.515 1.486-.363.227-1.351.722-1.772.798-.42.075-1.077-.382-1.46-1.067-.384-.684-.04-1.36.194-1.89.234-.53-.163-.825-.354-1.02L3.012 8.696c-.34-.347-.678-.523-.678-1.19 0-.666 2.69-3.786 2.69-3.786s2.269.416 2.575.416c.306 0 .969-.245 1.581-.44.612-.196 1.02-.198 1.02-.198s.408.002 1.02.197c.612.196 1.275.44 1.581.44.306 0 2.576-.415 2.576-.415zM13.36 15.653c.167.1.065.289-.086.392a123.05 123.05 0 0 0-2.388 1.784c-.198.168-.488.444-.686.444-.198 0-.488-.276-.686-.444a123.206 123.206 0 0 0-2.388-1.784c-.151-.103-.253-.292-.086-.392.166-.1.687-.352 1.406-.709.718-.357 1.614-.66 1.754-.66.14 0 1.035.303 1.754.66.719.357 1.24.61 1.406.71z" id="Face" fill="#FFF"/><mask id="mask-4" fill="#fff"><use xlink:href="#path-3"/></mask><use id="Top-Head" fill="url(#linearGradient-2)" xlink:href="#path-3"/></g></g><path d="M178.762 11.492c0-3.137 2.41-5.359 5.48-5.359 2.379 0 4.268 1.141 5.087 3.168h-1.716c-.599-1.261-1.764-1.967-3.37-1.967-2.3 0-4.016 1.592-4.016 4.158 0 2.552 1.717 4.144 4.016 4.144 1.606 0 2.771-.706 3.37-1.952h1.716c-.819 2.012-2.708 3.138-5.086 3.138-3.071 0-5.48-2.192-5.48-5.33zm13.912.766v4.474h-1.433V8.505h1.433v1.336c.488-.915 1.417-1.486 2.787-1.486v1.411h-.378c-1.37 0-2.41.586-2.41 2.492zm7.895-2.732c-1.401 0-2.567.886-2.724 2.492h5.448c.016-1.606-1.244-2.492-2.724-2.492zm4.032 4.669c-.441 1.5-1.827 2.672-3.969 2.672-2.457 0-4.268-1.652-4.268-4.264 0-2.597 1.748-4.233 4.268-4.233 2.504 0 4.142 1.681 4.142 3.933 0 .3-.016.54-.047.826h-6.898c.11 1.666 1.339 2.582 2.803 2.582 1.291 0 2.11-.63 2.425-1.516h1.544zm1.312-1.607c0-2.567 1.78-4.218 4.095-4.218 1.606 0 2.708.78 3.212 1.636v-1.5h1.45v8.226h-1.45V15.2c-.52.886-1.637 1.667-3.228 1.667-2.3 0-4.079-1.727-4.079-4.279zm7.307.015c0-1.906-1.354-3.047-2.929-3.047-1.575 0-2.913 1.096-2.913 3.032 0 1.937 1.338 3.078 2.913 3.078 1.575 0 2.93-1.126 2.93-3.063zm3.975 1.877V9.63h-1.118V8.505h1.118V6.434h1.433v2.071h2.252v1.126h-2.252v4.849c0 .81.315 1.096 1.197 1.096h1.055v1.156h-1.292c-1.527 0-2.393-.6-2.393-2.252zm13.391-1.877c0 2.612-1.968 4.264-4.425 4.264-2.441 0-4.3-1.652-4.3-4.264 0-2.597 1.922-4.233 4.363-4.233 2.457 0 4.362 1.636 4.362 4.233zm-7.26 0c0 2.087 1.339 3.063 2.835 3.063s2.96-.976 2.96-3.063c0-2.071-1.433-3.047-2.913-3.047-1.512 0-2.882.976-2.882 3.047zm10.368-.345v4.474h-1.433V8.505h1.433v1.336c.488-.915 1.417-1.486 2.788-1.486v1.411h-.378c-1.37 0-2.41.586-2.41 2.492zm10.431 2.237c0 1.35-1.244 2.372-3.15 2.372-2.015 0-3.433-1.051-3.527-2.552h1.48c.079.795.82 1.396 2.032 1.396 1.134 0 1.763-.54 1.763-1.216 0-1.832-5.102-.766-5.102-3.828 0-1.261 1.244-2.297 3.165-2.297 1.906 0 3.166.976 3.26 2.582h-1.433c-.063-.826-.724-1.426-1.874-1.426-1.055 0-1.685.48-1.685 1.14 0 1.952 5.008.887 5.071 3.829z" id="RR" fill="#FFF"/><path d="M37.462 13.346c0-.983-.746-1.573-1.926-1.573h-2.394v3.08h2.446c1.18 0 1.874-.541 1.874-1.507zm-.295-4.766c0-.917-.66-1.442-1.805-1.442h-2.22v2.867h2.22c1.146 0 1.805-.492 1.805-1.425zm2.759 5.044c0 1.818-1.475 3.095-3.991 3.095h-5.223V5.288h4.997c2.534 0 3.94 1.245 3.94 2.948 0 1.392-.886 2.26-2.066 2.62a2.813 2.813 0 0 1 2.343 2.768zm4.135-1.425v4.52h-2.429V7.646h2.43v1.409c.607-.934 1.613-1.54 2.95-1.54v2.408h-.643c-1.44 0-2.308.524-2.308 2.276zm3.72-.049c0-2.833 1.943-4.651 4.39-4.651 1.544 0 2.602.688 3.175 1.441V7.646h2.446v9.073h-2.446v-1.326c-.573.786-1.666 1.474-3.193 1.474-2.429 0-4.372-1.884-4.372-4.717zm7.565.033c0-1.72-1.215-2.67-2.55-2.67-1.302 0-2.534.917-2.534 2.637s1.232 2.702 2.533 2.702c1.336 0 2.55-.95 2.55-2.67zm3.563-4.537h2.602l2.43 6.96 2.429-6.96h2.585l-3.557 9.073h-2.95l-3.54-9.073zm15.31 1.736c-1.163 0-2.083.704-2.273 1.95h4.563c-.035-1.196-1.041-1.95-2.29-1.95zm4.563 4.488c-.52 1.67-2.117 2.997-4.494 2.997-2.794 0-4.824-1.835-4.824-4.684 0-2.866 1.978-4.684 4.824-4.684 2.776 0 4.737 1.785 4.737 4.487 0 .295-.018.59-.07.885h-7.027c.122 1.343 1.093 2.096 2.308 2.096 1.04 0 1.613-.491 1.926-1.097h2.62zM90.87 8.842c0-1.016-.607-1.654-1.96-1.654h-2.03v3.357h2.03c1.353 0 1.96-.671 1.96-1.703zm-6.42-3.554h4.546c2.915 0 4.373 1.588 4.373 3.505 0 1.392-.816 2.8-2.759 3.291l2.898 4.635h-2.811l-2.672-4.454H86.88v4.454h-2.43V5.288zm15.015 4.094c-1.162 0-2.082.704-2.273 1.95h4.564c-.035-1.196-1.042-1.95-2.29-1.95zm4.563 4.488c-.52 1.67-2.116 2.997-4.493 2.997-2.794 0-4.824-1.835-4.824-4.684 0-2.866 1.978-4.684 4.824-4.684 2.776 0 4.736 1.785 4.736 4.487 0 .295-.017.59-.069.885h-7.027c.121 1.343 1.093 2.096 2.308 2.096 1.04 0 1.613-.491 1.926-1.097h2.62zm3.529 2.85l-2.828-9.074h2.464l1.7 6.911 1.84-6.91h2.567l1.804 6.894 1.7-6.895h2.326l-2.811 9.073h-2.62l-1.752-6.338-1.753 6.338h-2.637zm12.03-4.57c0-2.833 1.944-4.651 4.39-4.651 1.544 0 2.603.688 3.175 1.441V7.646h2.447v9.073h-2.447v-1.326c-.572.786-1.666 1.474-3.192 1.474-2.43 0-4.373-1.884-4.373-4.717zm7.565.033c0-1.72-1.214-2.67-2.55-2.67-1.302 0-2.534.917-2.534 2.637s1.232 2.702 2.534 2.702c1.336 0 2.55-.95 2.55-2.67zm7.016.016v4.52h-2.429V7.646h2.43v1.409c.606-.934 1.613-1.54 2.949-1.54v2.408h-.642c-1.44 0-2.308.524-2.308 2.276zm3.72-.049c0-2.833 1.943-4.651 4.407-4.651 1.266 0 2.48.557 3.14 1.408V4.6h2.464v12.12h-2.464v-1.344c-.573.836-1.648 1.49-3.158 1.49-2.446 0-4.39-1.883-4.39-4.716zm7.564.033c0-1.72-1.214-2.67-2.55-2.67-1.302 0-2.533.917-2.533 2.637s1.231 2.702 2.533 2.702c1.336 0 2.55-.95 2.55-2.67zm12.048 1.949c0 1.555-1.44 2.735-3.782 2.735-2.412 0-4.095-1.327-4.2-3.014h2.447c.087.688.764 1.212 1.735 1.212.954 0 1.475-.41 1.475-.933 0-1.622-5.43-.59-5.43-3.915 0-1.506 1.422-2.718 3.8-2.718 2.324 0 3.73 1.195 3.868 2.997h-2.325c-.07-.704-.66-1.18-1.613-1.18-.903 0-1.371.345-1.371.869 0 1.654 5.327.622 5.396 3.947z" id="RR-Copy" fill="#FFF"/></g></g></g></g></svg>