<svg width="79" height="24" viewBox="0 0 79 24" fill="none" xmlns="http://www.w3.org/2000/svg">
<path fill-rule="evenodd" clip-rule="evenodd" d="M19.9845 5.74545L20.5468 4.36672C20.5468 4.36672 19.8311 3.60077 18.962 2.73268C18.093 1.8646 16.2526 2.37523 16.2526 2.37523L14.1566 0H10.4759H6.79513L4.69915 2.37523C4.69915 2.37523 2.85878 1.8646 1.98972 2.73268C1.12065 3.60077 0.404951 4.36672 0.404951 4.36672L0.967287 5.74545L0.251587 7.788C0.251587 7.788 2.35651 15.7517 2.60317 16.7242C3.08883 18.6391 3.42112 19.3795 4.8014 20.3497C6.18168 21.3199 8.68663 23.005 9.0956 23.2603C9.50457 23.5157 10.0158 23.9506 10.4759 23.9506C10.936 23.9506 11.4472 23.5157 11.8562 23.2603C12.2651 23.005 14.7701 21.3199 16.1504 20.3497C17.5306 19.3795 17.8629 18.6391 18.3486 16.7242C18.5952 15.7517 20.7002 7.788 20.7002 7.788L19.9845 5.74545Z" fill="url(#paint0_linear_7132_11665)"/>
<path d="M13.083 4.3157C13.3898 4.3157 15.6647 3.88166 15.6647 3.88166C15.6647 3.88166 18.3606 7.13698 18.3606 7.83272C18.3606 8.40797 18.1288 8.63312 17.8557 8.89829C17.7985 8.95383 17.7395 9.01113 17.6805 9.07378L15.659 11.2179C15.639 11.2392 15.6167 11.2616 15.5931 11.2853C15.3913 11.4879 15.0942 11.7863 15.3038 12.2819C15.3179 12.315 15.3323 12.3487 15.3469 12.3829C15.5768 12.9198 15.8605 13.5827 15.4993 14.2544C15.1151 14.9689 14.4569 15.4458 14.0352 15.3669C13.6134 15.288 12.6229 14.771 12.2587 14.5348C11.8945 14.2987 10.74 13.3477 10.74 12.9838C10.74 12.6803 11.5703 12.1754 11.9736 11.9301C12.0539 11.8814 12.1172 11.8428 12.1538 11.8182C12.1954 11.7902 12.2651 11.747 12.3508 11.6938C12.719 11.4653 13.3838 11.0527 13.4005 10.8698C13.421 10.6442 13.4132 10.5781 13.1165 10.0209C13.0534 9.90242 12.9795 9.7755 12.9032 9.64435C12.6206 9.15868 12.3042 8.61486 12.3742 8.2253C12.4533 7.78555 13.1431 7.53343 13.7274 7.31986C13.8005 7.29317 13.8718 7.26708 13.9402 7.2413C14.1107 7.17698 14.325 7.0968 14.5488 7.01305C15.1322 6.79477 15.7804 6.55225 15.8873 6.50302C16.0353 6.43485 15.9971 6.36995 15.5489 6.32751C15.4896 6.3219 15.4159 6.31407 15.3312 6.30509C14.7765 6.2462 13.7532 6.13759 13.2558 6.27609C13.1579 6.30333 13.0482 6.333 12.9332 6.36411C12.3743 6.51529 11.6894 6.70056 11.6236 6.80736C11.6121 6.82605 11.6008 6.84211 11.5901 6.85728C11.5272 6.94666 11.4861 7.00494 11.5558 7.38474C11.5765 7.49784 11.6191 7.72031 11.6719 7.99537C11.8263 8.80076 12.0671 10.0571 12.0974 10.3393C12.1017 10.3788 12.1063 10.417 12.1108 10.4536C12.1495 10.7685 12.1752 10.978 11.8091 11.0616C11.7786 11.0686 11.7466 11.0759 11.7133 11.0836C11.3002 11.1783 10.6946 11.3171 10.4758 11.3171C10.2569 11.3171 9.65087 11.1781 9.23782 11.0834C9.20474 11.0759 9.17289 11.0686 9.14259 11.0616C8.77646 10.978 8.80216 10.7685 8.84079 10.4536C8.84528 10.4169 8.84996 10.3788 8.85421 10.3393C8.88462 10.0567 9.12605 8.79729 9.28041 7.99203C9.33284 7.7185 9.37523 7.49738 9.39589 7.38474C9.46551 7.00497 9.42447 6.94667 9.36156 6.8573C9.35088 6.84213 9.33956 6.82605 9.32805 6.80736C9.26226 6.70056 8.57738 6.51531 8.01849 6.36414C7.90344 6.33302 7.79372 6.30334 7.69585 6.27609C7.19841 6.1376 6.17529 6.24619 5.62046 6.30508C5.53581 6.31407 5.46206 6.3219 5.40274 6.32751C4.95461 6.36995 4.91637 6.43485 5.06432 6.50302C5.17121 6.55224 5.81909 6.79464 6.40236 7.01287C6.62636 7.09668 6.84084 7.17693 7.01149 7.2413C7.07985 7.26709 7.15126 7.2932 7.22433 7.3199C7.8086 7.53346 8.49837 7.78558 8.57744 8.2253C8.64746 8.6148 8.33112 9.15851 8.04857 9.64412C7.97222 9.77536 7.89833 9.90235 7.83521 10.0209C7.53844 10.5781 7.53057 10.6442 7.55117 10.8698C7.56784 11.0527 8.2324 11.4651 8.60062 11.6936C8.68643 11.7469 8.75615 11.7902 8.79782 11.8182C8.83437 11.8428 8.89766 11.8813 8.97781 11.93C9.38115 12.1753 10.2116 12.6803 10.2116 12.9838C10.2116 13.3477 9.05721 14.2987 8.69297 14.5348C8.32873 14.771 7.33825 15.288 6.9165 15.3669C6.49475 15.4458 5.83656 14.9689 5.45233 14.2544C5.09117 13.5827 5.37485 12.9199 5.60466 12.383C5.61931 12.3488 5.63374 12.3151 5.64777 12.2819C5.85745 11.7863 5.56027 11.4878 5.35847 11.2852C5.33488 11.2615 5.3126 11.2391 5.29258 11.2179L3.27113 9.07378C3.21209 9.01115 3.1531 8.95386 3.09592 8.89832C2.82289 8.63314 2.59106 8.40799 2.59106 7.83272C2.59106 7.13698 5.28701 3.88166 5.28701 3.88166C5.28701 3.88166 7.56191 4.3157 7.86864 4.3157C8.1134 4.3157 8.58601 4.15313 9.07869 3.98366C9.20343 3.94075 9.32946 3.89739 9.4534 3.85613C10.0669 3.65187 10.4758 3.65039 10.4758 3.65039C10.4758 3.65039 10.8848 3.65187 11.4983 3.85613C11.6222 3.89739 11.7482 3.94075 11.873 3.98366C12.3657 4.15313 12.8383 4.3157 13.083 4.3157Z" fill="white"/>
<path d="M12.6925 15.8301C13.1734 16.0777 13.5146 16.2533 13.6436 16.3339C13.8105 16.4383 13.7087 16.635 13.5567 16.7424C13.4047 16.8497 11.3618 18.4298 11.1636 18.6044C11.1382 18.6268 11.1113 18.651 11.0833 18.6762C10.8922 18.8482 10.6486 19.0676 10.4758 19.0676C10.303 19.0676 10.0592 18.8481 9.86813 18.676C9.84019 18.6509 9.81338 18.6267 9.78809 18.6044C9.58979 18.4298 7.54697 16.8497 7.39494 16.7424C7.2429 16.635 7.14117 16.4383 7.30803 16.3339C7.43711 16.2532 7.77862 16.0774 8.26001 15.8297C8.4011 15.757 8.5542 15.6782 8.7175 15.5938C9.43785 15.2215 10.3357 14.9049 10.4758 14.9049C10.6159 14.9049 11.5137 15.2215 12.2342 15.5938C12.3978 15.6784 12.5512 15.7574 12.6925 15.8301Z" fill="white"/>
<path fill-rule="evenodd" clip-rule="evenodd" d="M25.8 13.0804V4.76367H26.5994C27.2507 4.76367 27.7787 5.28912 27.7787 5.9373V9.63517C29.0598 8.49763 30.1493 8.04227 31.6013 8.01306C34.3862 7.95635 36.8034 10.0149 37.0331 12.778C37.3076 16.079 34.8956 18.5637 31.7532 18.5637C28.3036 18.5637 25.8 16.4346 25.8 13.0804ZM27.7459 13.7334C27.941 15.4518 29.5899 16.8711 31.3285 16.8986C33.5938 16.933 35.1373 15.4638 35.1373 13.2901C35.1373 11.1164 33.6283 9.68157 31.4269 9.68157C29.0736 9.67641 27.4783 11.3776 27.7459 13.7334Z" fill="white"/>
<path fill-rule="evenodd" clip-rule="evenodd" d="M40.3343 8.22189V9.7031C41.5792 8.32843 42.3164 7.95898 43.7736 7.95898C44.1975 7.95944 44.6207 7.99334 45.0392 8.06037V10.0279C44.5926 9.90569 44.1314 9.84442 43.6683 9.84572C42.6134 9.84572 41.7276 10.1894 41.0785 10.8389C40.5087 11.4077 40.3395 11.8527 40.3395 12.7463V18.2244H38.2883V8.22189H40.3343Z" fill="white"/>
<path fill-rule="evenodd" clip-rule="evenodd" d="M45.5259 11.5297C45.6313 10.5554 45.8212 10.0279 46.2425 9.52096C47.0868 8.48995 48.6061 7.95898 50.7574 7.95898C52.4667 7.95898 53.7116 8.22361 54.5766 8.79066C55.2948 9.25633 55.5901 9.94711 55.5901 11.1637V15.6056C55.5901 16.5799 55.8439 16.9236 56.5397 16.9047C56.6951 16.8992 56.8502 16.8854 57.0041 16.8634V18.202C56.6582 18.3197 56.2939 18.3744 55.9285 18.3635C54.6422 18.3635 54.0517 17.9786 53.6511 16.8617C52.3856 18.0182 51.0768 18.5044 49.2001 18.5044C46.6896 18.5044 45.1496 17.3686 45.1496 15.5214C45.1386 14.468 45.7612 13.5101 46.7311 13.0882C47.4908 12.7635 47.9552 12.6621 50.1272 12.4387C51.9833 12.2566 52.301 12.2153 52.8276 12.0521C53.3973 11.8699 53.6511 11.5658 53.6511 11.0589C53.6511 9.98319 52.7447 9.4969 50.8455 9.4969C49.0499 9.4969 48.1244 9.85088 47.7532 10.7547C47.5693 11.2169 47.1218 11.5216 46.6223 11.5245L45.5259 11.5297ZM53.6408 13.2343C52.3395 13.611 51.0032 13.8556 49.6524 13.9646C47.8171 14.1467 47.2473 14.4921 47.2473 15.4045C47.2473 16.4184 48.0916 16.951 49.7577 16.951C51.1286 16.951 52.1628 16.6074 52.9018 15.9372C53.4923 15.3891 53.6408 15.0042 53.6408 14.047V13.2343Z" fill="white"/>
<path fill-rule="evenodd" clip-rule="evenodd" d="M61.956 18.2225H61.4277C60.9622 18.2254 60.5365 17.9621 60.333 17.5455L55.9078 8.22178H57.1371C57.8535 8.21608 58.5056 8.63193 58.7998 9.28199L61.7522 15.9835L64.8031 9.25622C65.1016 8.61639 65.7483 8.20925 66.4571 8.2149H67.5742L63.0454 17.5558C62.8399 17.9667 62.4172 18.2254 61.956 18.2225Z" fill="white"/>
<path fill-rule="evenodd" clip-rule="evenodd" d="M68.9606 13.7996C69.1713 15.7276 70.6872 16.9236 72.9473 16.9236C74.2301 16.9236 75.1918 16.5438 75.7875 15.786C76.1349 15.3515 76.6625 15.0984 77.2205 15.0987H78.4101C77.3742 17.3703 75.5199 18.4873 72.7556 18.4873C69.3025 18.4873 66.9751 16.3978 66.9751 13.2738C66.9751 10.1499 69.3595 7.95898 72.7988 7.95898C75.2868 7.95898 77.2879 9.07419 78.0942 10.942C78.4533 11.8012 78.6001 12.5641 78.6001 13.8013L68.9606 13.7996ZM76.5126 12.2531C76.0482 10.4884 74.6773 9.49346 72.7781 9.49346C70.8789 9.49346 69.508 10.4884 69.0228 12.2531H76.5126Z" fill="white"/>
<defs>
<linearGradient id="paint0_linear_7132_11665" x1="0.251587" y1="24.1195" x2="20.7002" y2="24.1195" gradientUnits="userSpaceOnUse">
<stop stop-color="#FF5500"/>
<stop offset="0.333333" stop-color="#FF5500"/>
<stop offset="0.666667" stop-color="#FF2000"/>
<stop offset="1" stop-color="#FF2000"/>
</linearGradient>
</defs>
</svg>
