<?xml version="1.0" encoding="UTF-8"?>
<svg width="130px" height="24px" viewBox="0 0 130 24" version="1.1" xmlns="http://www.w3.org/2000/svg" xmlns:xlink="http://www.w3.org/1999/xlink">
    <!-- Generator: Sketch 53.1 (72631) - https://sketchapp.com -->
    <title>built with BAT</title>
    <desc>Created with Sketch.</desc>
    <defs>
        <polygon id="path-1" points="0.00016 0.39168 129.4032 0.39168 129.4032 9.51808 0.00016 9.51808"></polygon>
        <polygon id="path-3" points="0.126773333 0.512106667 26.93904 0.512106667 26.93904 5.33333333 0.126773333 5.33333333"></polygon>
    </defs>
    <g id="Design" stroke="none" stroke-width="1" fill="none" >
        <g id="pub-landing---Desktop-HD" transform="translate(-1281.000000, -3958.000000)">
            <g id="footer" transform="translate(0.000000, 3930.000000)">
                <g id="built-with-BAT" transform="translate(1281.000000, 28.000000)">
                    <g id="Group-3" transform="translate(0.000000, 9.607200)">
                        <mask id="mask-2" fill="white">
                            <use xlink:href="#path-1"></use>
                        </mask>
                        <g id="Clip-2"></g>
                        <path d="M129.40336,0.39168 L129.40336,1.82528 L126.90736,1.82528 L126.90736,9.42848 L125.10256,9.42848 L125.10256,1.82528 L122.61936,1.82528 L122.61936,0.39168 L129.40336,0.39168 Z M119.26576,6.24181333 L117.935093,2.42688 L116.60336,6.24181333 L119.26576,6.24181333 Z M119.75216,7.61088 L116.12976,7.61088 L115.48976,9.42848 L113.58256,9.42848 L116.91056,0.49408 L118.97136,0.49408 L122.28656,9.42848 L120.379893,9.42848 L119.75216,7.61088 Z M110.754293,7.64341333 C111.010293,7.43381333 111.13776,7.12928 111.13776,6.72768 C111.13776,6.32714667 111.007627,6.01728 110.747893,5.80021333 C110.487093,5.58208 110.118027,5.47328 109.64016,5.47328 L107.93776,5.47328 L107.93776,7.95701333 L109.653493,7.95701333 C110.130827,7.95701333 110.498293,7.85194667 110.754293,7.64341333 L110.754293,7.64341333 Z M107.93776,4.18048 L109.56336,4.18048 C110.015627,4.18048 110.359093,4.08021333 110.59376,3.87968 C110.828427,3.67968 110.946293,3.39168 110.946293,3.01568 C110.946293,2.64074667 110.831093,2.35008 110.600693,2.14528 C110.36976,1.94048 110.015627,1.83808 109.53776,1.83808 L107.93776,1.83808 L107.93776,4.18048 Z M112.488693,5.54368 C112.816693,5.94954667 112.98096,6.42528 112.98096,6.97088 C112.98096,7.73088 112.727093,8.33034667 112.219893,8.76928 C111.71216,9.20874667 110.975627,9.42848 110.011893,9.42848 L106.133493,9.42848 L106.133493,0.39168 L109.935093,0.39168 C110.847627,0.39168 111.549493,0.592213333 112.04016,0.99328 C112.530827,1.39488 112.776693,1.95808 112.776693,2.68288 C112.776693,3.24661333 112.62896,3.70741333 112.335093,4.06581333 C112.04016,4.42421333 111.654027,4.65888 111.176693,4.76928 C111.722293,4.88021333 112.159627,5.13834667 112.488693,5.54368 L112.488693,5.54368 Z M67.3014933,0.39168 L67.3014933,9.42848 L65.4838933,9.42848 L65.4838933,5.49888 L61.6182933,5.49888 L61.6182933,9.42848 L59.8134933,9.42848 L59.8134933,0.39168 L61.6182933,0.39168 L61.6182933,4.05248 L65.4838933,4.05248 L65.4838933,0.39168 L67.3014933,0.39168 Z M58.8150933,0.39168 L58.8150933,1.82528 L56.3190933,1.82528 L56.3190933,9.42848 L54.5142933,9.42848 L54.5142933,1.82528 L52.0310933,1.82528 L52.0310933,0.39168 L58.8150933,0.39168 Z M49.2278933,9.42848 L51.0326933,9.42848 L51.0326933,0.39168 L49.2278933,0.39168 L49.2278933,9.42848 Z M47.9990933,0.39168 L45.7846933,9.42848 L43.5580267,9.42848 L41.8684267,2.87488 L40.1654933,9.42848 L37.9510933,9.42848 L35.7366933,0.39168 L37.6950933,0.39168 L39.0780267,7.39328 L40.8700267,0.39168 L42.8534933,0.39168 L44.6588267,7.39328 L46.0406933,0.39168 L47.9990933,0.39168 Z M32.3580267,0.39168 L32.3580267,1.82528 L29.8620267,1.82528 L29.8620267,9.42848 L28.0572267,9.42848 L28.0572267,1.82528 L25.5740267,1.82528 L25.5740267,0.39168 L32.3580267,0.39168 Z M22.1052267,8.04661333 L25.1388267,8.04661333 L25.1388267,9.42848 L20.3004267,9.42848 L20.3004267,0.39168 L22.1052267,0.39168 L22.1052267,8.04661333 Z M16.8572267,9.42848 L18.6620267,9.42848 L18.6620267,0.39168 L16.8572267,0.39168 L16.8572267,9.42848 Z M9.85562667,0.39168 L9.85562667,5.69141333 C9.85562667,6.39968 10.01136,6.93088 10.3228267,7.28501333 C10.6342933,7.63914667 11.0844267,7.81568 11.6732267,7.81568 C12.2534933,7.81568 12.69936,7.63914667 13.0108267,7.28501333 C13.3222933,6.93088 13.4780267,6.39968 13.4780267,5.69141333 L13.4780267,0.39168 L15.2700267,0.39168 L15.2700267,5.69141333 C15.2700267,6.52768 15.1142933,7.23328 14.80336,7.80928 C14.49136,8.38528 14.0604267,8.81408 13.5100267,9.09568 C12.9596267,9.37781333 12.33456,9.51808 11.63536,9.51808 C10.5510933,9.51808 9.68496,9.19434667 9.03696,8.54528 C8.38789333,7.89674667 8.06362667,6.94528 8.06362667,5.69141333 L8.06362667,0.39168 L9.85562667,0.39168 Z M4.62096,7.64341333 C4.87696,7.43381333 5.00442667,7.12928 5.00442667,6.72768 C5.00442667,6.32714667 4.87429333,6.01728 4.61456,5.80021333 C4.35376,5.58208 3.98469333,5.47328 3.50682667,5.47328 L1.80442667,5.47328 L1.80442667,7.95701333 L3.52016,7.95701333 C3.99749333,7.95701333 4.36496,7.85194667 4.62096,7.64341333 L4.62096,7.64341333 Z M1.80442667,4.18048 L3.43002667,4.18048 C3.88229333,4.18048 4.22576,4.08021333 4.46042667,3.87968 C4.69509333,3.67968 4.81296,3.39168 4.81296,3.01568 C4.81296,2.64074667 4.69776,2.35008 4.46736,2.14528 C4.23696,1.94048 3.88229333,1.83808 3.40442667,1.83808 L1.80442667,1.83808 L1.80442667,4.18048 Z M6.35536,5.54368 C6.68336,5.94954667 6.84762667,6.42528 6.84762667,6.97088 C6.84762667,7.73088 6.59376,8.33034667 6.08656,8.76928 C5.57882667,9.20874667 4.84229333,9.42848 3.87856,9.42848 L0.00016,9.42848 L0.00016,0.39168 L3.80176,0.39168 C4.71429333,0.39168 5.41616,0.592213333 5.90682667,0.99328 C6.39749333,1.39488 6.64336,1.95808 6.64336,2.68288 C6.64336,3.24661333 6.49562667,3.70741333 6.20176,4.06581333 C5.90682667,4.42421333 5.52069333,4.65888 5.04336,4.76928 C5.58896,4.88021333 6.02629333,5.13834667 6.35536,5.54368 L6.35536,5.54368 Z" id="Fill-1" fill="#4C54D2" mask="url(#mask-2)"></path>
                    </g>
                    <path d="M74.2596267,23.27024 L82.1950933,18.65264 L87.6660267,9.15610667 L87.6660267,-0.00016 C87.5220267,-0.00016 87.3774933,0.0953066667 87.26816,0.28464 L80.7876267,11.5337067 L74.3076267,22.7827733 C74.1982933,22.97264 74.18816,23.1449067 74.2596267,23.27024" id="Fill-4" fill="#FF4724"></path>
                    <path d="M87.6661333,-5.33333333e-05 L87.6661333,9.15621333 L93.1365333,18.6527467 L101.072533,23.2703467 C101.144,23.1450133 101.133867,22.9727467 101.024533,22.78288 L94.5445333,11.5338133 L88.064,0.284746667 C87.9546667,0.09488 87.8101333,-5.33333333e-05 87.6661333,-5.33333333e-05" id="Fill-6" fill="#9E1F63"></path>
                    <g id="Group-10" transform="translate(74.133333, 18.140533)">
                        <mask id="mask-4" fill="white">
                            <use xlink:href="#path-3"></use>
                        </mask>
                        <g id="Clip-9"></g>
                        <path d="M26.93904,5.12970667 L19.0035733,0.512106667 L8.06170667,0.512106667 L0.126773333,5.12970667 C0.197706667,5.25557333 0.35184,5.33344 0.57104,5.33344 L26.4947733,5.33344 C26.71344,5.33344 26.8675733,5.25557333 26.93904,5.12970667" id="Fill-8" fill="#662D91" mask="url(#mask-4)"></path>
                    </g>
                    <polygon id="Fill-11" fill="#FFFFFF" points="82.1953067 18.6528 93.13664 18.6528 87.66624 9.15626667"></polygon>
                </g>
            </g>
        </g>
    </g>
</svg>