<svg width="240" height="184" viewBox="0 0 240 184" fill="none" xmlns="http://www.w3.org/2000/svg">
<g opacity="0.2" filter="url(#filter0_f_1204_13434)">
<ellipse cx="141.557" cy="96.2726" rx="47.1934" ry="65.0818" transform="rotate(-114.927 141.557 96.2726)" fill="#FE5907"/>
</g>
<g opacity="0.2" filter="url(#filter1_f_1204_13434)">
<ellipse cx="88.9147" cy="90.4994" rx="51.3684" ry="55.1398" transform="rotate(-27.1286 88.9147 90.4994)" fill="#5F5CF1"/>
</g>
<path d="M118 160C169.915 160 212 129.779 212 92.5C212 78.1622 199.28 73.2963 188.664 62.3645C171.678 44.8727 149.948 25 118 25C87.4548 25 67.0116 42.9823 49.8419 59.1883C37.83 70.5261 24 77.1549 24 92.5C24 111.584 47.6156 121.424 65.3471 133.701C82.2519 145.406 92.6621 160 118 160Z" fill="#E2E2FC"/>
<g filter="url(#filter2_d_1204_13434)">
<rect x="36" y="38" width="160" height="110" rx="4" fill="white"/>
</g>
<path d="M36 42C36 39.7909 37.7909 38 40 38H192C194.209 38 196 39.7909 196 42V58H36V42Z" fill="#E1E2E8"/>
<rect x="36" y="64" width="160" height="48" fill="url(#paint0_linear_1204_13434)"/>
<g clip-path="url(#clip0_1204_13434)">
<rect x="51" y="80" width="24" height="24.2577" rx="12" fill="#322FB4"/>
<path d="M65.0453 91.891C67.3182 91.891 69.1608 90.1455 69.1608 87.9922C69.1608 85.8389 67.3182 84.0933 65.0453 84.0933C62.7724 84.0933 60.9298 85.8389 60.9298 87.9922C60.9298 90.1455 62.7724 91.891 65.0453 91.891Z" fill="white"/>
<path fill-rule="evenodd" clip-rule="evenodd" d="M69.2754 87.803C66.9572 88.2666 68.4078 85.1265 64.6986 86.5174C60.9894 87.9084 57.5196 86.8757 57.0559 82.7028C57.9832 80.3846 59.1349 84.6628 61.4531 83.2719C63.7713 81.881 68.8117 80.8483 69.2754 87.803Z" fill="#FE5907"/>
<path d="M63.1343 105C66.5859 105 69.7056 103.553 71.8298 101.29C71.6307 96.8877 67.8472 93.3662 63.1343 93.3662C58.4213 93.3662 54.638 96.8877 54.4387 101.29C56.5627 103.553 59.6826 105 63.1343 105Z" fill="white"/>
</g>
<path fill-rule="evenodd" clip-rule="evenodd" d="M50 49C50 50.6569 48.6569 52 47 52C45.3431 52 44 50.6569 44 49C44 47.3431 45.3431 46 47 46C48.6569 46 50 47.3431 50 49ZM58 49C58 50.6569 56.6569 52 55 52C53.3431 52 52 50.6569 52 49C52 47.3431 53.3431 46 55 46C56.6569 46 58 47.3431 58 49ZM63 52C64.6569 52 66 50.6569 66 49C66 47.3431 64.6569 46 63 46C61.3431 46 60 47.3431 60 49C60 50.6569 61.3431 52 63 52Z" fill="#A8ADBF"/>
<path fill-rule="evenodd" clip-rule="evenodd" d="M78 43C75.7909 43 74 44.7909 74 47V56H36V64H196V56H114V47C114 44.7909 112.209 43 110 43H78Z" fill="white"/>
<rect x="36.5" y="38.5" width="159" height="109" rx="3.5" stroke="#E1E2E8"/>
<rect x="133" y="120" width="53" height="16" rx="8" fill="#423EEE"/>
<path d="M143.528 131.056C143.117 131.056 142.749 130.989 142.424 130.856C142.099 130.723 141.837 130.525 141.64 130.264C141.448 130.003 141.347 129.688 141.336 129.32H142.792C142.813 129.528 142.885 129.688 143.008 129.8C143.131 129.907 143.291 129.96 143.488 129.96C143.691 129.96 143.851 129.915 143.968 129.824C144.085 129.728 144.144 129.597 144.144 129.432C144.144 129.293 144.096 129.179 144 129.088C143.909 128.997 143.795 128.923 143.656 128.864C143.523 128.805 143.331 128.739 143.08 128.664C142.717 128.552 142.421 128.44 142.192 128.328C141.963 128.216 141.765 128.051 141.6 127.832C141.435 127.613 141.352 127.328 141.352 126.976C141.352 126.453 141.541 126.045 141.92 125.752C142.299 125.453 142.792 125.304 143.4 125.304C144.019 125.304 144.517 125.453 144.896 125.752C145.275 126.045 145.477 126.456 145.504 126.984H144.024C144.013 126.803 143.947 126.661 143.824 126.56C143.701 126.453 143.544 126.4 143.352 126.4C143.187 126.4 143.053 126.445 142.952 126.536C142.851 126.621 142.8 126.747 142.8 126.912C142.8 127.093 142.885 127.235 143.056 127.336C143.227 127.437 143.493 127.547 143.856 127.664C144.219 127.787 144.512 127.904 144.736 128.016C144.965 128.128 145.163 128.291 145.328 128.504C145.493 128.717 145.576 128.992 145.576 129.328C145.576 129.648 145.493 129.939 145.328 130.2C145.168 130.461 144.933 130.669 144.624 130.824C144.315 130.979 143.949 131.056 143.528 131.056ZM147.762 125.384V128.744C147.762 129.08 147.845 129.339 148.01 129.52C148.175 129.701 148.418 129.792 148.738 129.792C149.058 129.792 149.303 129.701 149.474 129.52C149.645 129.339 149.73 129.08 149.73 128.744V125.384H151.098V128.736C151.098 129.237 150.991 129.661 150.778 130.008C150.565 130.355 150.277 130.616 149.914 130.792C149.557 130.968 149.157 131.056 148.714 131.056C148.271 131.056 147.874 130.971 147.522 130.8C147.175 130.624 146.901 130.363 146.698 130.016C146.495 129.664 146.394 129.237 146.394 128.736V125.384H147.762ZM156.339 127.192C156.339 127.517 156.264 127.816 156.115 128.088C155.965 128.355 155.736 128.571 155.427 128.736C155.117 128.901 154.733 128.984 154.275 128.984H153.427V131H152.059V125.384H154.275C154.723 125.384 155.101 125.461 155.411 125.616C155.72 125.771 155.952 125.984 156.107 126.256C156.261 126.528 156.339 126.84 156.339 127.192ZM154.171 127.896C154.432 127.896 154.627 127.835 154.755 127.712C154.883 127.589 154.947 127.416 154.947 127.192C154.947 126.968 154.883 126.795 154.755 126.672C154.627 126.549 154.432 126.488 154.171 126.488H153.427V127.896H154.171ZM161.331 127.192C161.331 127.517 161.256 127.816 161.107 128.088C160.957 128.355 160.728 128.571 160.419 128.736C160.109 128.901 159.725 128.984 159.267 128.984H158.419V131H157.051V125.384H159.267C159.715 125.384 160.093 125.461 160.403 125.616C160.712 125.771 160.944 125.984 161.099 126.256C161.253 126.528 161.331 126.84 161.331 127.192ZM159.163 127.896C159.424 127.896 159.619 127.835 159.747 127.712C159.875 127.589 159.939 127.416 159.939 127.192C159.939 126.968 159.875 126.795 159.747 126.672C159.619 126.549 159.424 126.488 159.163 126.488H158.419V127.896H159.163ZM164.699 131.056C164.171 131.056 163.686 130.933 163.243 130.688C162.806 130.443 162.456 130.101 162.195 129.664C161.939 129.221 161.811 128.725 161.811 128.176C161.811 127.627 161.939 127.133 162.195 126.696C162.456 126.259 162.806 125.917 163.243 125.672C163.686 125.427 164.171 125.304 164.699 125.304C165.227 125.304 165.71 125.427 166.147 125.672C166.59 125.917 166.936 126.259 167.187 126.696C167.443 127.133 167.571 127.627 167.571 128.176C167.571 128.725 167.443 129.221 167.187 129.664C166.931 130.101 166.584 130.443 166.147 130.688C165.71 130.933 165.227 131.056 164.699 131.056ZM164.699 129.808C165.147 129.808 165.504 129.659 165.771 129.36C166.043 129.061 166.179 128.667 166.179 128.176C166.179 127.68 166.043 127.285 165.771 126.992C165.504 126.693 165.147 126.544 164.699 126.544C164.246 126.544 163.883 126.691 163.611 126.984C163.344 127.277 163.211 127.675 163.211 128.176C163.211 128.672 163.344 129.069 163.611 129.368C163.883 129.661 164.246 129.808 164.699 129.808ZM171.196 131L170.028 128.88H169.7V131H168.332V125.384H170.628C171.071 125.384 171.447 125.461 171.756 125.616C172.071 125.771 172.305 125.984 172.46 126.256C172.615 126.523 172.692 126.821 172.692 127.152C172.692 127.525 172.585 127.859 172.372 128.152C172.164 128.445 171.855 128.653 171.444 128.776L172.74 131H171.196ZM169.7 127.912H170.548C170.799 127.912 170.985 127.851 171.108 127.728C171.236 127.605 171.3 127.432 171.3 127.208C171.3 126.995 171.236 126.827 171.108 126.704C170.985 126.581 170.799 126.52 170.548 126.52H169.7V127.912ZM177.591 125.384V126.48H176.103V131H174.735V126.48H173.247V125.384H177.591Z" fill="white"/>
<path fill-rule="evenodd" clip-rule="evenodd" d="M114.356 133.643L118.289 131.333L121 126.581V122C120.929 122 120.857 122.048 120.803 122.143L117.591 127.771L114.38 133.4C114.326 133.495 114.32 133.581 114.356 133.643Z" fill="#FF4724"/>
<path fill-rule="evenodd" clip-rule="evenodd" d="M121 122V126.581L123.711 131.333L127.644 133.643C127.68 133.581 127.674 133.495 127.62 133.4L124.409 127.771L121.197 122.143C121.143 122.048 121.071 122 121 122Z" fill="#9E1F63"/>
<path fill-rule="evenodd" clip-rule="evenodd" d="M127.644 133.643L123.711 131.333H118.289L114.356 133.643C114.391 133.706 114.468 133.745 114.576 133.745H127.424C127.532 133.745 127.608 133.706 127.644 133.643Z" fill="#662D91"/>
<path fill-rule="evenodd" clip-rule="evenodd" d="M118.289 131.333H123.711L121 126.581L118.289 131.333Z" fill="white"/>
<g filter="url(#filter3_d_1204_13434)">
<mask id="path-20-outside-1_1204_13434" maskUnits="userSpaceOnUse" x="177" y="131" width="16" height="19" fill="black">
<rect fill="white" x="177" y="131" width="16" height="19"/>
<path fill-rule="evenodd" clip-rule="evenodd" d="M181.836 142L180.949 140.645C180.344 139.72 179.054 139.383 178.068 139.89L178.298 139.772C178.053 139.898 177.935 140.211 178.036 140.472L179.263 143.647C179.458 144.151 179.955 144.863 180.367 145.22C180.367 145.22 182.836 147.264 182.836 148.03V149H186.836L187.836 147L188.836 149H189.836V148.03C189.836 147.264 191.344 144.851 191.344 144.851C191.622 144.382 191.854 143.555 191.854 143.007V138.972C191.836 138.078 191.076 137.355 190.139 137.355C189.671 137.355 189.291 137.717 189.291 138.163V138.487C189.291 137.593 188.532 136.869 187.595 136.869C187.126 136.869 186.746 137.231 186.746 137.678V138.001C186.746 137.108 185.987 136.384 185.05 136.384C184.581 136.384 184.201 136.746 184.201 137.193V137.516C184.201 137.373 184.186 137.258 184.157 137.168L183.898 133.001C183.863 132.438 183.388 132 182.836 132C182.279 132 181.836 132.448 181.836 133V137V142ZM188.854 141H189.854V145H188.854V141ZM186.854 141H187.854V145H186.854V141ZM184.854 141H185.854V145H184.854V141Z"/>
</mask>
<path fill-rule="evenodd" clip-rule="evenodd" d="M181.836 142L180.949 140.645C180.344 139.72 179.054 139.383 178.068 139.89L178.298 139.772C178.053 139.898 177.935 140.211 178.036 140.472L179.263 143.647C179.458 144.151 179.955 144.863 180.367 145.22C180.367 145.22 182.836 147.264 182.836 148.03V149H186.836L187.836 147L188.836 149H189.836V148.03C189.836 147.264 191.344 144.851 191.344 144.851C191.622 144.382 191.854 143.555 191.854 143.007V138.972C191.836 138.078 191.076 137.355 190.139 137.355C189.671 137.355 189.291 137.717 189.291 138.163V138.487C189.291 137.593 188.532 136.869 187.595 136.869C187.126 136.869 186.746 137.231 186.746 137.678V138.001C186.746 137.108 185.987 136.384 185.05 136.384C184.581 136.384 184.201 136.746 184.201 137.193V137.516C184.201 137.373 184.186 137.258 184.157 137.168L183.898 133.001C183.863 132.438 183.388 132 182.836 132C182.279 132 181.836 132.448 181.836 133V137V142ZM188.854 141H189.854V145H188.854V141ZM186.854 141H187.854V145H186.854V141ZM184.854 141H185.854V145H184.854V141Z" fill="white"/>
<path d="M181.836 142L180.999 142.548L182.836 145.354V142H181.836ZM180.949 140.645L181.786 140.098L180.949 140.645ZM178.036 140.472L177.103 140.833L178.036 140.472ZM179.263 143.647L180.196 143.287L179.263 143.647ZM180.367 145.22L179.711 145.975L179.72 145.983L179.729 145.991L180.367 145.22ZM182.836 149H181.836V150H182.836V149ZM186.836 149V150H187.454L187.73 149.447L186.836 149ZM187.836 147L188.73 146.553L187.836 144.764L186.941 146.553L187.836 147ZM188.836 149L187.941 149.447L188.218 150H188.836V149ZM189.836 149V150H190.836V149H189.836ZM191.344 144.851L192.192 145.381L192.199 145.371L192.205 145.36L191.344 144.851ZM191.854 138.972H192.854V138.962L192.853 138.952L191.854 138.972ZM184.157 137.168L183.158 137.23L183.166 137.358L183.206 137.479L184.157 137.168ZM183.898 133.001L182.9 133.063V133.063L183.898 133.001ZM181.836 133H180.836H181.836ZM189.854 141H190.854V140H189.854V141ZM189.854 145V146H190.854V145H189.854ZM188.854 145H187.854V146H188.854V145ZM188.854 141V140H187.854V141H188.854ZM187.854 141H188.854V140H187.854V141ZM187.854 145V146H188.854V145H187.854ZM186.854 145H185.854V146H186.854V145ZM186.854 141V140H185.854V141H186.854ZM185.854 141H186.854V140H185.854V141ZM185.854 145V146H186.854V145H185.854ZM184.854 145H183.854V146H184.854V145ZM184.854 141V140H183.854V141H184.854ZM182.672 141.452L181.786 140.098L180.112 141.193L180.999 142.548L182.672 141.452ZM181.786 140.098C180.898 138.742 179.049 138.261 177.61 139.001L178.525 140.779C179.059 140.505 179.789 140.699 180.112 141.193L181.786 140.098ZM178.525 140.779L178.755 140.661L177.84 138.882L177.61 139.001L178.525 140.779ZM177.84 138.882C177.131 139.247 176.822 140.105 177.103 140.833L178.969 140.112C179.014 140.23 179.005 140.34 178.974 140.421C178.944 140.503 178.876 140.599 178.755 140.661L177.84 138.882ZM177.103 140.833L178.331 144.008L180.196 143.287L178.969 140.112L177.103 140.833ZM178.331 144.008C178.583 144.662 179.175 145.51 179.711 145.975L181.022 144.465C180.735 144.216 180.333 143.64 180.196 143.287L178.331 144.008ZM180.367 145.22C179.729 145.991 179.729 145.991 179.729 145.991C179.729 145.991 179.729 145.991 179.729 145.991C179.729 145.991 179.729 145.991 179.729 145.991C179.729 145.991 179.729 145.991 179.73 145.991C179.73 145.992 179.732 145.993 179.734 145.995C179.738 145.998 179.744 146.003 179.752 146.01C179.768 146.024 179.793 146.045 179.825 146.072C179.889 146.126 179.981 146.205 180.092 146.303C180.315 146.499 180.609 146.765 180.9 147.051C181.196 147.342 181.468 147.632 181.659 147.88C181.755 148.004 181.813 148.095 181.843 148.152C181.884 148.23 181.836 148.174 181.836 148.03H183.836C183.836 147.694 183.71 147.407 183.616 147.226C183.511 147.025 183.376 146.831 183.241 146.656C182.969 146.304 182.624 145.941 182.302 145.625C181.976 145.304 181.653 145.012 181.413 144.801C181.292 144.695 181.191 144.608 181.12 144.548C181.085 144.517 181.056 144.494 181.037 144.477C181.027 144.469 181.019 144.462 181.014 144.458C181.011 144.455 181.009 144.454 181.007 144.452C181.006 144.452 181.006 144.451 181.005 144.451C181.005 144.451 181.005 144.45 181.005 144.45C181.005 144.45 181.004 144.45 181.004 144.45C181.004 144.45 181.004 144.45 180.367 145.22ZM181.836 148.03V149H183.836V148.03H181.836ZM182.836 150H186.836V148H182.836V150ZM187.73 149.447L188.73 147.447L186.941 146.553L185.941 148.553L187.73 149.447ZM186.941 147.447L187.941 149.447L189.73 148.553L188.73 146.553L186.941 147.447ZM188.836 150H189.836V148H188.836V150ZM190.836 149V148.03H188.836V149H190.836ZM190.836 148.03C190.836 148.066 190.846 147.944 190.992 147.6C191.116 147.307 191.288 146.965 191.47 146.628C191.65 146.294 191.831 145.981 191.968 145.75C192.037 145.635 192.093 145.542 192.133 145.477C192.152 145.445 192.168 145.421 192.178 145.404C192.183 145.396 192.187 145.39 192.189 145.386C192.19 145.384 192.191 145.382 192.192 145.382C192.192 145.381 192.192 145.381 192.192 145.381C192.192 145.381 192.192 145.381 192.192 145.381C192.192 145.381 192.192 145.381 192.192 145.381C192.192 145.381 192.192 145.381 191.344 144.851C190.496 144.321 190.496 144.321 190.496 144.321C190.496 144.321 190.496 144.321 190.496 144.321C190.496 144.321 190.496 144.321 190.496 144.321C190.496 144.322 190.495 144.322 190.495 144.323C190.494 144.325 190.493 144.327 190.491 144.329C190.488 144.335 190.483 144.342 190.477 144.352C190.465 144.371 190.448 144.399 190.426 144.434C190.383 144.505 190.322 144.606 190.249 144.729C190.103 144.975 189.907 145.313 189.71 145.678C189.515 146.04 189.309 146.445 189.15 146.82C189.013 147.144 188.836 147.611 188.836 148.03H190.836ZM192.205 145.36C192.403 145.026 192.559 144.613 192.667 144.226C192.774 143.839 192.854 143.401 192.854 143.007H190.854C190.854 143.161 190.817 143.41 190.74 143.691C190.662 143.971 190.564 144.206 190.484 144.341L192.205 145.36ZM192.854 143.007V138.972H190.854V143.007H192.854ZM192.853 138.952C192.824 137.482 191.588 136.355 190.139 136.355V138.355C190.565 138.355 190.847 138.675 190.854 138.992L192.853 138.952ZM190.139 136.355C189.164 136.355 188.291 137.12 188.291 138.163H190.291C190.291 138.232 190.26 138.286 190.229 138.315C190.199 138.344 190.165 138.355 190.139 138.355V136.355ZM188.291 138.163V138.487H190.291V138.163H188.291ZM190.291 138.487C190.291 136.997 189.038 135.869 187.595 135.869V137.869C188.025 137.869 188.291 138.19 188.291 138.487H190.291ZM187.595 135.869C186.619 135.869 185.746 136.635 185.746 137.678H187.746C187.746 137.746 187.715 137.801 187.685 137.83C187.655 137.859 187.621 137.869 187.595 137.869V135.869ZM185.746 137.678V138.001H187.746V137.678H185.746ZM187.746 138.001C187.746 136.511 186.494 135.384 185.05 135.384V137.384C185.48 137.384 185.746 137.705 185.746 138.001H187.746ZM185.05 135.384C184.074 135.384 183.201 136.149 183.201 137.193H185.201C185.201 137.261 185.171 137.315 185.14 137.345C185.11 137.373 185.076 137.384 185.05 137.384V135.384ZM183.201 137.193V137.516H185.201V137.193H183.201ZM185.201 137.516C185.201 137.309 185.18 137.081 185.107 136.857L183.206 137.479C183.198 137.456 183.198 137.444 183.199 137.452C183.199 137.459 183.201 137.479 183.201 137.516H185.201ZM185.155 137.106L184.896 132.939L182.9 133.063L183.158 137.23L185.155 137.106ZM184.896 132.939C184.828 131.845 183.912 131 182.836 131V133C182.844 133 182.86 133.003 182.877 133.019C182.893 133.034 182.899 133.05 182.9 133.063L184.896 132.939ZM182.836 131C181.725 131 180.836 131.898 180.836 133H182.836V133V131ZM180.836 133V137H182.836V133H180.836ZM180.836 137V142H182.836V137H180.836ZM188.854 142H189.854V140H188.854V142ZM188.854 141V145H190.854V141H188.854ZM189.854 144H188.854V146H189.854V144ZM189.854 145V141H187.854V145H189.854ZM186.854 142H187.854V140H186.854V142ZM186.854 141V145H188.854V141H186.854ZM187.854 144H186.854V146H187.854V144ZM187.854 145V141H185.854V145H187.854ZM184.854 142H185.854V140H184.854V142ZM184.854 141V145H186.854V141H184.854ZM185.854 144H184.854V146H185.854V144ZM185.854 145V141H183.854V145H185.854Z" fill="black" fill-opacity="0.8" mask="url(#path-20-outside-1_1204_13434)"/>
</g>
<rect x="46" y="120" width="13.7745" height="3.31579" rx="1.65789" fill="#FC9378"/>
<rect x="75.2019" y="120" width="28.6509" height="3.31579" rx="1.65789" fill="#E1E2E8"/>
<rect x="62.5294" y="120" width="6.61174" height="3.31579" rx="1.65789" fill="#FC9378"/>
<rect x="46" y="125.526" width="45.1802" height="3.31579" rx="1.65789" fill="#E1E2E8"/>
<rect x="46" y="131.053" width="24.794" height="3.31579" rx="1.65789" fill="#E1E2E8"/>
<rect x="72.9979" y="131.053" width="12.1215" height="3.31579" rx="1.65789" fill="#AAA8F7"/>
<rect x="88.9763" y="131.053" width="12.1215" height="3.31579" rx="1.65789" fill="#FC9378"/>
<rect x="46" y="136.579" width="61.1586" height="3.31579" rx="1.65789" fill="#E1E2E8"/>
<defs>
<filter id="filter0_f_1204_13434" x="43.2592" y="9.43359" width="196.595" height="173.678" filterUnits="userSpaceOnUse" color-interpolation-filters="sRGB">
<feFlood flood-opacity="0" result="BackgroundImageFix"/>
<feBlend mode="normal" in="SourceGraphic" in2="BackgroundImageFix" result="shape"/>
<feGaussianBlur stdDeviation="18" result="effect1_foregroundBlur_1204_13434"/>
</filter>
<filter id="filter1_f_1204_13434" x="0.72998" y="0.109375" width="176.369" height="180.78" filterUnits="userSpaceOnUse" color-interpolation-filters="sRGB">
<feFlood flood-opacity="0" result="BackgroundImageFix"/>
<feBlend mode="normal" in="SourceGraphic" in2="BackgroundImageFix" result="shape"/>
<feGaussianBlur stdDeviation="18" result="effect1_foregroundBlur_1204_13434"/>
</filter>
<filter id="filter2_d_1204_13434" x="22" y="28" width="188" height="138" filterUnits="userSpaceOnUse" color-interpolation-filters="sRGB">
<feFlood flood-opacity="0" result="BackgroundImageFix"/>
<feColorMatrix in="SourceAlpha" type="matrix" values="0 0 0 0 0 0 0 0 0 0 0 0 0 0 0 0 0 0 127 0" result="hardAlpha"/>
<feMorphology radius="2" operator="erode" in="SourceAlpha" result="effect1_dropShadow_1204_13434"/>
<feOffset dy="4"/>
<feGaussianBlur stdDeviation="8"/>
<feComposite in2="hardAlpha" operator="out"/>
<feColorMatrix type="matrix" values="0 0 0 0 0 0 0 0 0 0 0 0 0 0 0 0 0 0 0.08 0"/>
<feBlend mode="multiply" in2="BackgroundImageFix" result="effect1_dropShadow_1204_13434"/>
<feBlend mode="normal" in="SourceGraphic" in2="effect1_dropShadow_1204_13434" result="shape"/>
</filter>
<filter id="filter3_d_1204_13434" x="174" y="129" width="21.8535" height="25" filterUnits="userSpaceOnUse" color-interpolation-filters="sRGB">
<feFlood flood-opacity="0" result="BackgroundImageFix"/>
<feColorMatrix in="SourceAlpha" type="matrix" values="0 0 0 0 0 0 0 0 0 0 0 0 0 0 0 0 0 0 127 0" result="hardAlpha"/>
<feOffset dy="1"/>
<feGaussianBlur stdDeviation="1.5"/>
<feColorMatrix type="matrix" values="0 0 0 0 0 0 0 0 0 0 0 0 0 0 0 0 0 0 0.2 0"/>
<feBlend mode="normal" in2="BackgroundImageFix" result="effect1_dropShadow_1204_13434"/>
<feBlend mode="normal" in="SourceGraphic" in2="effect1_dropShadow_1204_13434" result="shape"/>
</filter>
<linearGradient id="paint0_linear_1204_13434" x1="-86.0654" y1="90.6725" x2="-66.5229" y2="221.363" gradientUnits="userSpaceOnUse">
<stop stop-color="#392DD1"/>
<stop offset="1" stop-color="#FF4343"/>
</linearGradient>
<clipPath id="clip0_1204_13434">
<rect x="51" y="80" width="24" height="24.2577" rx="12" fill="white"/>
</clipPath>
</defs>
</svg>
