<svg viewBox="0 0 72 70" xmlns="http://www.w3.org/2000/svg">
  <path d="M36 0C16.11 0 0 16.059 0 35.885c0 15.88 10.305 29.292 24.615 34.046 1.8.314 2.475-.762 2.475-1.704 0-.852-.045-3.678-.045-6.684C18 63.203 15.66 59.345 14.94 57.327c-.405-1.032-2.16-4.217-3.69-5.07-1.26-.672-3.06-2.332-.045-2.376 2.835-.045 4.86 2.601 5.535 3.678 3.24 5.427 8.415 3.902 10.485 2.96.315-2.332 1.26-3.902 2.295-4.8-8.01-.896-16.38-3.992-16.38-17.718 0-3.902 1.395-7.132 3.69-9.644-.36-.897-1.62-4.575.36-9.51 0 0 3.015-.941 9.9 3.679 2.88-.808 5.94-1.211 9-1.211 3.06 0 6.12.403 9 1.21 6.885-4.664 9.9-3.677 9.9-3.677 1.98 4.934.72 8.612.36 9.51 2.295 2.511 3.69 5.696 3.69 9.643 0 13.771-8.415 16.822-16.425 17.719 1.305 1.121 2.43 3.274 2.43 6.638 0 4.8-.045 8.658-.045 9.869 0 .942.675 2.063 2.475 1.704C62.129 65.001 71.996 51.303 72 35.885 72 16.06 55.89 0 36 0z" fill="#000" fill-rule="nonzero"/>
</svg>