<svg viewBox="0 0 70 70" xmlns="http://www.w3.org/2000/svg">
  <g fill-rule="nonzero" fill="none">
    <path d="M35 70C15.673 70 0 54.327 0 35 0 15.673 15.673 0 35 0c19.327 0 35 15.673 35 35 0 19.327-15.673 35-35 35z" fill="#FF4500"/>
    <path d="M43.022 42.294a3.654 3.654 0 0 1-3.647-3.647A3.654 3.654 0 0 1 43.022 35a3.654 3.654 0 0 1 3.647 3.647 3.654 3.654 0 0 1-3.647 3.647m.644 5.985c-2.492 2.485-7.259 2.681-8.659 2.681-1.4 0-6.174-.196-8.659-2.681a.942.942 0 0 1 0-1.337.942.942 0 0 1 1.337 0c1.568 1.568 4.921 2.128 7.322 2.128 2.394 0 5.754-.56 7.322-2.128a.942.942 0 0 1 1.337 0 .955.955 0 0 1 0 1.337m-20.335-9.632A3.654 3.654 0 0 1 26.978 35a3.654 3.654 0 0 1 3.647 3.647 3.654 3.654 0 0 1-3.647 3.647 3.654 3.654 0 0 1-3.647-3.647m35-3.647a5.1 5.1 0 0 0-8.645-3.668c-3.486-2.52-8.295-4.144-13.65-4.333l2.324-10.941 7.595 1.617a3.634 3.634 0 0 0 3.626 3.472 3.645 3.645 0 0 0 3.647-3.647 3.645 3.645 0 0 0-3.647-3.647c-1.435 0-2.66.833-3.255 2.037l-8.484-1.806a.91.91 0 0 0-.686.126.899.899 0 0 0-.392.574l-2.548 12.005c-.014.07 0 .133 0 .203-5.453.14-10.353 1.771-13.895 4.326a5.064 5.064 0 0 0-3.528-1.421A5.104 5.104 0 0 0 11.69 35a5.103 5.103 0 0 0 3.017 4.655 10.252 10.252 0 0 0-.119 1.547c0 7.854 9.142 14.217 20.419 14.217 11.277 0 20.419-6.363 20.419-14.217 0-.518-.042-1.029-.119-1.533A5.126 5.126 0 0 0 58.331 35" fill="#FFF"/>
  </g>
</svg>