<svg viewBox="0 0 80 64" xmlns="http://www.w3.org/2000/svg">
  <path d="M25.158 64c30.19 0 46.701-24.625 46.701-45.979 0-.7 0-1.396-.048-2.089A33.114 33.114 0 0 0 80 7.568a33.164 33.164 0 0 1-9.427 2.542 16.263 16.263 0 0 0 7.216-8.938 33.208 33.208 0 0 1-10.423 3.922c-5.087-5.326-13.172-6.63-19.72-3.18-6.547 3.45-9.93 10.796-8.25 17.919-13.198-.652-25.494-6.789-33.828-16.884-4.356 7.384-2.131 16.83 5.082 21.572a16.487 16.487 0 0 1-7.45-2.023v.205c.002 7.692 5.51 14.317 13.168 15.84a16.637 16.637 0 0 1-7.411.278c2.15 6.583 8.312 11.092 15.334 11.222a33.265 33.265 0 0 1-20.384 6.931A33.93 33.93 0 0 1 0 56.741a47 47 0 0 0 25.158 7.246" fill="#1DA1F2" fill-rule="nonzero"/>
</svg>