<svg viewBox="0 0 70 70" xmlns="http://www.w3.org/2000/svg">
  <g fill="none" fill-rule="evenodd">
    <path d="M69.938 62.95a6.988 6.988 0 0 1-6.988 6.987H7.05A6.988 6.988 0 0 1 .063 62.95V7.05A6.988 6.988 0 0 1 7.05.063h55.9a6.988 6.988 0 0 1 6.987 6.987v55.9" fill="#31AFD8"/>
    <path d="M58.858 23.267c-.225 4.915-3.657 11.644-10.298 20.187-6.865 8.92-12.674 13.382-17.424 13.382-2.945 0-5.435-2.715-7.47-8.15L19.59 33.742c-1.512-5.431-3.132-8.15-4.866-8.15-.378 0-1.7.795-3.963 2.377L8.388 24.91a626.875 626.875 0 0 0 7.368-6.57c3.324-2.871 5.82-4.382 7.483-4.534 3.929-.378 6.347 2.307 7.255 8.056.981 6.204 1.66 10.062 2.042 11.572 1.134 5.147 2.38 7.717 3.742 7.717 1.055 0 2.644-1.669 4.76-5.009 2.114-3.337 3.247-5.877 3.4-7.623.302-2.88-.831-4.325-3.4-4.325-1.208 0-2.455.279-3.737.828 2.483-8.127 7.224-12.074 14.222-11.849 5.188.152 7.635 3.517 7.335 10.094" fill="#FFFFFE"/>
  </g>
</svg>