<svg viewBox="0 0 89 63" xmlns="http://www.w3.org/2000/svg" xmlns:xlink="http://www.w3.org/1999/xlink">
  <defs>
    <path id="a" d="M0 .704h88.625V63H0z"/>
  </defs>
  <g fill="none" fill-rule="evenodd">
    <g>
      <mask id="b" fill="#fff">
        <use xlink:href="#a"/>
      </mask>
      <path d="M86.772 10.431a11.122 11.122 0 0 0-7.835-7.867C72.025.704 44.312.704 44.312.704S16.6.704 9.687 2.564a11.122 11.122 0 0 0-7.835 7.867C0 17.371 0 31.852 0 31.852s0 14.48 1.852 21.42a11.123 11.123 0 0 0 7.835 7.868C16.6 63 44.312 63 44.312 63s27.713 0 34.625-1.86a11.123 11.123 0 0 0 7.835-7.868c1.853-6.94 1.853-21.42 1.853-21.42s0-14.48-1.853-21.42" fill="red" mask="url(#b)"/>
    </g>
    <path fill="#FFF" d="M35 45l23-13.5L35 18z"/>
  </g>
</svg>